<svg width="24" height="24" viewBox="0 0 24 24" fill="none" xmlns="http://www.w3.org/2000/svg">
<g id="logos:apple">
<path id="Vector" d="M18.2898 12.7261C18.3234 16.3512 21.47 17.5576 21.5048 17.573C21.4781 17.658 21.002 19.292 19.8471 20.9799C18.8487 22.4392 17.8124 23.893 16.1801 23.9231C14.5762 23.9527 14.0604 22.972 12.2267 22.972C10.3935 22.972 9.82044 23.893 8.30211 23.9527C6.7265 24.0123 5.52665 22.3748 4.52002 20.9208C2.46288 17.9469 0.890839 12.517 3.0017 8.85181C4.05031 7.03162 5.92436 5.87909 7.95834 5.84952C9.50554 5.82004 10.966 6.89044 11.9118 6.89044C12.857 6.89044 14.6317 5.6032 16.4974 5.79223C17.2783 5.82476 19.4708 6.10766 20.8786 8.16831C20.765 8.23863 18.2626 9.69547 18.2898 12.7262M15.2754 3.82469C16.112 2.81211 16.675 1.40259 16.5214 0C15.3156 0.0484571 13.8576 0.803505 12.9927 1.81547C12.2176 2.7117 11.5388 4.14606 11.722 5.52084C13.066 5.62484 14.4389 4.83787 15.2754 3.82469Z" fill="#032F35"/>
</g>
</svg>
