<svg width="120" height="121" viewBox="0 0 120 121" fill="none" xmlns="http://www.w3.org/2000/svg">
<path d="M28.5092 18.5051C29.1939 18.0879 29.9318 17.765 30.7028 17.5451L31.154 15.3851L34.8236 15.3203L35.3516 17.4803C36.13 17.671 36.8791 17.9656 37.5788 18.3563L39.434 17.1395L42.074 19.6883L40.9244 21.5843C41.3401 22.2706 41.663 23.0091 41.8844 23.7803L44.0564 24.2315L44.1188 27.9011L41.9588 28.4291C41.7671 29.2071 41.4725 29.9561 41.0828 30.6563L42.2972 32.5115L39.7484 35.1515L37.8524 34.0019C37.1669 34.4191 36.4282 34.742 35.6564 34.9619L35.2052 37.1363L31.5356 37.1987L31.0076 35.0387C30.2289 34.8491 29.4796 34.5544 28.7804 34.1627L26.9252 35.3795L24.2852 32.8307L25.4348 30.9347C25.0176 30.2492 24.6947 29.5105 24.4748 28.7387L22.3148 28.2875L22.25 24.6179L24.41 24.0899C24.5972 23.3069 24.8894 22.5529 25.2788 21.8483L24.062 19.9931L26.6108 17.3531L28.5092 18.5051ZM30.4652 23.3939C29.9253 23.9547 29.5639 24.663 29.4265 25.4293C29.2892 26.1955 29.3822 26.9853 29.6937 27.6987C30.0052 28.4121 30.5212 29.0171 31.1766 29.4372C31.8319 29.8574 32.5972 30.0737 33.3755 30.0589C34.1538 30.0442 34.9102 29.799 35.5492 29.3543C36.1881 28.9096 36.6809 28.2854 36.9651 27.5607C37.2493 26.836 37.3122 26.0433 37.1459 25.2828C36.9796 24.5223 36.5916 23.8282 36.0308 23.2883C35.2785 22.5648 34.2697 22.1696 33.2261 22.1894C32.1826 22.2092 31.1895 22.6424 30.4652 23.3939Z" fill="#F5F5F5"/>
<path d="M8.15586 10.8555C8.5514 10.618 8.97672 10.434 9.42067 10.3083L9.67987 9.05553L11.7943 9.01953L12.0991 10.2603C12.547 10.3699 12.9781 10.5394 13.3807 10.7643L14.4487 10.0635L15.9607 11.5299L15.2983 12.6219C15.5371 13.0171 15.722 13.4425 15.8479 13.8867L17.0983 14.1459L17.1343 16.2603L15.8935 16.5699C15.7844 17.018 15.6148 17.4492 15.3895 17.8515L16.0903 18.9195L14.6215 20.4411L13.5295 19.7787C13.1343 20.0176 12.7089 20.2024 12.2647 20.3283L11.9959 21.5763L9.88146 21.6147L9.59586 20.3739C9.14817 20.2625 8.71722 20.0922 8.31427 19.8675L7.24627 20.5683L5.72466 19.0995L6.37746 18.0099C6.1382 17.6158 5.95333 17.1912 5.82787 16.7475L4.57746 16.4859L4.53906 14.3715L5.78226 14.0691C5.89137 13.6203 6.06092 13.1883 6.28627 12.7851L5.58546 11.7171L7.05427 10.1979L8.15586 10.8555ZM9.28147 13.6731C8.96827 13.9953 8.75783 14.4033 8.67684 14.8452C8.59585 15.2872 8.64796 15.7432 8.82656 16.1555C9.00516 16.5678 9.3022 16.9178 9.68 17.161C10.0578 17.4042 10.4993 17.5298 10.9486 17.5217C11.3978 17.5136 11.8345 17.3722 12.2033 17.1155C12.5721 16.8588 12.8563 16.4984 13.02 16.0799C13.1836 15.6614 13.2192 15.2038 13.1224 14.7651C13.0255 14.3263 12.8005 13.9262 12.4759 13.6155C12.0431 13.1988 11.4627 12.9708 10.862 12.9816C10.2613 12.9924 9.68938 13.2411 9.27186 13.6731H9.28147Z" fill="#EBEBEB"/>
<path d="M53.6168 10.8555C54.0123 10.618 54.4377 10.434 54.8816 10.3083L55.1408 9.05553L57.2552 9.01953L57.56 10.2603C58.0079 10.3699 58.439 10.5394 58.8416 10.7643L59.9096 10.0635L61.4216 11.5299L60.7592 12.6219C60.9981 13.0171 61.1829 13.4425 61.3088 13.8867L62.5592 14.1459L62.5952 16.2603L61.3544 16.5699C61.2453 17.018 61.0757 17.4492 60.8504 17.8515L61.5512 18.9195L60.0824 20.4411L58.9904 19.7787C58.5952 20.0176 58.1699 20.2024 57.7256 20.3283L57.4568 21.5763L55.3424 21.6147L55.0568 20.3739C54.6091 20.2625 54.1782 20.0922 53.7752 19.8675L52.7072 20.5683L51.1856 19.0995L51.8384 18.0099C51.5991 17.6158 51.4143 17.1912 51.2888 16.7475L50.0384 16.4859L50 14.3715L51.2432 14.0691C51.3523 13.6203 51.5219 13.1883 51.7472 12.7851L51.0464 11.7171L52.5152 10.1979L53.6168 10.8555ZM54.7424 13.6731C54.4292 13.9953 54.2188 14.4033 54.1378 14.8452C54.0568 15.2872 54.1089 15.7432 54.2875 16.1555C54.4661 16.5678 54.7631 16.9178 55.1409 17.161C55.5187 17.4042 55.9603 17.5298 56.4095 17.5217C56.8588 17.5136 57.2955 17.3722 57.6643 17.1155C58.0331 16.8588 58.3173 16.4984 58.4809 16.0799C58.6445 15.6614 58.6802 15.2038 58.5833 14.7651C58.4864 14.3263 58.2614 13.9262 57.9368 13.6155C57.504 13.1988 56.9236 12.9708 56.3229 12.9816C55.7222 12.9924 55.1503 13.2411 54.7328 13.6731H54.7424Z" fill="#EBEBEB"/>
<path d="M105.609 50.1016C106.004 49.8633 106.428 49.6785 106.872 49.552L107.133 48.3016L109.245 48.2656L109.55 49.5064C109.999 49.6155 110.431 49.7851 110.834 50.0104L111.902 49.3096L113.421 50.7784L112.759 51.8704C112.998 52.2656 113.182 52.691 113.308 53.1352L114.561 53.3944L114.597 55.5088L113.356 55.8136C113.245 56.2609 113.075 56.6917 112.852 57.0952L113.551 58.1632L112.084 59.6848L110.992 59.0224C110.597 59.2613 110.172 59.4461 109.728 59.572L109.466 60.8224L107.354 60.8608L107.049 59.6176C106.601 59.5085 106.17 59.339 105.768 59.1136L104.697 59.8144L103.178 58.3456L103.84 57.2536C103.601 56.8587 103.416 56.4332 103.291 55.9888L102.04 55.7296L102.002 53.6152L103.243 53.3104C103.354 52.8632 103.524 52.4323 103.747 52.0288L103.048 50.9608L104.515 49.4392L105.609 50.1016ZM106.735 52.9168C106.423 53.2394 106.214 53.6472 106.134 54.0886C106.054 54.53 106.107 54.9852 106.285 55.3967C106.464 55.8081 106.761 56.1573 107.138 56.4001C107.515 56.6429 107.956 56.7684 108.405 56.7606C108.853 56.7529 109.289 56.6124 109.658 56.3567C110.027 56.1011 110.311 55.7419 110.476 55.3245C110.64 54.9072 110.677 54.4504 110.582 54.012C110.487 53.5736 110.264 53.1733 109.941 52.8616C109.508 52.4444 108.928 52.216 108.327 52.2263C107.725 52.2367 107.153 52.485 106.735 52.9168Z" fill="#EBEBEB"/>
<path d="M111.311 112.644C111.311 112.68 88.5515 112.707 60.4859 112.707C32.4202 112.707 9.65625 112.68 9.65625 112.644C9.65625 112.608 32.4082 112.582 60.4859 112.582C88.5635 112.582 111.311 112.611 111.311 112.644Z" fill="#032F35"/>
<path d="M100.235 112.468L66.1552 112.449C64.1866 112.448 62.2991 111.665 60.9076 110.272C59.5161 108.88 58.7344 106.992 58.7344 105.023L58.7512 19.5834C58.7556 17.6131 59.5414 15.725 60.9362 14.3333C62.331 12.9417 64.2209 12.1602 66.1912 12.1602L100.271 12.1818C102.24 12.183 104.127 12.9659 105.519 14.3584C106.91 15.7508 107.692 17.6388 107.692 19.6074L107.675 105.047C107.675 106.023 107.483 106.99 107.108 107.892C106.734 108.793 106.186 109.612 105.495 110.301C104.804 110.991 103.983 111.537 103.081 111.909C102.178 112.281 101.211 112.471 100.235 112.468Z" fill="#10664F"/>
<path d="M100.225 15.1953H93.6182C93.1826 15.2054 92.7688 15.388 92.4677 15.703C92.1667 16.018 92.003 16.4397 92.0126 16.8753V18.0753C92.0223 18.511 91.8586 18.9326 91.5575 19.2476C91.2565 19.5626 90.8427 19.7452 90.407 19.7553H77.5262C77.091 19.7446 76.6778 19.5617 76.3773 19.2468C76.0767 18.9318 75.9134 18.5105 75.923 18.0753V16.8753C75.9327 16.4397 75.769 16.018 75.4679 15.703C75.1669 15.388 74.7531 15.2054 74.3174 15.1953H66.2102C64.834 15.194 63.5135 15.7385 62.5381 16.7094C61.5627 17.6803 61.0121 18.9983 61.007 20.3745L60.9902 103.779C60.9928 105.157 61.5415 106.477 62.5161 107.45C63.4906 108.423 64.8114 108.97 66.1886 108.971L100.204 108.99C100.887 108.99 101.563 108.856 102.194 108.595C102.825 108.334 103.399 107.951 103.882 107.468C104.365 106.985 104.749 106.412 105.01 105.781C105.272 105.151 105.407 104.474 105.407 103.791L105.421 20.3865C105.42 19.0095 104.871 17.6895 103.897 16.7162C102.923 15.7429 101.602 15.1959 100.225 15.1953Z" fill="white"/>
<path d="M93.1914 51.168H73.1914C72.661 51.168 72.1523 51.3787 71.7772 51.7538C71.4021 52.1288 71.1914 52.6375 71.1914 53.168V60.168C71.1914 66.758 74.3814 70.7517 77.0577 72.9417C79.9402 75.2992 82.8077 76.0992 82.9327 76.133C83.1045 76.1797 83.2858 76.1797 83.4577 76.133C83.5827 76.0992 86.4464 75.2992 89.3327 72.9417C92.0014 70.7517 95.1914 66.758 95.1914 60.168V53.168C95.1914 52.6375 94.9807 52.1288 94.6056 51.7538C94.2305 51.3787 93.7218 51.168 93.1914 51.168ZM93.1914 60.168C93.1914 64.8017 91.4839 68.563 88.1164 71.3455C86.6505 72.5526 84.9833 73.492 83.1914 74.1205C81.4229 73.5029 79.7763 72.5802 78.3264 71.3942C74.9189 68.6067 73.1914 64.8305 73.1914 60.168V53.168H93.1914V60.168ZM77.4839 63.8755C77.2963 63.6878 77.1909 63.4333 77.1909 63.168C77.1909 62.9026 77.2963 62.6481 77.4839 62.4605C77.6715 62.2728 77.926 62.1674 78.1914 62.1674C78.4568 62.1674 78.7113 62.2728 78.8989 62.4605L81.1914 64.7542L87.4839 58.4605C87.5768 58.3676 87.6871 58.2939 87.8085 58.2436C87.9299 58.1933 88.06 58.1674 88.1914 58.1674C88.3228 58.1674 88.4529 58.1933 88.5743 58.2436C88.6957 58.2939 88.806 58.3676 88.8989 58.4605C88.9918 58.5534 89.0655 58.6637 89.1158 58.7851C89.1661 58.9065 89.192 59.0366 89.192 59.168C89.192 59.2994 89.1661 59.4295 89.1158 59.5509C89.0655 59.6723 88.9918 59.7826 88.8989 59.8755L81.8989 66.8755C81.806 66.9684 81.6957 67.0422 81.5743 67.0925C81.4529 67.1429 81.3228 67.1688 81.1914 67.1688C81.06 67.1688 80.9299 67.1429 80.8085 67.0925C80.6871 67.0422 80.5768 66.9684 80.4839 66.8755L77.4839 63.8755Z" fill="#B6ED3E"/>
<path d="M23.137 99.704C23.4602 99.7819 23.7644 99.9243 24.0313 100.123C24.2981 100.321 24.5221 100.571 24.6898 100.858C25.0215 101.436 25.2176 102.082 25.2634 102.747C25.3858 104.024 24.9418 105.433 24.3898 106.587C23.1442 105.891 22.5658 104.343 22.321 103.539C21.9346 102.27 22.0066 99.7376 23.137 99.6992" fill="#10664F"/>
<path d="M26.0474 108.392C25.8987 108.052 25.8426 107.679 25.8847 107.31C25.9269 106.941 26.0658 106.59 26.2874 106.292C26.5155 105.999 26.7999 105.754 27.1238 105.573C27.4478 105.391 27.8048 105.276 28.1738 105.234C28.3395 105.198 28.5109 105.198 28.6765 105.234C28.8421 105.27 28.998 105.341 29.1338 105.443C29.2442 105.56 29.3211 105.704 29.3566 105.861C29.3921 106.019 29.3847 106.182 29.3354 106.335C29.2335 106.641 29.053 106.914 28.8122 107.127C28.0226 107.891 27.1178 108.483 26.0234 108.392" fill="#10664F"/>
<path d="M25.5049 112.504C25.4907 112.417 25.4851 112.328 25.4881 112.24C25.4881 112.053 25.4881 111.81 25.4689 111.52C25.42 110.724 25.5011 109.926 25.7089 109.156C25.932 108.384 26.357 107.686 26.9401 107.133C27.1186 106.969 27.316 106.826 27.5281 106.708C27.5847 106.676 27.6432 106.647 27.7033 106.622C27.7231 106.61 27.7452 106.601 27.7681 106.598C27.4886 106.766 27.2265 106.961 26.9857 107.181C26.4223 107.735 26.0094 108.424 25.7857 109.182C25.5792 109.944 25.4878 110.732 25.5145 111.52C25.5145 111.825 25.5145 112.07 25.5145 112.24C25.5178 112.328 25.5146 112.416 25.5049 112.504Z" fill="#032F35"/>
<path d="M23.2523 101.637C23.2676 101.672 23.2797 101.708 23.2883 101.745C23.3123 101.826 23.3411 101.932 23.3747 102.062C23.4491 102.338 23.5523 102.738 23.6723 103.235C23.9123 104.229 24.2339 105.606 24.5507 107.133C24.8675 108.659 25.1219 110.051 25.2923 111.059C25.3763 111.563 25.4411 111.971 25.4843 112.259C25.5035 112.394 25.5179 112.499 25.5299 112.586C25.5337 112.624 25.5337 112.662 25.5299 112.701C25.5174 112.664 25.5078 112.626 25.5011 112.588C25.4843 112.504 25.4651 112.398 25.4387 112.264C25.3835 111.974 25.3091 111.568 25.2179 111.076C25.0307 110.07 24.7667 108.676 24.4499 107.157C24.1331 105.638 23.8259 104.253 23.6003 103.257C23.4875 102.777 23.3963 102.366 23.3315 102.076C23.3027 101.944 23.2787 101.836 23.2619 101.754C23.2541 101.716 23.2509 101.676 23.2523 101.637Z" fill="#032F35"/>
<path d="M24.3893 109.536C24.1006 108.809 23.6433 108.16 23.0549 107.645C22.4666 107.129 21.764 106.76 21.0053 106.569C20.6189 106.476 20.1389 106.464 19.9037 106.785C19.6685 107.107 19.8341 107.563 20.0525 107.897C20.5194 108.582 21.1784 109.115 21.9469 109.428C22.7154 109.741 23.5592 109.82 24.3725 109.656" fill="#10664F"/>
<path d="M21.4239 107.707C21.5052 107.717 21.5855 107.734 21.6639 107.757C21.7589 107.78 21.8527 107.807 21.9447 107.839C22.0503 107.877 22.1847 107.911 22.3071 107.971C22.4295 108.031 22.5855 108.089 22.7319 108.17C22.8927 108.252 23.0482 108.343 23.1975 108.444C23.5416 108.672 23.8581 108.94 24.1407 109.241C24.4178 109.546 24.6594 109.882 24.8607 110.241C24.9494 110.397 25.0296 110.557 25.1007 110.721C25.1622 110.866 25.2159 111.013 25.2615 111.163C25.3095 111.297 25.3287 111.427 25.3575 111.537C25.3805 111.632 25.3982 111.729 25.4103 111.825C25.425 111.905 25.4331 111.985 25.4343 112.065C25.4127 112.065 25.3743 111.715 25.1943 111.175C25.1468 111.029 25.0915 110.886 25.0287 110.745C24.9576 110.581 24.8774 110.421 24.7887 110.265C24.5852 109.914 24.3437 109.585 24.0687 109.286C23.7898 108.992 23.481 108.727 23.1471 108.497C22.9887 108.396 22.8399 108.297 22.6911 108.223C22.5567 108.147 22.4181 108.078 22.2759 108.017C21.7647 107.805 21.4167 107.726 21.4239 107.707Z" fill="#032F35"/>
<path d="M25.4653 72.7288L15.3565 71.6824L11.0749 61.9648L7.74854 62.8312C7.74854 62.8312 10.2061 73.1008 12.9565 74.692C15.7069 76.2832 25.1029 76.5688 25.1029 76.5688L25.4653 72.7288Z" fill="#B6ED3E"/>
<path d="M30.8408 77.672C32.4857 75.8213 32.3188 72.9876 30.4681 71.3427C28.6175 69.6979 25.7838 69.8647 24.1389 71.7154C22.4941 73.5661 22.6609 76.3998 24.5116 78.0447C26.3623 79.6895 29.196 79.5227 30.8408 77.672Z" fill="#032F35"/>
<path d="M27.485 79.18C26.4461 79.18 25.4394 78.8198 24.6363 78.1607C23.8333 77.5017 23.2836 76.5846 23.0809 75.5656C22.8782 74.5467 23.0351 73.4891 23.5249 72.5729C24.0146 71.6566 24.8068 70.9386 25.7666 70.541C26.7264 70.1435 27.7944 70.091 28.7885 70.3926C29.7827 70.6942 30.6415 71.3311 31.2187 72.1949C31.7958 73.0587 32.0556 74.0959 31.9538 75.1298C31.852 76.1636 31.3948 77.1302 30.6602 77.8648C30.2442 78.2831 29.7494 78.6147 29.2043 78.8404C28.6593 79.0662 28.0749 79.1816 27.485 79.18ZM27.485 70.2136C26.4489 70.2126 25.4445 70.5708 24.6429 71.2272C23.8414 71.8837 23.2922 72.7978 23.089 73.8137C22.8858 74.8297 23.0411 75.8847 23.5286 76.7989C24.016 77.7132 24.8054 78.4302 25.7622 78.8277C26.719 79.2252 27.784 79.2787 28.7758 78.979C29.7676 78.6793 30.6248 78.045 31.2014 77.1841C31.7779 76.3233 32.0381 75.2892 31.9377 74.2579C31.8373 73.2267 31.3824 72.2623 30.6506 71.5288C30.2361 71.1112 29.7429 70.7799 29.1996 70.5541C28.6562 70.3284 28.0734 70.2126 27.485 70.2136Z" fill="#032F35"/>
<path d="M14.4512 75.4572C16.2569 75.0237 17.3693 73.2084 16.9357 71.4028C16.5022 69.5971 14.687 68.4847 12.8813 68.9182C11.0756 69.3517 9.96325 71.1669 10.3968 72.9726C10.8303 74.7783 12.6455 75.8907 14.4512 75.4572Z" fill="#032F35"/>
<path d="M11.1111 62.7478C12.1843 61.6747 12.1843 59.9347 11.1111 58.8616C10.038 57.7884 8.29803 57.7884 7.22487 58.8616C6.15171 59.9347 6.15171 61.6747 7.22487 62.7478C8.29803 63.821 10.038 63.821 11.1111 62.7478Z" fill="#032F35"/>
<path d="M13.4516 59.3208L11.1889 61.2316L10.3729 60.2652L12.6356 58.3544C12.7547 58.2538 12.909 58.2047 13.0644 58.2178C13.2198 58.2309 13.3636 58.3052 13.4642 58.4243L13.52 58.4903C13.5701 58.5493 13.6082 58.6176 13.6319 58.6912C13.6557 58.7649 13.6646 58.8426 13.6583 58.9197C13.6519 58.9969 13.6304 59.0721 13.5949 59.1409C13.5595 59.2097 13.5108 59.2708 13.4516 59.3208Z" fill="#032F35"/>
<path d="M10.5786 55.8185V58.6985C10.5786 58.7207 10.5698 58.7421 10.554 58.7579C10.5383 58.7736 10.5169 58.7825 10.4946 58.7825H9.40022C9.37794 58.7825 9.35657 58.7736 9.34082 58.7579C9.32506 58.7421 9.31621 58.7207 9.31621 58.6985V55.8185C9.31621 55.6625 9.37816 55.513 9.48844 55.4027C9.59871 55.2924 9.74827 55.2305 9.90421 55.2305H9.99061C10.1466 55.2305 10.2961 55.2924 10.4064 55.4027C10.5167 55.513 10.5786 55.6625 10.5786 55.8185Z" fill="#032F35"/>
<path d="M8.53901 55.8316L9.16776 58.6422C9.17262 58.6639 9.16865 58.6867 9.15671 58.7055C9.14478 58.7243 9.12586 58.7376 9.10412 58.7425L8.03612 58.9814C8.01438 58.9863 7.9916 58.9823 7.97278 58.9704C7.95397 58.9584 7.94067 58.9395 7.93581 58.9178L7.30706 56.1072C7.27302 55.955 7.30082 55.7956 7.38436 55.6639C7.4679 55.5322 7.60033 55.4391 7.75251 55.405L7.83683 55.3862C7.98901 55.3521 8.14849 55.3799 8.28018 55.4635C8.41186 55.547 8.50497 55.6794 8.53901 55.8316Z" fill="#032F35"/>
<path d="M6.34918 56.5366L7.78918 59.0307C7.80031 59.05 7.80333 59.0729 7.79756 59.0945C7.7918 59.116 7.77772 59.1343 7.75843 59.1455L6.81065 59.6927C6.79136 59.7038 6.76843 59.7068 6.74691 59.7011C6.72539 59.6953 6.70704 59.6812 6.6959 59.6619L5.2559 57.1678C5.17793 57.0327 5.1568 56.8722 5.19716 56.7216C5.23752 56.5709 5.33607 56.4425 5.47113 56.3645L5.54595 56.3213C5.68101 56.2434 5.8415 56.2222 5.99214 56.2626C6.14277 56.303 6.2712 56.4015 6.34918 56.5366Z" fill="#032F35"/>
<path d="M69.3986 97.9001L72.4243 96.6133L63.6936 76.0847L60.6678 77.3716L69.3986 97.9001Z" fill="#B6ED3E"/>
<path d="M64.1285 78.047C65.7289 76.1577 65.4949 73.3288 63.6057 71.7283C61.7165 70.1279 58.8875 70.362 57.2871 72.2512C55.6866 74.1404 55.9207 76.9693 57.8099 78.5698C59.6991 80.1702 62.528 79.9362 64.1285 78.047Z" fill="#032F35"/>
<path d="M60.7123 79.6479C60.009 79.6482 59.3153 79.4834 58.6873 79.1668C58.0593 78.8501 57.5144 78.3904 57.0964 77.8247C56.6785 77.2589 56.3992 76.603 56.2811 75.9096C56.163 75.2163 56.2093 74.5049 56.4163 73.8327C56.6618 73.0398 57.1222 72.3306 57.7466 71.7837C58.371 71.2369 59.1347 70.8739 59.953 70.7351C60.7713 70.5963 61.6121 70.6871 62.3818 70.9975C63.1516 71.3078 63.8202 71.8256 64.3134 72.4931C64.8065 73.1607 65.1049 73.9519 65.1754 74.7789C65.2458 75.6059 65.0856 76.4362 64.7124 77.1776C64.3393 77.9189 63.7679 78.5423 63.0617 78.9784C62.3556 79.4145 61.5423 79.6462 60.7123 79.6479ZM60.7123 70.6767C59.8837 70.6775 59.0716 70.9082 58.3664 71.3431C57.6611 71.7779 57.0903 72.4 56.7175 73.1399C56.3446 73.8799 56.1844 74.7087 56.2546 75.5343C56.3247 76.3599 56.6226 77.1499 57.1149 77.8163C57.6073 78.4827 58.2749 78.9994 59.0434 79.3091C59.812 79.6187 60.6513 79.709 61.4682 79.57C62.285 79.431 63.0472 79.0681 63.6701 78.5217C64.293 77.9753 64.7521 77.2668 64.9963 76.4751C65.3449 75.3405 65.2291 74.1139 64.6743 73.0646C64.1195 72.0153 63.1711 71.229 62.0371 70.8783C61.6034 70.744 61.1519 70.676 60.6979 70.6767H60.7123Z" fill="#032F35"/>
<path d="M69.7843 88.5531C70.2815 86.7639 69.2341 84.9104 67.4449 84.4132C65.6557 83.916 63.8022 84.9633 63.305 86.7525C62.8078 88.5417 63.8552 90.3952 65.6444 90.8924C67.4336 91.3896 69.2871 90.3423 69.7843 88.5531Z" fill="#032F35"/>
<path d="M71.6157 100.867C73.1334 100.867 74.3637 99.6368 74.3637 98.1191C74.3637 96.6014 73.1334 95.3711 71.6157 95.3711C70.098 95.3711 68.8677 96.6014 68.8677 98.1191C68.8677 99.6368 70.098 100.867 71.6157 100.867Z" fill="#032F35"/>
<path d="M68.0194 100.889L69.5581 98.3637L70.6382 99.0219L69.0994 101.547C69.0183 101.68 68.8875 101.775 68.736 101.812C68.5844 101.849 68.4245 101.824 68.2913 101.743L68.2175 101.698C68.1513 101.658 68.0935 101.605 68.0477 101.543C68.0018 101.48 67.9688 101.41 67.9503 101.334C67.9319 101.259 67.9286 101.181 67.9404 101.105C67.9523 101.028 67.9791 100.955 68.0194 100.889Z" fill="#032F35"/>
<path d="M71.8478 103.297L70.9359 100.565C70.9288 100.544 70.9305 100.521 70.9404 100.501C70.9504 100.481 70.9678 100.466 70.989 100.459L72.0271 100.112C72.0482 100.105 72.0713 100.107 72.0912 100.117C72.1111 100.127 72.1263 100.144 72.1333 100.165L73.0453 102.897C73.0688 102.971 73.0777 103.048 73.0713 103.125C73.0649 103.202 73.0434 103.277 73.0081 103.346C72.9727 103.414 72.9242 103.475 72.8653 103.525C72.8063 103.575 72.7381 103.613 72.6646 103.636L72.5826 103.664C72.4365 103.711 72.2778 103.698 72.1405 103.63C72.0032 103.561 71.8982 103.442 71.8478 103.297Z" fill="#032F35"/>
<path d="M73.7791 102.641L72.2927 100.174C72.287 100.165 72.2833 100.154 72.2816 100.143C72.28 100.132 72.2805 100.121 72.2832 100.11C72.2858 100.1 72.2905 100.09 72.2971 100.081C72.3036 100.072 72.3119 100.064 72.3213 100.059L73.2587 99.494C73.2682 99.4883 73.2787 99.4845 73.2896 99.4828C73.3005 99.4812 73.3116 99.4817 73.3223 99.4844C73.333 99.487 73.3431 99.4918 73.352 99.4983C73.3608 99.5049 73.3683 99.5131 73.374 99.5226L74.8603 101.989C74.9408 102.123 74.965 102.283 74.9274 102.434C74.8899 102.586 74.7937 102.716 74.6602 102.796L74.5862 102.841C74.4526 102.922 74.2925 102.946 74.1411 102.908C73.9898 102.871 73.8595 102.774 73.7791 102.641Z" fill="#032F35"/>
<path d="M75.6405 101.282L73.4848 99.3721C73.4681 99.3573 73.458 99.3365 73.4566 99.3143C73.4553 99.2921 73.4628 99.2702 73.4776 99.2535L74.2018 98.4362C74.2165 98.4195 74.2373 98.4094 74.2596 98.408C74.2818 98.4067 74.3037 98.4142 74.3204 98.429L76.476 100.339C76.5927 100.442 76.6636 100.588 76.673 100.743C76.6824 100.899 76.6296 101.052 76.5262 101.169L76.4689 101.234C76.3653 101.35 76.2199 101.42 76.0647 101.429C75.9094 101.438 75.7569 101.385 75.6405 101.282Z" fill="#032F35"/>
<path d="M26.1587 70.0265C26.1587 70.0265 26.4827 101.5 44.1443 102.114C61.8059 102.729 62.5475 70.2521 62.5475 70.0265C62.5475 70.0265 60.4619 65.3345 44.3531 65.5169C28.2443 65.6993 26.1587 70.0265 26.1587 70.0265Z" fill="#B6ED3E"/>
<path d="M36.0668 64.4844H50.9948C51.969 64.4844 52.7588 63.6946 52.7588 62.7204V62.4636C52.7588 61.4893 51.969 60.6996 50.9948 60.6996H36.0668C35.0926 60.6996 34.3028 61.4893 34.3028 62.4636V62.7204C34.3028 63.6946 35.0926 64.4844 36.0668 64.4844Z" fill="#032F35"/>
<path d="M42.8919 36.5H44.1807V29.984H42.8919V36.5Z" fill="#032F35"/>
<path d="M63.2417 55.8996C65.2766 55.416 66.5342 53.3742 66.0505 51.3393C65.5669 49.3044 63.5251 48.0468 61.4902 48.5305C59.4553 49.0142 58.1977 51.0559 58.6814 53.0908C59.1651 55.1257 61.2068 56.3833 63.2417 55.8996Z" fill="#B6ED3E"/>
<path d="M24.9792 55.6506C27.019 55.1879 28.2975 53.1592 27.8349 51.1194C27.3722 49.0796 25.3435 47.8011 23.3037 48.2638C21.2639 48.7265 19.9854 50.7551 20.4481 52.7949C20.9108 54.8347 22.9395 56.1132 24.9792 55.6506Z" fill="#B6ED3E"/>
<path d="M42.7823 35.0876C42.7823 35.0876 27.3839 34.9028 24.9503 48.2492C22.5167 61.5956 35.5343 61.8356 39.2807 62.0876C40.9775 62.2028 44.6111 62.2148 47.8175 62.1572C54.9167 62.0347 59.9327 60.662 61.6391 54.0764C61.8423 53.3041 61.9701 52.514 62.0207 51.7172C62.4695 44.4884 57.5903 34.7324 42.7823 35.0876Z" fill="#B6ED3E"/>
<path d="M53.9576 55.4014L31.5872 55.7494C31.0291 55.7593 30.4744 55.659 29.9551 55.4542C29.4358 55.2495 28.9619 54.9443 28.5606 54.5562C28.1594 54.1681 27.8386 53.7047 27.6167 53.1924C27.3947 52.6802 27.276 52.1292 27.2672 51.571C27.2577 51.0128 27.3583 50.4581 27.5633 49.9387C27.7683 49.4194 28.0737 48.9455 28.462 48.5443C28.8503 48.1431 29.3139 47.8223 29.8263 47.6004C30.3386 47.3785 30.8897 47.2598 31.448 47.251L53.8184 46.903C54.3767 46.8929 54.9314 46.993 55.4509 47.1976C55.9704 47.4023 56.4444 47.7074 56.8457 48.0956C57.247 48.4838 57.5678 48.9473 57.7896 49.4597C58.0115 49.9721 58.13 50.5232 58.1384 51.0814C58.1483 51.6398 58.0479 52.1946 57.843 52.7141C57.6381 53.2336 57.3327 53.7076 56.9443 54.1089C56.556 54.5102 56.0923 54.8309 55.5797 55.0527C55.0672 55.2745 54.516 55.393 53.9576 55.4014Z" fill="#032F35"/>
<path d="M36.233 51.1068C36.181 51.3713 36.0517 51.6144 35.8615 51.8055C35.6713 51.9965 35.4287 52.1269 35.1644 52.1801C34.9001 52.2333 34.626 52.2069 34.3767 52.1043C34.1274 52.0017 33.9141 51.8275 33.7638 51.6037C33.6135 51.38 33.5329 51.1166 33.5322 50.847C33.5316 50.5775 33.6108 50.3137 33.76 50.0892C33.9093 49.8647 34.1217 49.6894 34.3705 49.5856C34.6193 49.4818 34.8933 49.4541 35.1578 49.506C35.3335 49.5404 35.5007 49.6092 35.6499 49.7083C35.7991 49.8074 35.9272 49.9349 36.0271 50.0836C36.1269 50.2322 36.1965 50.3991 36.2318 50.5747C36.2672 50.7502 36.2676 50.931 36.233 51.1068Z" fill="white"/>
<path d="M51.8585 50.8544C51.8069 51.1192 51.6779 51.3626 51.4879 51.554C51.2979 51.7455 51.0554 51.8762 50.791 51.9297C50.5267 51.9833 50.2524 51.9572 50.0029 51.8548C49.7534 51.7524 49.5399 51.5783 49.3893 51.3545C49.2388 51.1307 49.158 50.8673 49.1572 50.5976C49.1564 50.3279 49.2357 50.0641 49.3849 49.8394C49.5341 49.6147 49.7467 49.4394 49.9956 49.3356C50.2445 49.2317 50.5186 49.204 50.7833 49.256C51.1377 49.3257 51.4499 49.5331 51.6515 49.8328C51.8531 50.1325 51.9275 50.4999 51.8585 50.8544Z" fill="white"/>
<path d="M49.6077 82.5243C49.5201 83.7253 49.0782 84.8733 48.3381 85.8232C47.598 86.7732 46.5928 87.4823 45.4497 87.8609C44.3066 88.2396 43.0768 88.2708 41.916 87.9506C40.7551 87.6304 39.7153 86.9731 38.928 86.0619C38.1407 85.1508 37.6412 84.0266 37.4927 82.8316C37.3443 81.6366 37.5535 80.4244 38.094 79.3482C38.6345 78.2721 39.4819 77.3805 40.5291 76.7859C41.5763 76.1914 42.7763 75.9208 43.9773 76.0083C45.5879 76.1262 47.0857 76.8788 48.1415 78.1007C49.1973 79.3226 49.7247 80.9137 49.6077 82.5243Z" fill="#032F35"/>
<path d="M47.9581 82.406C47.894 83.2813 47.5719 84.118 47.0323 84.8103C46.4927 85.5025 45.76 86.0192 44.9267 86.295C44.0935 86.5708 43.1972 86.5933 42.3512 86.3596C41.5051 86.126 40.7474 85.6468 40.1737 84.9825C39.6001 84.3182 39.2363 83.4988 39.1284 82.6277C39.0205 81.7567 39.1733 80.8732 39.5675 80.0891C39.9617 79.3049 40.5796 78.6552 41.343 78.2222C42.1065 77.7892 42.9812 77.5923 43.8565 77.6564C44.4378 77.6986 45.005 77.8551 45.5258 78.1167C46.0466 78.3783 46.5108 78.74 46.8917 79.1811C47.2726 79.6222 47.5628 80.1341 47.7458 80.6874C47.9288 81.2408 48.0009 81.8248 47.9581 82.406Z" fill="white"/>
<path d="M45.8241 83.2103C45.7902 82.9679 45.7765 82.723 45.7833 82.4783C45.7713 82.0199 45.7617 81.3647 45.7617 80.5583L45.8097 80.6471L43.5273 79.3151H43.6545L41.3505 80.6087C41.2881 80.7143 41.4345 80.4671 41.4201 80.4935V80.8343V81.1775C41.4201 81.4031 41.4201 81.6287 41.4081 81.8495C41.4081 82.2911 41.3913 82.7183 41.3841 83.1311L41.3217 83.0207L43.5777 84.3983H43.4769C44.1801 84.0191 44.7609 83.7167 45.1569 83.5103C45.3699 83.389 45.5922 83.2847 45.8217 83.1983C45.6427 83.3442 45.4498 83.472 45.2457 83.5799C44.8569 83.8199 44.2857 84.1583 43.5657 84.5735L43.5153 84.6023L43.4649 84.5735L41.1801 83.2415L41.1177 83.2055V83.1287C41.1177 82.7159 41.1225 82.2887 41.1321 81.8471C41.1321 81.6263 41.1321 81.4031 41.1321 81.1751V80.8343V80.5031C41.1177 80.5295 41.2641 80.2847 41.2017 80.3879L43.5129 79.1063L43.5801 79.0703L43.6425 79.1087L45.8961 80.4863L45.9465 80.5175V80.5751C45.9201 81.4055 45.8937 82.0727 45.8697 82.5263C45.8758 82.7552 45.8605 82.9842 45.8241 83.2103Z" fill="#B6ED3E"/>
<path d="M45.0379 31.3535C45.8674 30.524 45.8674 29.1791 45.0379 28.3497C44.2084 27.5202 42.8636 27.5202 42.0341 28.3497C41.2046 29.1791 41.2046 30.524 42.0341 31.3535C42.8636 32.1829 44.2084 32.1829 45.0379 31.3535Z" fill="#B6ED3E"/>
<path d="M40.1435 50.4769C40.2443 50.4889 40.1939 50.9569 40.4915 51.5977C40.6601 51.9655 40.9056 52.2929 41.2115 52.5577C41.57 52.8731 42.0163 53.0716 42.4907 53.1265C42.9676 53.1573 43.4427 53.0435 43.8539 52.8001C44.2019 52.5977 44.503 52.3236 44.7371 51.9961C45.1451 51.4273 45.1811 50.9497 45.2819 50.9569C45.3227 50.9569 45.3635 51.0769 45.3635 51.3025C45.3544 51.6239 45.2723 51.9391 45.1235 52.2241C44.8999 52.6549 44.5693 53.021 44.1635 53.2873C43.6618 53.6408 43.0506 53.8043 42.4394 53.7484C41.8282 53.6926 41.2568 53.4211 40.8275 52.9825C40.4771 52.6474 40.2191 52.2274 40.0787 51.7633C39.9786 51.4536 39.9523 51.1249 40.0019 50.8033C40.0427 50.5801 40.1051 50.4697 40.1435 50.4769Z" fill="white"/>
<path d="M60.6509 56.6955C60.6269 56.6955 60.9029 56.2635 61.1693 55.5075C61.5006 54.5174 61.7101 53.4907 61.7933 52.4499C61.8894 51.4128 61.9134 50.3703 61.8653 49.3299C61.8485 48.9291 61.8293 48.6099 61.8101 48.3699C61.7939 48.2539 61.7898 48.1364 61.7981 48.0195C61.8288 48.1326 61.8489 48.2483 61.8581 48.3651C61.8917 48.5883 61.9253 48.9123 61.9541 49.3251C62.0294 50.3739 62.0173 51.4271 61.9181 52.4739C61.8336 53.5244 61.6101 54.5591 61.2533 55.5507C61.1403 55.8498 61.0039 56.1395 60.8453 56.4171C60.7886 56.5153 60.7235 56.6085 60.6509 56.6955Z" fill="#032F35"/>
<path d="M24.9795 47.8008C24.9659 47.9173 24.941 48.0323 24.9051 48.144C24.8739 48.252 24.8403 48.384 24.8091 48.5424C24.7779 48.7008 24.7299 48.8736 24.7011 49.0728C24.6169 49.5354 24.5608 50.0026 24.5331 50.472C24.5008 51.0462 24.5088 51.622 24.5571 52.1952C24.6107 52.7673 24.7037 53.3351 24.8355 53.8944C24.9457 54.3519 25.0835 54.8023 25.2483 55.2432C25.3131 55.4328 25.3875 55.5984 25.4475 55.7472C25.5075 55.896 25.5651 56.0208 25.6131 56.1216C25.6678 56.2252 25.7128 56.3337 25.7475 56.4456C25.6792 56.3504 25.6197 56.2492 25.5699 56.1432C25.502 56.0232 25.4403 55.8998 25.3851 55.7736C25.3179 55.6296 25.2363 55.464 25.1667 55.2744C24.9885 54.8347 24.8409 54.3832 24.7251 53.9232C24.5846 53.3585 24.4868 52.7841 24.4323 52.2048C24.3834 51.626 24.3786 51.0443 24.4179 50.4648C24.4514 49.9913 24.5171 49.5206 24.6147 49.056C24.6507 48.8568 24.7011 48.6816 24.7419 48.5256C24.7827 48.3696 24.8211 48.2376 24.8571 48.1296C24.8889 48.0168 24.9298 47.9069 24.9795 47.8008Z" fill="#032F35"/>
<path d="M26.0791 70L26.1703 70.0264L26.4391 70.1176L27.4615 70.4776L28.2007 70.7416C28.4719 70.8328 28.7719 70.9192 29.0911 71.0176C29.7319 71.2072 30.4543 71.4544 31.2751 71.6464L32.5543 71.9752C33.0007 72.088 33.4711 72.172 33.9559 72.2776C34.9159 72.4984 35.9695 72.6496 37.0759 72.8272C39.4686 73.1555 41.8801 73.3278 44.2951 73.3432C46.7102 73.329 49.1218 73.1566 51.5143 72.8272C52.6135 72.6496 53.6599 72.5008 54.6343 72.2776C55.1143 72.1744 55.5943 72.0904 56.0359 71.9776L57.3175 71.6488C58.1359 71.4568 58.8583 71.2096 59.4991 71.02C59.8183 70.9216 60.1183 70.8352 60.3895 70.744L61.1287 70.48L62.1511 70.12L62.4199 70.0288C62.4501 70.0169 62.4815 70.008 62.5135 70.0024L62.4247 70.0408L62.1607 70.144L61.1455 70.5256L60.3895 70.8088C60.1207 70.9024 59.8207 70.9912 59.5015 71.0944C58.8607 71.2912 58.1407 71.5432 57.3199 71.7424L56.0383 72.0784C55.5943 72.1936 55.1215 72.28 54.6367 72.388C53.6767 72.6136 52.6207 72.7672 51.5167 72.9496C49.1191 73.286 46.7017 73.4616 44.2807 73.4752C41.8605 73.4598 39.4439 73.2834 37.0471 72.9472C35.9455 72.7672 34.8871 72.6112 33.9271 72.3856C33.4471 72.2776 32.9671 72.1912 32.5255 72.076L31.2439 71.74C30.4231 71.5408 29.7031 71.2888 29.0623 71.092C28.7431 70.9888 28.4455 70.9 28.1743 70.8064L27.4375 70.5304L26.4223 70.1488L26.1583 70.0456C26.1305 70.033 26.104 70.0177 26.0791 70Z" fill="#032F35"/>
<g opacity="0.3">
<path d="M26.1567 70.0269C26.1567 70.0269 28.2423 65.7069 44.3511 65.5173C60.4599 65.3277 62.5455 70.0269 62.5455 70.0269C62.5455 70.0269 46.2879 78.0405 26.1567 70.0269Z" fill="black"/>
</g>
<path d="M40.8378 36.0838C40.8194 36.0856 40.8009 36.0856 40.7826 36.0838L40.6218 36.1006C40.4778 36.115 40.2666 36.1198 39.9954 36.151C39.2302 36.2253 38.4708 36.3512 37.7226 36.5278C33.8525 37.4142 30.4389 39.6825 28.1226 42.907C27.0035 44.4566 26.1562 46.1852 25.617 48.019C25.533 48.2782 25.4874 48.4846 25.4466 48.6214L25.401 48.7798C25.3967 48.7981 25.3902 48.8158 25.3818 48.8326C25.3786 48.8144 25.3786 48.7957 25.3818 48.7774C25.3818 48.7342 25.401 48.6814 25.4154 48.6166C25.449 48.4774 25.485 48.2686 25.5618 48.0046C25.7621 47.259 26.0188 46.5297 26.3298 45.823C27.3556 43.4746 28.9174 41.3992 30.8898 39.763C32.8706 38.1392 35.2041 37.0017 37.7034 36.4414C38.456 36.2704 39.2207 36.1573 39.9906 36.103C40.2642 36.079 40.4706 36.0814 40.6194 36.0742H40.7826C40.821 36.079 40.8378 36.0814 40.8378 36.0838Z" fill="white"/>
<path d="M25.772 54.5587C25.6758 54.4101 25.6014 54.2484 25.5512 54.0787C25.2665 53.2766 25.1338 52.4286 25.16 51.5779C25.1531 51.4013 25.1742 51.2247 25.2224 51.0547C25.2608 51.0547 25.208 51.8563 25.3616 52.8259C25.5152 53.7955 25.808 54.5443 25.772 54.5587Z" fill="white"/>
<path d="M21.7313 53.3189C21.7313 53.3189 21.6761 53.2805 21.6017 53.1893C21.4957 53.06 21.4047 52.9191 21.3305 52.7693C21.0742 52.2732 20.9762 51.7104 21.0496 51.1568C21.1229 50.6033 21.3642 50.0855 21.7409 49.6733C21.8513 49.547 21.9761 49.4343 22.1129 49.3373C22.1599 49.2977 22.2136 49.2669 22.2713 49.2461C22.2857 49.2653 22.0697 49.4117 21.8081 49.7261C21.4648 50.1373 21.2451 50.6374 21.1746 51.1684C21.1041 51.6994 21.1856 52.2396 21.4097 52.7261C21.5777 53.1077 21.7481 53.3045 21.7313 53.3189Z" fill="white"/>
<path d="M43.6756 28.3696C43.4884 28.349 43.2996 28.3449 43.1116 28.3576C42.8878 28.3772 42.6714 28.4479 42.4791 28.5641C42.2868 28.6804 42.1237 28.8391 42.0023 29.0282C41.8809 29.2173 41.8044 29.4316 41.7787 29.6549C41.753 29.8781 41.7788 30.1042 41.854 30.316C41.9188 30.4916 41.9991 30.661 42.094 30.8224C42.094 30.8224 42.046 30.7936 41.9788 30.7168C41.8866 30.6057 41.8136 30.4799 41.7628 30.3448C41.6713 30.1207 41.635 29.8778 41.6572 29.6367C41.6794 29.3956 41.7593 29.1634 41.8902 28.9598C42.0211 28.7561 42.1991 28.587 42.4092 28.4667C42.6193 28.3464 42.8553 28.2785 43.0972 28.2688C43.2409 28.2588 43.3852 28.2726 43.5244 28.3096C43.6324 28.3264 43.6756 28.3624 43.6756 28.3696Z" fill="white"/>
<path d="M64.591 50.4066C64.5646 50.4354 64.1926 50.0778 63.631 49.809C63.0694 49.5402 62.5582 49.461 62.563 49.4226C62.9543 49.4128 63.3411 49.5072 63.6838 49.6962C64.0446 49.8471 64.358 50.0925 64.591 50.4066Z" fill="white"/>
<path d="M31.6756 92.4255C31.6647 92.4112 31.655 92.3959 31.6468 92.3799L31.5676 92.2383C31.4956 92.1015 31.3996 91.9191 31.2748 91.6863C31.2124 91.5663 31.1452 91.4319 31.0684 91.2879L30.8428 90.8079C30.6796 90.4599 30.4972 90.0639 30.3172 89.6079C30.226 89.3847 30.13 89.1495 30.0292 88.9071C29.9284 88.6647 29.842 88.4007 29.7436 88.1343C29.5372 87.6039 29.362 87.0207 29.158 86.4159C28.7812 85.1919 28.4116 83.8359 28.0876 82.3959C27.7636 80.9559 27.5284 79.5663 27.3364 78.3015C27.1444 77.0367 27.0196 75.9015 26.9428 74.9271C26.8972 74.4471 26.8684 74.0103 26.8444 73.6263C26.8204 73.2423 26.7988 72.9063 26.7916 72.6423C26.7844 72.3783 26.7772 72.1743 26.77 72.0207V71.8599C26.7674 71.8416 26.7674 71.823 26.77 71.8047C26.7728 71.823 26.7728 71.8416 26.77 71.8599L26.7844 72.0207C26.7844 72.1719 26.8108 72.3807 26.8276 72.6399C26.8444 72.8991 26.8684 73.2399 26.902 73.6215C26.9356 74.0031 26.9668 74.4399 27.0196 74.9199C27.106 75.8799 27.2596 77.0223 27.4396 78.2799C27.6196 79.5375 27.8812 80.9199 28.198 82.3599C28.5148 83.7999 28.8868 85.1535 29.254 86.3751C29.458 86.9799 29.6284 87.5607 29.83 88.0911C29.926 88.3599 30.0172 88.6167 30.1084 88.8639L30.3868 89.5695C30.5596 90.0183 30.7372 90.4167 30.8956 90.7695L31.1116 91.2495C31.1812 91.3959 31.2484 91.5303 31.3084 91.6527L31.5772 92.2143L31.6444 92.3607C31.659 92.38 31.6696 92.4021 31.6756 92.4255Z" fill="white"/>
<path d="M22.2809 72.8573C21.6954 72.8795 21.109 72.8586 20.5265 72.7949C19.9413 72.7744 19.3583 72.7127 18.7817 72.6101C19.3673 72.588 19.9537 72.6088 20.5361 72.6725C21.1214 72.6928 21.7044 72.7546 22.2809 72.8573Z" fill="white"/>
<path d="M13.2556 67.732C12.9152 67.2362 12.6096 66.7174 12.3412 66.1792C12.0369 65.6608 11.769 65.1219 11.5396 64.5664C11.8789 65.0633 12.1836 65.5829 12.4516 66.1216C12.7574 66.6387 13.0261 67.1768 13.2556 67.732Z" fill="white"/>
<path d="M40.1952 99.9918C40.1007 99.99 40.0067 99.9788 39.9144 99.9582C39.6605 99.913 39.4096 99.852 39.1632 99.7758C38.7972 99.6644 38.4395 99.5272 38.0928 99.3654C37.6705 99.1617 37.2645 98.9258 36.8784 98.6598C36.4967 98.3871 36.1372 98.0845 35.8032 97.755C35.5328 97.484 35.2825 97.1937 35.0544 96.8862C34.8982 96.681 34.7562 96.4653 34.6296 96.2406C34.5778 96.1617 34.5352 96.0771 34.5024 95.9886C34.5216 95.9766 34.7232 96.3246 35.124 96.8334C35.3596 97.1292 35.6137 97.4097 35.8848 97.6734C36.5491 98.3188 37.3114 98.855 38.1432 99.2622C38.4831 99.4263 38.8325 99.5698 39.1896 99.6918C39.804 99.8982 40.2 99.9678 40.1952 99.9918Z" fill="white"/>
<path d="M43.8756 88.8908C43.8201 88.9005 43.7639 88.9061 43.7076 88.9076C43.548 88.9211 43.3877 88.9259 43.2276 88.922C42.6308 88.9088 42.0387 88.8127 41.4684 88.6364C41.0743 88.5136 40.6907 88.3596 40.3212 88.1756C39.8975 87.9577 39.4957 87.6997 39.1212 87.4052C38.2537 86.7387 37.5699 85.8626 37.1341 84.8592C36.6983 83.8558 36.5248 82.7581 36.63 81.6692C36.6691 81.1966 36.7535 80.7289 36.882 80.2724C36.997 79.8765 37.1455 79.4911 37.326 79.1204C37.5863 78.5828 37.9208 78.0843 38.3196 77.6396C38.4265 77.518 38.5403 77.4026 38.6604 77.294C38.7001 77.2542 38.7426 77.2173 38.7876 77.1836C38.7876 77.1836 38.6292 77.354 38.3556 77.6636C37.9715 78.1152 37.6487 78.6155 37.3956 79.1516C37.0181 79.9416 36.7934 80.7958 36.7332 81.6692C36.6359 82.7388 36.8091 83.8156 37.2369 84.8008C37.6646 85.7859 38.3332 86.6477 39.1812 87.3068C39.5446 87.5993 39.9352 87.8565 40.3476 88.0748C40.709 88.2654 41.0854 88.426 41.4732 88.5548C42.035 88.737 42.6185 88.8443 43.2084 88.874C43.6428 88.8908 43.8756 88.8764 43.8756 88.8908Z" fill="white"/>
<path d="M14.8202 69.9911C14.8202 70.0103 14.6354 69.9215 14.3402 69.8519C13.9451 69.7654 13.5357 69.7695 13.1425 69.8639C12.7493 69.9582 12.3825 70.1404 12.0698 70.3967C11.8298 70.5959 11.7146 70.7543 11.6978 70.7423C11.7636 70.5835 11.8655 70.4422 11.9954 70.3295C12.3068 70.0437 12.6861 69.8421 13.0973 69.7438C13.5084 69.6456 13.9379 69.6538 14.345 69.7679C14.5184 69.8047 14.681 69.8811 14.8202 69.9911Z" fill="white"/>
<path d="M50.2621 46.1249C50.2621 46.1585 47.3149 46.1873 43.6813 46.1873C40.0477 46.1873 37.0981 46.1585 37.0981 46.1249C37.0981 46.0913 40.0453 46.0625 43.6813 46.0625C47.3173 46.0625 50.2621 46.0865 50.2621 46.1249Z" fill="white"/>
<path d="M39.0268 61.1318C38.9908 61.142 38.9537 61.1476 38.9164 61.1486L38.5948 61.1774C38.4556 61.1894 38.2852 61.199 38.086 61.2038C37.8868 61.2086 37.6612 61.2182 37.4116 61.2038C36.91 61.2038 36.3148 61.1678 35.6548 61.0982C34.9406 61.0151 34.2315 60.8925 33.5308 60.731C32.8318 60.5634 32.1427 60.3566 31.4668 60.1118C30.9161 59.9102 30.3762 59.6803 29.8492 59.423C29.6092 59.3174 29.4244 59.207 29.2492 59.1134C29.074 59.0198 28.9252 58.9358 28.8052 58.8734L28.5292 58.7054C28.4965 58.6873 28.4659 58.6656 28.438 58.6406C28.438 58.6406 28.4764 58.6406 28.5412 58.6838L28.8292 58.8302C28.9516 58.8974 29.1028 58.9766 29.2804 59.0702C29.458 59.1638 29.6596 59.2598 29.8876 59.3606C30.3388 59.5718 30.8884 59.7974 31.5076 60.0206C32.8534 60.5031 34.2495 60.8316 35.6692 60.9998C36.322 61.0766 36.9148 61.1198 37.4116 61.1318C37.6516 61.1462 37.8916 61.1318 38.086 61.1318C38.2804 61.1318 38.4532 61.1318 38.5924 61.1318H38.914C38.9513 61.1256 38.9894 61.1256 39.0268 61.1318Z" fill="white"/>
<path d="M58.1908 71.9492C58.173 71.9609 58.1536 71.9698 58.1332 71.9756L57.9604 72.0404L57.2932 72.2804C57.0028 72.386 56.6476 72.5084 56.2276 72.6308C55.8076 72.7532 55.3348 72.9116 54.7996 73.046L53.9644 73.2668C53.674 73.3412 53.3668 73.4036 53.0524 73.478C52.4236 73.6292 51.742 73.7492 51.0268 73.886C47.9116 74.4286 44.7457 74.6226 41.5876 74.4644C40.8676 74.4188 40.1692 74.3828 39.526 74.3084C39.2044 74.2748 38.8924 74.2508 38.5948 74.21L37.738 74.0924C37.1908 74.0276 36.7012 73.9292 36.2716 73.8524C35.842 73.7756 35.47 73.7036 35.17 73.634L34.4788 73.4804L34.2988 73.4372C34.2779 73.4338 34.2577 73.4273 34.2388 73.418C34.2603 73.4162 34.282 73.4162 34.3036 73.418L34.4836 73.4492L35.1796 73.5812C35.482 73.6412 35.8516 73.7108 36.2836 73.7756C36.7156 73.8404 37.2028 73.934 37.75 73.994L38.6044 74.102C38.902 74.1404 39.214 74.162 39.5356 74.1932C40.1764 74.2628 40.8676 74.294 41.5924 74.3372C43.0444 74.3972 44.6404 74.3996 46.3156 74.3012C47.9908 74.2028 49.5724 73.994 51.0052 73.7588C51.7252 73.6268 52.402 73.5188 53.0308 73.3652C53.3452 73.2932 53.6524 73.2332 53.9428 73.1612L54.778 72.9476C55.3132 72.8204 55.786 72.6716 56.206 72.5516C56.626 72.4316 56.986 72.3116 57.2764 72.2228L57.9508 72.0068L58.1284 71.954L58.1908 71.9492Z" fill="white"/>
</svg>
