<svg width="24" height="16" viewBox="0 0 24 16" fill="none" xmlns="http://www.w3.org/2000/svg">
<path d="M21.7121 4.45055C16.4481 -0.811641 7.55308 -0.811641 2.28902 4.45055C0.414017 6.32555 0.234017 9.09023 1.84933 11.1734C1.98973 11.3534 2.16938 11.499 2.37457 11.5991C2.57976 11.6991 2.80509 11.7511 3.03339 11.7509C3.21782 11.751 3.40064 11.7166 3.57245 11.6496L8.1662 10.0212L8.19339 10.0109C8.42525 9.91813 8.63028 9.76898 8.7899 9.57695C8.94952 9.38492 9.05867 9.15607 9.10745 8.91117L9.66058 6.14367C11.1687 5.62233 12.8076 5.6187 14.3181 6.13336L14.9003 8.92242C14.9508 9.16464 15.0604 9.39061 15.2194 9.58019C15.3784 9.76977 15.5818 9.91708 15.8115 10.009L15.8387 10.0193L20.4325 11.6496C20.7326 11.7659 21.0621 11.7825 21.3724 11.6971C21.6827 11.6116 21.9573 11.4287 22.1556 11.1752C23.7671 9.09023 23.5862 6.32555 21.7121 4.45055ZM20.9696 10.2509L20.9415 10.2396L16.3646 8.61492L15.7825 5.8268C15.7296 5.57451 15.6127 5.34009 15.4429 5.14616C15.2731 4.95223 15.0562 4.80532 14.8131 4.71961C12.979 4.09168 10.9875 4.09597 9.1562 4.7318C8.91123 4.81932 8.69323 4.96905 8.52361 5.16629C8.35398 5.36352 8.23857 5.60148 8.1887 5.8568L7.63558 8.62336L3.05964 10.2377C3.05027 10.2377 3.0437 10.2499 3.03433 10.2537C1.87839 8.76211 2.00308 6.85711 3.34933 5.5118C5.69308 3.16805 8.84777 1.99336 12.0006 1.99336C15.1534 1.99336 18.3071 3.16617 20.6518 5.5118C21.9953 6.85711 22.1256 8.76211 20.9696 10.2509ZM20.9996 14.7509C20.9996 14.9498 20.9206 15.1405 20.78 15.2812C20.6393 15.4218 20.4486 15.5009 20.2496 15.5009H3.75058C3.55167 15.5009 3.3609 15.4218 3.22025 15.2812C3.0796 15.1405 3.00058 14.9498 3.00058 14.7509C3.00058 14.5519 3.0796 14.3612 3.22025 14.2205C3.3609 14.0799 3.55167 14.0009 3.75058 14.0009H20.2506C20.4495 14.0009 20.6403 14.0799 20.7809 14.2205C20.9216 14.3612 21.0006 14.5519 21.0006 14.7509H20.9996Z" fill="#F1F2EE"/>
</svg>
