<svg width="40" height="40" viewBox="0 0 40 40" fill="none" xmlns="http://www.w3.org/2000/svg">
<g id="ph:buildings">
<path id="Vector" d="M37.5 32.5016H35V15.0016C35 14.3386 34.7366 13.7027 34.2678 13.2339C33.7989 12.765 33.163 12.5016 32.5 12.5016H22.5V5.00163C22.5003 4.54891 22.3777 4.10461 22.1452 3.71616C21.9127 3.3277 21.5791 3.00966 21.18 2.79598C20.7808 2.58231 20.3312 2.48102 19.879 2.50293C19.4268 2.52484 18.9891 2.66912 18.6125 2.92038L6.1125 11.2516C5.76959 11.4804 5.48858 11.7904 5.29448 12.1541C5.10038 12.5178 4.99922 12.9238 5 13.336V32.5016H2.5C2.16848 32.5016 1.85054 32.6333 1.61612 32.8677C1.3817 33.1022 1.25 33.4201 1.25 33.7516C1.25 34.0831 1.3817 34.4011 1.61612 34.6355C1.85054 34.8699 2.16848 35.0016 2.5 35.0016H37.5C37.8315 35.0016 38.1495 34.8699 38.3839 34.6355C38.6183 34.4011 38.75 34.0831 38.75 33.7516C38.75 33.4201 38.6183 33.1022 38.3839 32.8677C38.1495 32.6333 37.8315 32.5016 37.5 32.5016ZM32.5 15.0016V32.5016H22.5V15.0016H32.5ZM7.5 13.336L20 5.00163V32.5016H7.5V13.336ZM17.5 17.5016V20.0016C17.5 20.3331 17.3683 20.6511 17.1339 20.8855C16.8995 21.1199 16.5815 21.2516 16.25 21.2516C15.9185 21.2516 15.6005 21.1199 15.3661 20.8855C15.1317 20.6511 15 20.3331 15 20.0016V17.5016C15 17.1701 15.1317 16.8522 15.3661 16.6177C15.6005 16.3833 15.9185 16.2516 16.25 16.2516C16.5815 16.2516 16.8995 16.3833 17.1339 16.6177C17.3683 16.8522 17.5 17.1701 17.5 17.5016ZM12.5 17.5016V20.0016C12.5 20.3331 12.3683 20.6511 12.1339 20.8855C11.8995 21.1199 11.5815 21.2516 11.25 21.2516C10.9185 21.2516 10.6005 21.1199 10.3661 20.8855C10.1317 20.6511 10 20.3331 10 20.0016V17.5016C10 17.1701 10.1317 16.8522 10.3661 16.6177C10.6005 16.3833 10.9185 16.2516 11.25 16.2516C11.5815 16.2516 11.8995 16.3833 12.1339 16.6177C12.3683 16.8522 12.5 17.1701 12.5 17.5016ZM12.5 26.2516V28.7516C12.5 29.0831 12.3683 29.4011 12.1339 29.6355C11.8995 29.8699 11.5815 30.0016 11.25 30.0016C10.9185 30.0016 10.6005 29.8699 10.3661 29.6355C10.1317 29.4011 10 29.0831 10 28.7516V26.2516C10 25.9201 10.1317 25.6022 10.3661 25.3677C10.6005 25.1333 10.9185 25.0016 11.25 25.0016C11.5815 25.0016 11.8995 25.1333 12.1339 25.3677C12.3683 25.6022 12.5 25.9201 12.5 26.2516ZM17.5 26.2516V28.7516C17.5 29.0831 17.3683 29.4011 17.1339 29.6355C16.8995 29.8699 16.5815 30.0016 16.25 30.0016C15.9185 30.0016 15.6005 29.8699 15.3661 29.6355C15.1317 29.4011 15 29.0831 15 28.7516V26.2516C15 25.9201 15.1317 25.6022 15.3661 25.3677C15.6005 25.1333 15.9185 25.0016 16.25 25.0016C16.5815 25.0016 16.8995 25.1333 17.1339 25.3677C17.3683 25.6022 17.5 25.9201 17.5 26.2516Z" fill="#F1F2EE"/>
</g>
</svg>
