<svg width="19" height="18" viewBox="0 0 19 18" fill="none" xmlns="http://www.w3.org/2000/svg">
<g id="CaretDown">
<path id="Vector" d="M15.3486 7.14797L9.72361 12.773C9.67137 12.8253 9.60933 12.8668 9.54104 12.8951C9.47276 12.9234 9.39956 12.9379 9.32564 12.9379C9.25172 12.9379 9.17852 12.9234 9.11024 12.8951C9.04195 12.8668 8.97991 12.8253 8.92767 12.773L3.30267 7.14797C3.22391 7.0693 3.17027 6.96903 3.14853 6.85986C3.12679 6.75069 3.13793 6.63752 3.18054 6.53468C3.22315 6.43184 3.29531 6.34396 3.3879 6.28216C3.48048 6.22036 3.58932 6.18741 3.70064 6.1875H14.9506C15.062 6.18741 15.1708 6.22036 15.2634 6.28216C15.356 6.34396 15.4281 6.43184 15.4707 6.53468C15.5134 6.63752 15.5245 6.75069 15.5027 6.85986C15.481 6.96903 15.4274 7.0693 15.3486 7.14797Z" fill="#032F35"/>
</g>
</svg>
