<svg width="33" height="32" viewBox="0 0 33 32" fill="none" xmlns="http://www.w3.org/2000/svg">
<path d="M28.3335 25H27.3335V5C27.3335 4.73478 27.2281 4.48043 27.0406 4.29289C26.8531 4.10536 26.5987 4 26.3335 4H19.3335C19.0683 4 18.8139 4.10536 18.6264 4.29289C18.4389 4.48043 18.3335 4.73478 18.3335 5V10H12.3335C12.0683 10 11.8139 10.1054 11.6264 10.2929C11.4389 10.4804 11.3335 10.7348 11.3335 11V16H6.3335C6.06828 16 5.81393 16.1054 5.62639 16.2929C5.43885 16.4804 5.3335 16.7348 5.3335 17V25H4.3335C4.06828 25 3.81393 25.1054 3.62639 25.2929C3.43885 25.4804 3.3335 25.7348 3.3335 26C3.3335 26.2652 3.43885 26.5196 3.62639 26.7071C3.81393 26.8946 4.06828 27 4.3335 27H28.3335C28.5987 27 28.8531 26.8946 29.0406 26.7071C29.2281 26.5196 29.3335 26.2652 29.3335 26C29.3335 25.7348 29.2281 25.4804 29.0406 25.2929C28.8531 25.1054 28.5987 25 28.3335 25ZM20.3335 6H25.3335V25H20.3335V6ZM13.3335 12H18.3335V25H13.3335V12ZM7.3335 18H11.3335V25H7.3335V18Z" fill="#10664F"/>
</svg>
