<svg width="20" height="20" viewBox="0 0 20 20" fill="none" xmlns="http://www.w3.org/2000/svg">
<path d="M18.1299 14.5907C18.5617 13.695 18.7736 12.7092 18.748 11.7151C18.7223 10.7211 18.4598 9.74749 17.9823 8.87525C17.5049 8.003 16.8261 7.25728 16.0026 6.70003C15.179 6.14277 14.2343 5.79007 13.2471 5.67122C12.9186 4.90744 12.441 4.21688 11.8423 3.63998C11.2436 3.06309 10.5358 2.61144 9.76032 2.3115C8.98488 2.01156 8.15739 1.86935 7.32631 1.8932C6.49523 1.91705 5.67725 2.10648 4.92029 2.45039C4.16333 2.79431 3.4826 3.2858 2.91796 3.89608C2.35332 4.50637 1.91611 5.22318 1.63195 6.00454C1.34779 6.78589 1.22239 7.6161 1.26308 8.44652C1.30378 9.27695 1.50975 10.0909 1.86894 10.8407L1.30097 12.7712C1.23747 12.9867 1.23322 13.2154 1.28868 13.4331C1.34414 13.6508 1.45725 13.8496 1.61612 14.0084C1.77498 14.1673 1.97373 14.2804 2.19145 14.3359C2.40917 14.3913 2.63781 14.3871 2.85332 14.3236L4.78378 13.7556C5.40365 14.0534 6.06823 14.2474 6.75097 14.3298C7.08267 15.107 7.56853 15.8089 8.17918 16.393C8.78982 16.977 9.51257 17.4312 10.3037 17.7281C11.0949 18.0249 11.938 18.1583 12.7822 18.12C13.6263 18.0818 14.454 17.8728 15.215 17.5056L17.1455 18.0736C17.3609 18.137 17.5895 18.1412 17.8071 18.0858C18.0247 18.0304 18.2234 17.9173 18.3822 17.7586C18.5411 17.5998 18.6542 17.4012 18.7097 17.1836C18.7653 16.966 18.7612 16.7375 18.6978 16.522L18.1299 14.5907ZM4.84316 12.4611C4.78343 12.4612 4.72401 12.4696 4.6666 12.4861L2.49941 13.1251L3.13769 10.9564C3.18309 10.7997 3.16542 10.6315 3.08847 10.4876C2.52309 9.43026 2.3565 8.20494 2.61907 7.03502C2.88164 5.86509 3.55589 4.82848 4.5189 4.11414C5.48191 3.39981 6.66956 3.05532 7.86534 3.14348C9.06112 3.23164 10.1854 3.74658 11.0332 4.59442C11.8811 5.44226 12.396 6.56654 12.4842 7.76232C12.5723 8.9581 12.2278 10.1457 11.5135 11.1088C10.7992 12.0718 9.76257 12.746 8.59264 13.0086C7.42272 13.2712 6.19739 13.1046 5.14003 12.5392C5.04911 12.4889 4.94707 12.462 4.84316 12.4611ZM16.858 14.7056L17.4994 16.8751L15.3307 16.2368C15.174 16.1914 15.0057 16.2091 14.8619 16.2861C13.711 16.9006 12.3656 17.0413 11.1124 16.6782C9.85922 16.3151 8.79742 15.477 8.15332 14.3423C9.00908 14.253 9.83715 13.9878 10.5856 13.5633C11.334 13.1389 11.9867 12.5643 12.5026 11.8758C13.0185 11.1872 13.3865 10.3994 13.5836 9.56187C13.7807 8.72434 13.8026 7.85511 13.6478 7.00872C14.3935 7.18447 15.0887 7.5292 15.68 8.0163C16.2712 8.50339 16.7426 9.11983 17.0578 9.81803C17.373 10.5162 17.5236 11.2775 17.4979 12.0431C17.4722 12.8088 17.2709 13.5582 16.9096 14.2337C16.8318 14.3784 16.8141 14.5479 16.8603 14.7056H16.858Z" fill="#10664F"/>
</svg>
