<svg width="13" height="13" viewBox="0 0 13 13" fill="none" xmlns="http://www.w3.org/2000/svg">
<path d="M6.25 0.5C4.59296 0.50182 3.0043 1.16088 1.83259 2.33259C0.660884 3.5043 0.00181975 5.09296 0 6.75V12C0 12.2652 0.105357 12.5196 0.292893 12.7071C0.48043 12.8946 0.734784 13 1 13H6.25C7.9076 13 9.49732 12.3415 10.6694 11.1694C11.8415 9.99732 12.5 8.4076 12.5 6.75C12.5 5.0924 11.8415 3.50269 10.6694 2.33058C9.49732 1.15848 7.9076 0.5 6.25 0.5ZM6.25 12H1V6.75C1 5.71165 1.30791 4.69661 1.88478 3.83326C2.46166 2.9699 3.2816 2.29699 4.24091 1.89963C5.20022 1.50227 6.25582 1.3983 7.27422 1.60088C8.29262 1.80345 9.22809 2.30346 9.96231 3.03769C10.6965 3.77191 11.1966 4.70738 11.3991 5.72578C11.6017 6.74418 11.4977 7.79978 11.1004 8.75909C10.703 9.7184 10.0301 10.5383 9.16674 11.1152C8.30338 11.6921 7.28835 12 6.25 12ZM7 7C7 7.14834 6.95601 7.29334 6.8736 7.41668C6.79119 7.54001 6.67406 7.63614 6.53701 7.69291C6.39997 7.74967 6.24917 7.76453 6.10368 7.73559C5.9582 7.70665 5.82456 7.63522 5.71967 7.53033C5.61478 7.42544 5.54335 7.2918 5.51441 7.14632C5.48547 7.00083 5.50032 6.85003 5.55709 6.71299C5.61386 6.57594 5.70999 6.45881 5.83332 6.3764C5.95666 6.29399 6.10166 6.25 6.25 6.25C6.44891 6.25 6.63968 6.32902 6.78033 6.46967C6.92098 6.61032 7 6.80109 7 7ZM4.25 7C4.25 7.14834 4.20601 7.29334 4.1236 7.41668C4.04119 7.54001 3.92406 7.63614 3.78701 7.69291C3.64997 7.74967 3.49917 7.76453 3.35368 7.73559C3.2082 7.70665 3.07456 7.63522 2.96967 7.53033C2.86478 7.42544 2.79335 7.2918 2.76441 7.14632C2.73547 7.00083 2.75032 6.85003 2.80709 6.71299C2.86386 6.57594 2.95999 6.45881 3.08332 6.3764C3.20666 6.29399 3.35166 6.25 3.5 6.25C3.69891 6.25 3.88968 6.32902 4.03033 6.46967C4.17098 6.61032 4.25 6.80109 4.25 7ZM9.75 7C9.75 7.14834 9.70601 7.29334 9.6236 7.41668C9.54119 7.54001 9.42406 7.63614 9.28701 7.69291C9.14997 7.74967 8.99917 7.76453 8.85368 7.73559C8.7082 7.70665 8.57456 7.63522 8.46967 7.53033C8.36478 7.42544 8.29335 7.2918 8.26441 7.14632C8.23547 7.00083 8.25033 6.85003 8.30709 6.71299C8.36386 6.57594 8.45999 6.45881 8.58332 6.3764C8.70666 6.29399 8.85166 6.25 9 6.25C9.19891 6.25 9.38968 6.32902 9.53033 6.46967C9.67098 6.61032 9.75 6.80109 9.75 7Z" fill="#9BA3A3"/>
</svg>
