<svg width="21" height="20" viewBox="0 0 21 20" fill="none" xmlns="http://www.w3.org/2000/svg">
<path d="M18.1894 5.16646L11.3144 1.40474C11.1307 1.30324 10.9242 1.25 10.7144 1.25C10.5045 1.25 10.298 1.30324 10.1144 1.40474L3.23936 5.16802C3.04302 5.27544 2.87912 5.43361 2.76479 5.62601C2.65045 5.8184 2.58986 6.03797 2.58936 6.26177V13.7336C2.58986 13.9574 2.65045 14.177 2.76479 14.3694C2.87912 14.5618 3.04302 14.72 3.23936 14.8274L10.1144 18.5907C10.298 18.6922 10.5045 18.7454 10.7144 18.7454C10.9242 18.7454 11.1307 18.6922 11.3144 18.5907L18.1894 14.8274C18.3857 14.72 18.5496 14.5618 18.6639 14.3694C18.7783 14.177 18.8388 13.9574 18.8394 13.7336V6.26255C18.8393 6.03835 18.7789 5.8183 18.6645 5.62545C18.5502 5.43261 18.386 5.27407 18.1894 5.16646ZM10.7144 2.49849L16.9909 5.93599L10.7144 9.37349L4.43779 5.93599L10.7144 2.49849ZM3.83936 7.02974L10.0894 10.4501V17.1524L3.83936 13.7344V7.02974ZM11.3394 17.1524V10.4532L17.5894 7.02974V13.7313L11.3394 17.1524Z" fill="#10664F"/>
</svg>
