<svg width="21" height="20" viewBox="0 0 21 20" fill="none" xmlns="http://www.w3.org/2000/svg">
<path d="M17.1609 5.62501H10.5445L8.41089 3.49141C8.29524 3.37483 8.15756 3.28241 8.00588 3.21951C7.85419 3.1566 7.69151 3.12448 7.5273 3.12501H3.41089C3.07937 3.12501 2.76143 3.2567 2.52701 3.49112C2.29258 3.72554 2.16089 4.04349 2.16089 4.37501V15.6734C2.1613 15.992 2.28803 16.2974 2.51327 16.5226C2.73852 16.7479 3.0439 16.8746 3.36245 16.875H17.2304C17.5434 16.8746 17.8434 16.7501 18.0647 16.5288C18.286 16.3075 18.4105 16.0075 18.4109 15.6945V6.87501C18.4109 6.54349 18.2792 6.22554 18.0448 5.99112C17.8104 5.7567 17.4924 5.62501 17.1609 5.62501ZM3.41089 4.37501H7.5273L8.7773 5.62501H3.41089V4.37501ZM17.1609 15.625H3.41089V6.87501H17.1609V15.625Z" fill="#10664F"/>
</svg>
