<svg width="25" height="24" viewBox="0 0 25 24" fill="none" xmlns="http://www.w3.org/2000/svg">
<g id="google">
<path id="vector" d="M23.001 12.2331C23.001 11.3698 22.9296 10.7398 22.7748 10.0864H12.7153V13.983H18.62C18.501 14.9514 17.8582 16.4097 16.4296 17.3897L16.4096 17.5202L19.5902 19.9349L19.8106 19.9564C21.8343 18.1247 23.001 15.4297 23.001 12.2331Z" fill="#4285F4"/>
<path id="vector_2" d="M12.7147 22.4998C15.6075 22.4998 18.0361 21.5664 19.8099 19.9565L16.429 17.3897C15.5242 18.0081 14.3099 18.4397 12.7147 18.4397C9.88142 18.4397 7.47669 16.6081 6.61947 14.0764L6.49382 14.0869L3.18656 16.5952L3.14331 16.7131C4.90519 20.1431 8.52423 22.4998 12.7147 22.4998Z" fill="#34A853"/>
<path id="vector_3" d="M6.62022 14.0765C6.39403 13.4232 6.26313 12.7231 6.26313 11.9998C6.26313 11.2764 6.39403 10.5765 6.60832 9.92313L6.60232 9.78398L3.25361 7.23535L3.14405 7.28642C2.41789 8.70978 2.00122 10.3081 2.00122 11.9998C2.00122 13.6915 2.41789 15.2897 3.14405 16.7131L6.62022 14.0765Z" fill="#FBBC05"/>
<path id="vector_4" d="M12.7148 5.55997C14.7267 5.55997 16.0838 6.41163 16.8576 7.12335L19.8814 4.23C18.0243 2.53834 15.6076 1.5 12.7148 1.5C8.52426 1.5 4.9052 3.85665 3.14331 7.28662L6.60759 9.92332C7.47672 7.39166 9.88146 5.55997 12.7148 5.55997Z" fill="#EB4335"/>
</g>
</svg>
