<svg width="120" height="24" viewBox="0 0 120 24" fill="none" xmlns="http://www.w3.org/2000/svg">
<path d="M8.53023 0H13.482V12.6867C13.476 13.8916 13.1718 14.9518 12.5694 15.8675C11.973 16.7771 11.1477 17.488 10.0935 18C9.04529 18.506 7.83746 18.759 6.46998 18.759C5.28323 18.759 4.1989 18.5542 3.21697 18.1446C2.23504 17.7289 1.4519 17.0783 0.867564 16.1928C0.283225 15.3012 -0.0059319 14.1446 9.22056e-05 12.7229H5.0242C5.04227 13.1867 5.12058 13.5783 5.25914 13.8976C5.40372 14.2169 5.60251 14.4578 5.85553 14.6205C6.11456 14.7771 6.42781 14.8554 6.79529 14.8554C7.16878 14.8554 7.48203 14.7741 7.73505 14.6114C7.99408 14.4488 8.18987 14.2078 8.3224 13.8886C8.45493 13.5633 8.52421 13.1627 8.53023 12.6867V0Z" fill="#10664F"/>
<path d="M19.8028 18.7229C18.9173 18.7229 18.1342 18.5783 17.4534 18.2892C16.7787 17.994 16.2486 17.5482 15.8631 16.9518C15.4775 16.3554 15.2848 15.5964 15.2848 14.6747C15.2848 13.9157 15.4143 13.2681 15.6733 12.7319C15.9324 12.1898 16.2938 11.747 16.7577 11.4036C17.2215 11.0602 17.7607 10.7982 18.3751 10.6175C18.9956 10.4367 19.6643 10.3193 20.3812 10.2651C21.1583 10.2048 21.7818 10.1325 22.2516 10.0482C22.7275 9.95783 23.0709 9.83434 23.2818 9.67771C23.4926 9.51506 23.598 9.3012 23.598 9.03614V9C23.598 8.63855 23.4595 8.36145 23.1824 8.16867C22.9053 7.9759 22.5498 7.87952 22.1161 7.87952C21.6402 7.87952 21.2516 7.98494 20.9504 8.19578C20.6553 8.4006 20.4775 8.71687 20.4173 9.14458H15.8269C15.8872 8.3012 16.1552 7.5241 16.6311 6.81325C17.1131 6.09639 17.8149 5.5241 18.7366 5.09639C19.6583 4.66265 20.8089 4.44578 22.1884 4.44578C23.1824 4.44578 24.0739 4.56325 24.8631 4.79819C25.6523 5.02711 26.3239 5.3494 26.8782 5.76506C27.4324 6.1747 27.8541 6.65663 28.1432 7.21084C28.4384 7.75904 28.586 8.35542 28.586 9V18.506H23.9233V16.5542H23.8149C23.5378 17.0723 23.2004 17.491 22.8028 17.8102C22.4113 18.1295 21.9625 18.3614 21.4565 18.506C20.9565 18.6506 20.4053 18.7229 19.8028 18.7229ZM21.4293 15.5783C21.8089 15.5783 22.1643 15.5 22.4956 15.3434C22.833 15.1867 23.1071 14.9608 23.3179 14.6657C23.5288 14.3705 23.6342 14.012 23.6342 13.5904V12.4337C23.5016 12.488 23.3601 12.5392 23.2095 12.5873C23.0649 12.6355 22.9083 12.6807 22.7396 12.7229C22.5769 12.7651 22.4022 12.8042 22.2155 12.8404C22.0348 12.8765 21.845 12.9096 21.6462 12.9398C21.2607 13 20.9444 13.0994 20.6974 13.238C20.4565 13.3705 20.2757 13.5361 20.1553 13.7349C20.0408 13.9277 19.9836 14.1446 19.9836 14.3855C19.9836 14.7711 20.1191 15.0663 20.3902 15.2711C20.6613 15.4759 21.0077 15.5783 21.4293 15.5783Z" fill="#10664F"/>
<path d="M37.656 24C36.2645 24 35.0717 23.8012 34.0777 23.4036C33.0898 23.012 32.3217 22.4699 31.7735 21.7771C31.2313 21.0904 30.9271 20.3012 30.8608 19.4096H35.6681C35.7163 19.7048 35.8368 19.9428 36.0295 20.1235C36.2223 20.3042 36.4693 20.4337 36.7705 20.512C37.0777 20.5964 37.4211 20.6386 37.8006 20.6386C38.4452 20.6386 38.9783 20.4819 39.4 20.1687C39.8277 19.8554 40.0416 19.2892 40.0416 18.4699V16.1205H39.897C39.7163 16.5904 39.4392 16.991 39.0657 17.3223C38.6922 17.6476 38.2434 17.8976 37.7193 18.0723C37.1952 18.241 36.6199 18.3253 35.9934 18.3253C35.0054 18.3253 34.0958 18.0964 33.2645 17.6386C32.4392 17.1807 31.7765 16.4548 31.2765 15.4608C30.7825 14.4669 30.5355 13.1687 30.5355 11.5663C30.5355 9.89157 30.7946 8.53012 31.3127 7.48193C31.8367 6.43373 32.5114 5.66566 33.3368 5.17771C34.1681 4.68976 35.0416 4.44578 35.9572 4.44578C36.644 4.44578 37.2464 4.56627 37.7645 4.80723C38.2825 5.04217 38.7163 5.35843 39.0657 5.75602C39.4151 6.14759 39.6801 6.57831 39.8609 7.04819H39.9693V4.62651H44.9573V18.4699C44.9573 19.6446 44.653 20.6416 44.0446 21.4608C43.4422 22.2861 42.5928 22.9157 41.4964 23.3494C40.4 23.7831 39.1199 24 37.656 24ZM37.8368 14.7831C38.2946 14.7831 38.6862 14.6566 39.0115 14.4036C39.3428 14.1446 39.5958 13.7771 39.7705 13.3012C39.9512 12.8193 40.0416 12.241 40.0416 11.5663C40.0416 10.8795 39.9512 10.2922 39.7705 9.80422C39.5958 9.31024 39.3428 8.93373 39.0115 8.6747C38.6862 8.40964 38.2946 8.27711 37.8368 8.27711C37.3789 8.27711 36.9874 8.40964 36.6621 8.6747C36.3428 8.93373 36.0958 9.31024 35.9211 9.80422C35.7524 10.2922 35.6681 10.8795 35.6681 11.5663C35.6681 12.253 35.7524 12.8373 35.9211 13.3193C36.0958 13.7952 36.3428 14.1596 36.6621 14.4127C36.9874 14.6596 37.3789 14.7831 37.8368 14.7831Z" fill="#10664F"/>
<path d="M54.1809 18.759C52.6749 18.759 51.3857 18.4608 50.3134 17.8645C49.2411 17.262 48.4189 16.4247 47.8466 15.3524C47.2743 14.2741 46.9881 13.0241 46.9881 11.6024C46.9881 10.1807 47.2743 8.93373 47.8466 7.86145C48.4189 6.78313 49.2411 5.94578 50.3134 5.3494C51.3857 4.74699 52.6749 4.44578 54.1809 4.44578C55.6869 4.44578 56.9761 4.74699 58.0484 5.3494C59.1207 5.94578 59.943 6.78313 60.5153 7.86145C61.0876 8.93373 61.3737 10.1807 61.3737 11.6024C61.3737 13.0241 61.0876 14.2741 60.5153 15.3524C59.943 16.4247 59.1207 17.262 58.0484 17.8645C56.9761 18.4608 55.6869 18.759 54.1809 18.759ZM54.2171 15.0723C54.6388 15.0723 55.0032 14.9307 55.3104 14.6476C55.6177 14.3645 55.8556 13.9608 56.0243 13.4367C56.193 12.9127 56.2773 12.2892 56.2773 11.5663C56.2773 10.8373 56.193 10.2139 56.0243 9.69578C55.8556 9.17169 55.6177 8.76807 55.3104 8.48494C55.0032 8.20181 54.6388 8.06024 54.2171 8.06024C53.7713 8.06024 53.3887 8.20181 53.0695 8.48494C52.7502 8.76807 52.5062 9.17169 52.3375 9.69578C52.1689 10.2139 52.0845 10.8373 52.0845 11.5663C52.0845 12.2892 52.1689 12.9127 52.3375 13.4367C52.5062 13.9608 52.7502 14.3645 53.0695 14.6476C53.3887 14.9307 53.7713 15.0723 54.2171 15.0723Z" fill="#10664F"/>
<path d="M66.1484 4.04819V0H82.2328V4.04819H76.6665V18.506H71.7147V4.04819H66.1484Z" fill="#10664F"/>
<path d="M86.1748 18.7229C85.2893 18.7229 84.5062 18.5783 83.8254 18.2892C83.1507 17.994 82.6206 17.5482 82.2351 16.9518C81.8495 16.3554 81.6567 15.5964 81.6567 14.6747C81.6567 13.9157 81.7863 13.2681 82.0453 12.7319C82.3043 12.1898 82.6658 11.747 83.1296 11.4036C83.5935 11.0602 84.1327 10.7982 84.7471 10.6175C85.3676 10.4367 86.0363 10.3193 86.7531 10.2651C87.5303 10.2048 88.1537 10.1325 88.6236 10.0482C89.0995 9.95783 89.4429 9.83434 89.6538 9.67771C89.8646 9.51506 89.97 9.30121 89.97 9.03615V9C89.97 8.63855 89.8315 8.36145 89.5544 8.16868C89.2772 7.9759 88.9218 7.87952 88.4881 7.87952C88.0122 7.87952 87.6236 7.98494 87.3224 8.19578C87.0272 8.4006 86.8495 8.71687 86.7893 9.14458H82.1989C82.2592 8.3012 82.5272 7.5241 83.0031 6.81325C83.4851 6.09639 84.1869 5.5241 85.1086 5.09639C86.0303 4.66265 87.1809 4.44578 88.5604 4.44578C89.5544 4.44578 90.4459 4.56325 91.2351 4.79819C92.0242 5.02711 92.6959 5.3494 93.2501 5.76506C93.8044 6.1747 94.226 6.65663 94.5152 7.21084C94.8104 7.75904 94.958 8.35542 94.958 9V18.506H90.2953V16.5542H90.1869C89.9098 17.0723 89.5724 17.491 89.1748 17.8102C88.7833 18.1295 88.3345 18.3614 87.8284 18.506C87.3284 18.6506 86.7772 18.7229 86.1748 18.7229ZM87.8013 15.5783C88.1809 15.5783 88.5363 15.5 88.8676 15.3434C89.205 15.1867 89.4791 14.9608 89.6899 14.6657C89.9007 14.3705 90.0062 14.012 90.0062 13.5904V12.4337C89.8736 12.488 89.7321 12.5392 89.5815 12.5873C89.4369 12.6355 89.2803 12.6807 89.1116 12.7229C88.9489 12.7651 88.7742 12.8042 88.5875 12.8404C88.4068 12.8765 88.217 12.9096 88.0182 12.9398C87.6327 13 87.3164 13.0994 87.0694 13.238C86.8284 13.3705 86.6477 13.5361 86.5272 13.7349C86.4128 13.9277 86.3556 14.1446 86.3556 14.3855C86.3556 14.7711 86.4911 15.0663 86.7622 15.2711C87.0333 15.4759 87.3797 15.5783 87.8013 15.5783Z" fill="#10664F"/>
<path d="M102.329 0V18.506H97.3413V0H102.329Z" fill="#10664F"/>
<path d="M109.353 15.2169L109.389 9.28916H110.039L113.401 4.62651H119.003L113.365 11.8916H111.955L109.353 15.2169ZM104.871 18.506V0H109.859V18.506H104.871ZM113.437 18.506L110.256 13.012L113.509 9.46988L119.148 18.506H113.437Z" fill="#10664F"/>
</svg>
