<svg width="144" height="56" viewBox="0 0 144 56" fill="none" xmlns="http://www.w3.org/2000/svg">
<g id="Jago">
<path d="M19.9038 0H31.458V29.6024C31.444 32.4137 30.7342 34.8876 29.3285 37.0241C27.937 39.1466 26.0113 40.8052 23.5514 42C21.1056 43.1807 18.2874 43.7711 15.0966 43.7711C12.3275 43.7711 9.7974 43.2932 7.50624 42.3373C5.21507 41.3675 3.38777 39.8494 2.02431 37.7831C0.660858 35.7028 -0.0138411 33.004 0.000215146 29.6867H11.7231C11.7653 30.7691 11.948 31.6827 12.2713 32.4277C12.6086 33.1727 13.0725 33.7349 13.6629 34.1145C14.2673 34.4799 14.9982 34.6627 15.8556 34.6627C16.7271 34.6627 17.458 34.4729 18.0484 34.0934C18.6528 33.7139 19.1097 33.1516 19.4189 32.4066C19.7281 31.6476 19.8898 30.7129 19.9038 29.6024V0Z" fill="white"/>
<path d="M46.2065 43.6867C44.1403 43.6867 42.313 43.3494 40.7246 42.6747C39.1503 41.9859 37.9134 40.9458 37.0138 39.5542C36.1142 38.1626 35.6644 36.3916 35.6644 34.241C35.6644 32.4699 35.9666 30.9588 36.571 29.7078C37.1754 28.4428 38.0188 27.4096 39.1011 26.6084C40.1835 25.8072 41.4415 25.1958 42.8752 24.7741C44.323 24.3524 45.8833 24.0783 47.5559 23.9518C49.3692 23.8112 50.824 23.6426 51.9204 23.4458C53.0308 23.2349 53.832 22.9468 54.324 22.5813C54.816 22.2018 55.062 21.7028 55.062 21.0843V21C55.062 20.1566 54.7387 19.51 54.0921 19.0602C53.4455 18.6104 52.6162 18.3855 51.6041 18.3855C50.4937 18.3855 49.5871 18.6315 48.8843 19.1235C48.1955 19.6014 47.7808 20.3394 47.6403 21.3373H36.9294C37.07 19.3695 37.6955 17.5562 38.8059 15.8976C39.9304 14.2249 41.568 12.8896 43.7186 11.8916C45.8692 10.8795 48.5539 10.3735 51.7728 10.3735C54.0921 10.3735 56.1724 10.6476 58.0138 11.1958C59.8551 11.7299 61.4224 12.4819 62.7156 13.4518C64.0088 14.4076 64.9927 15.5321 65.6674 16.8253C66.3561 18.1044 66.7005 19.496 66.7005 21V43.1807H55.821V38.6265H55.568C54.9214 39.8353 54.1343 40.8122 53.2065 41.5572C52.2929 42.3022 51.2457 42.8434 50.065 43.1807C48.8983 43.5181 47.6122 43.6867 46.2065 43.6867ZM50.0017 36.3494C50.8873 36.3494 51.7166 36.1667 52.4897 35.8012C53.2768 35.4357 53.9164 34.9086 54.4084 34.2199C54.9003 33.5311 55.1463 32.6948 55.1463 31.7108V29.012C54.8371 29.1386 54.5067 29.258 54.1553 29.3705C53.818 29.4829 53.4525 29.5884 53.059 29.6867C52.6794 29.7851 52.2718 29.8765 51.8361 29.9608C51.4144 30.0452 50.9716 30.1225 50.5078 30.1928C49.6082 30.3333 48.8702 30.5653 48.2939 30.8886C47.7316 31.1978 47.31 31.5843 47.0288 32.0482C46.7618 32.498 46.6282 33.004 46.6282 33.5663C46.6282 34.4659 46.9445 35.1546 47.577 35.6325C48.2096 36.1104 49.0178 36.3494 50.0017 36.3494Z" fill="white"/>
<path d="M87.8639 56C84.6169 56 81.8338 55.5361 79.5145 54.6084C77.2093 53.6948 75.4171 52.4297 74.138 50.8133C72.873 49.2108 72.1631 47.3695 72.0085 45.2892H83.2254C83.3378 45.9779 83.6189 46.5331 84.0687 46.9548C84.5185 47.3765 85.0948 47.6787 85.7977 47.8614C86.5145 48.0582 87.3157 48.1566 88.2013 48.1566C89.7053 48.1566 90.9493 47.7912 91.9332 47.0602C92.9312 46.3293 93.4302 45.008 93.4302 43.0964V37.6145H93.0928C92.6712 38.7108 92.0246 39.6456 91.1531 40.4187C90.2816 41.1777 89.2344 41.761 88.0115 42.1687C86.7886 42.5622 85.4463 42.759 83.9844 42.759C81.6792 42.759 79.5567 42.2249 77.6169 41.1566C75.6912 40.0883 74.145 38.3946 72.9784 36.0753C71.8258 33.756 71.2495 30.7269 71.2495 26.988C71.2495 23.0803 71.8539 19.9036 73.0627 17.4578C74.2856 15.012 75.8599 13.2199 77.7856 12.0813C79.7254 10.9428 81.7635 10.3735 83.9001 10.3735C85.5025 10.3735 86.9081 10.6546 88.1169 11.2169C89.3258 11.7651 90.3378 12.503 91.1531 13.4307C91.9683 14.3444 92.5868 15.3494 93.0085 16.4458H93.2615V10.7952H104.9V43.0964C104.9 45.8373 104.19 48.1637 102.771 50.0753C101.365 52.001 99.383 53.4699 96.8248 54.4819C94.2665 55.494 91.2796 56 87.8639 56ZM88.2856 34.494C89.3539 34.494 90.2675 34.1988 91.0266 33.6084C91.7997 33.004 92.39 32.1466 92.7977 31.0361C93.2193 29.9116 93.4302 28.5622 93.4302 26.988C93.4302 25.3855 93.2193 24.0151 92.7977 22.8765C92.39 21.7239 91.7997 20.8454 91.0266 20.241C90.2675 19.6225 89.3539 19.3133 88.2856 19.3133C87.2173 19.3133 86.3037 19.6225 85.5446 20.241C84.7997 20.8454 84.2234 21.7239 83.8157 22.8765C83.4222 24.0151 83.2254 25.3855 83.2254 26.988C83.2254 28.5904 83.4222 29.9538 83.8157 31.0783C84.2234 32.1888 84.7997 33.0392 85.5446 33.6295C86.3037 34.2058 87.2173 34.494 88.2856 34.494Z" fill="white"/>
<path d="M126.422 43.7711C122.908 43.7711 119.9 43.0753 117.398 41.6837C114.896 40.2781 112.977 38.3243 111.642 35.8223C110.306 33.3062 109.639 30.3896 109.639 27.0723C109.639 23.755 110.306 20.8454 111.642 18.3434C112.977 15.8273 114.896 13.8735 117.398 12.4819C119.9 11.0763 122.908 10.3735 126.422 10.3735C129.936 10.3735 132.944 11.0763 135.446 12.4819C137.948 13.8735 139.867 15.8273 141.202 18.3434C142.537 20.8454 143.205 23.755 143.205 27.0723C143.205 30.3896 142.537 33.3062 141.202 35.8223C139.867 38.3243 137.948 40.2781 135.446 41.6837C132.944 43.0753 129.936 43.7711 126.422 43.7711ZM126.506 35.1687C127.49 35.1687 128.341 34.8384 129.057 34.1777C129.774 33.5171 130.33 32.5753 130.723 31.3524C131.117 30.1295 131.313 28.6747 131.313 26.988C131.313 25.2871 131.117 23.8323 130.723 22.6235C130.33 21.4006 129.774 20.4588 129.057 19.7982C128.341 19.1376 127.49 18.8072 126.506 18.8072C125.466 18.8072 124.574 19.1376 123.829 19.7982C123.084 20.4588 122.514 21.4006 122.121 22.6235C121.727 23.8323 121.53 25.2871 121.53 26.988C121.53 28.6747 121.727 30.1295 122.121 31.3524C122.514 32.5753 123.084 33.5171 123.829 34.1777C124.574 34.8384 125.466 35.1687 126.506 35.1687Z" fill="white"/>
</g>
</svg>
