<svg width="41" height="24" viewBox="0 0 41 24" fill="none" xmlns="http://www.w3.org/2000/svg">
<g id="Group 33837">
<path id="Vector 2" d="M34.5487 0H25.103C21.7324 0 19 2.73242 19 6.10303V9H25.2639V23.9289H34.3879V9H40.6517V6.10303C40.6517 2.73242 37.9193 0 34.5487 0Z" fill="#10664F"/>
<path id="Vector 5" fill-rule="evenodd" clip-rule="evenodd" d="M22.103 0H18V6.10303C18 2.73242 20.5 0 22.103 0Z" fill="#10664F"/>
<path id="Vector 4" fill-rule="evenodd" clip-rule="evenodd" d="M8.90321 24C19.7055 24 22.9694 16.0203 22.9694 11.5957V10H18V4V0H13.9217V10.9091C13.9217 12.74 13 14.876 9.05579 14.876V10.9091H6.25918C2.88857 10.9091 0.15615 13.6415 0.15615 17.0121V24H8.90321Z" fill="#10664F"/>
</g>
</svg>
