<svg width="20" height="20" viewBox="0 0 20 20" fill="none" xmlns="http://www.w3.org/2000/svg">
<path d="M16.9195 3.08074C15.9268 2.0866 14.628 1.45595 13.2329 1.29055C11.8377 1.12514 10.4275 1.43463 9.2298 2.16908C8.03212 2.90352 7.11682 4.02008 6.63161 5.33858C6.1464 6.65707 6.11958 8.1006 6.55548 9.4362L2.24141 13.7503C2.12483 13.8659 2.03241 14.0036 1.96951 14.1553C1.9066 14.307 1.87448 14.4696 1.87501 14.6339V16.8753C1.87501 17.2068 2.0067 17.5247 2.24112 17.7592C2.47554 17.9936 2.79349 18.1253 3.12501 18.1253H5.62501C5.79077 18.1253 5.94974 18.0594 6.06695 17.9422C6.18416 17.825 6.25001 17.666 6.25001 17.5003V16.2503H7.50001C7.66577 16.2503 7.82474 16.1844 7.94195 16.0672C8.05916 15.95 8.12501 15.791 8.12501 15.6253V14.3753H9.37501C9.45711 14.3753 9.53842 14.3592 9.61429 14.3279C9.69016 14.2965 9.75911 14.2505 9.8172 14.1925L10.5641 13.4448C11.1892 13.6481 11.8426 13.7512 12.5 13.7503H12.5078C13.7433 13.7488 14.9507 13.3811 15.9773 12.6938C17.004 12.0064 17.8039 11.0302 18.276 9.88846C18.7481 8.74672 18.8712 7.49066 18.6298 6.27898C18.3883 5.06729 17.7932 3.95434 16.9195 3.08074ZM17.5 7.66433C17.4149 10.3276 15.1758 12.4971 12.5086 12.5003H12.5C11.8673 12.5013 11.2402 12.3818 10.6524 12.1479C10.5374 12.098 10.41 12.0838 10.2868 12.1072C10.1637 12.1307 10.0504 12.1906 9.96173 12.2792L9.11641 13.1253H7.50001C7.33425 13.1253 7.17528 13.1911 7.05807 13.3083C6.94086 13.4255 6.87501 13.5845 6.87501 13.7503V15.0003H5.62501C5.45925 15.0003 5.30028 15.0661 5.18307 15.1833C5.06586 15.3005 5.00001 15.4595 5.00001 15.6253V16.8753H3.12501V14.6339L7.7211 10.0385C7.80972 9.94987 7.86962 9.8366 7.89303 9.71344C7.91643 9.59028 7.90226 9.46292 7.85235 9.34792C7.61778 8.75807 7.49818 8.1288 7.50001 7.49402C7.50001 4.82683 9.67266 2.58777 12.3359 2.50261C13.0201 2.47978 13.7016 2.59766 14.3383 2.84895C14.975 3.10024 15.5533 3.47959 16.0374 3.96349C16.5216 4.4474 16.9012 5.02555 17.1528 5.66214C17.4043 6.29873 17.5225 6.9802 17.5 7.66433ZM15 5.93777C15 6.12319 14.945 6.30444 14.842 6.45861C14.739 6.61279 14.5926 6.73295 14.4213 6.8039C14.25 6.87486 14.0615 6.89343 13.8796 6.85725C13.6978 6.82108 13.5307 6.73179 13.3996 6.60068C13.2685 6.46957 13.1792 6.30252 13.143 6.12067C13.1068 5.93881 13.1254 5.75031 13.1964 5.579C13.2673 5.4077 13.3875 5.26128 13.5417 5.15826C13.6958 5.05525 13.8771 5.00027 14.0625 5.00027C14.3111 5.00027 14.5496 5.09904 14.7254 5.27486C14.9012 5.45067 15 5.68913 15 5.93777Z" fill="#10664F"/>
</svg>
