<svg width="32" height="32" viewBox="0 0 32 32" fill="none" xmlns="http://www.w3.org/2000/svg">
<g id="ph:lightbulb">
<path id="Vector" d="M22.0002 29.0003C22.0002 29.2655 21.8948 29.5198 21.7073 29.7074C21.5197 29.8949 21.2654 30.0003 21.0002 30.0003H11.0002C10.7349 30.0003 10.4806 29.8949 10.2931 29.7074C10.1055 29.5198 10.0002 29.2655 10.0002 29.0003C10.0002 28.735 10.1055 28.4807 10.2931 28.2932C10.4806 28.1056 10.7349 28.0003 11.0002 28.0003H21.0002C21.2654 28.0003 21.5197 28.1056 21.7073 28.2932C21.8948 28.4807 22.0002 28.735 22.0002 29.0003ZM27.0002 13.0003C27.0045 14.6673 26.6279 16.3133 25.8991 17.8127C25.1704 19.312 24.1087 20.625 22.7952 21.6515C22.5496 21.8398 22.3502 22.0817 22.2125 22.3588C22.0747 22.6359 22.0021 22.9408 22.0002 23.2503V24.0003C22.0002 24.5307 21.7894 25.0394 21.4144 25.4145C21.0393 25.7895 20.5306 26.0003 20.0002 26.0003H12.0002C11.4697 26.0003 10.961 25.7895 10.586 25.4145C10.2109 25.0394 10.0002 24.5307 10.0002 24.0003V23.2503C9.99996 22.9445 9.92965 22.6429 9.79465 22.3685C9.65965 22.0942 9.46355 21.8545 9.22141 21.6678C7.91116 20.6473 6.85022 19.3422 6.11889 17.8512C5.38755 16.3601 5.00499 14.7222 5.00016 13.0615C4.96766 7.10401 9.78266 2.14276 15.7352 2.00026C17.2018 1.96492 18.6608 2.22333 20.0261 2.76029C21.3914 3.29724 22.6355 4.10189 23.6852 5.12688C24.7349 6.15186 25.5689 7.37647 26.1382 8.72862C26.7075 10.0808 27.0006 11.5332 27.0002 13.0003ZM25.0002 13.0003C25.0005 11.7998 24.7607 10.6115 24.2949 9.50512C23.8291 8.39877 23.1466 7.39679 22.2877 6.55815C21.4288 5.71952 20.4108 5.06118 19.2936 4.6219C18.1765 4.18261 16.9827 3.97125 15.7827 4.00026C10.9077 4.11526 6.97391 8.17401 7.00016 13.049C7.00473 14.4072 7.31816 15.7466 7.91673 16.9659C8.5153 18.1851 9.38334 19.2522 10.4552 20.0865C10.937 20.4611 11.3267 20.9409 11.5945 21.4893C11.8623 22.0376 12.001 22.64 12.0002 23.2503V24.0003H20.0002V23.2503C20.0016 22.6383 20.1427 22.0347 20.4128 21.4855C20.683 20.9363 21.075 20.4561 21.5589 20.0815C22.634 19.2413 23.503 18.1665 24.0994 16.9393C24.6958 15.712 25.0039 14.3648 25.0002 13.0003ZM22.9864 11.8328C22.7271 10.3844 22.0303 9.05022 20.9897 8.00989C19.9492 6.96955 18.6149 6.27301 17.1664 6.01401C17.0369 5.99218 16.9043 5.99607 16.7763 6.02547C16.6483 6.05486 16.5274 6.10918 16.4203 6.18532C16.3133 6.26147 16.2223 6.35794 16.1526 6.46925C16.0829 6.58055 16.0357 6.7045 16.0139 6.83401C15.9921 6.96353 15.996 7.09608 16.0254 7.22409C16.0548 7.3521 16.1091 7.47307 16.1852 7.58009C16.2614 7.68711 16.3578 7.77808 16.4691 7.84782C16.5804 7.91755 16.7044 7.96468 16.8339 7.98651C18.9052 8.33526 20.6627 10.0928 21.0139 12.1678C21.0535 12.4007 21.1742 12.612 21.3548 12.7644C21.5353 12.9168 21.7639 13.0004 22.0002 13.0003C22.0567 12.9999 22.1131 12.9953 22.1689 12.9865C22.4303 12.9419 22.6633 12.7953 22.8166 12.5789C22.9699 12.3626 23.031 12.0942 22.9864 11.8328Z" fill="#10664F"/>
</g>
</svg>
