<svg width="24" height="24" viewBox="0 0 24 24" fill="none" xmlns="http://www.w3.org/2000/svg">
<g id="logos:google-gmail" clip-path="url(#clip0_747_3417)">
<g id="Group 33851">
<path id="Vector" d="M5.45548 21.0066V11.7322L2.57922 9.10084L0 7.64062V19.3699C0 20.2755 0.733718 21.0066 1.63668 21.0066H5.45548Z" fill="#4285F4"/>
<path id="Vector_2" d="M18.5469 21.0065H22.3657C23.2714 21.0065 24.0024 20.2727 24.0024 19.3698V7.64062L21.081 9.31313L18.5469 11.7321V21.0065Z" fill="#34A853"/>
<path id="Vector_3" d="M5.45388 11.7327L5.0625 8.10893L5.45388 4.64062L12.0004 9.55058L18.547 4.64062L18.9848 7.92168L18.547 11.7327L12.0004 16.6427L5.45388 11.7327Z" fill="#EA4335"/>
<path id="Vector_4" d="M18.5469 4.64125V11.7333L24.0024 7.64176V5.45954C24.0024 3.43561 21.692 2.28182 20.0745 3.49562L18.5469 4.64125Z" fill="#FBBC04"/>
<path id="Vector_5" d="M0 7.6418L2.50908 9.52368L5.45548 11.7334V4.64129L3.92785 3.49566C2.30758 2.28177 0 3.43565 0 5.45949V7.6418Z" fill="#C5221F"/>
</g>
</g>
<defs>
<clipPath id="clip0_747_3417">
<rect width="24" height="24" fill="white"/>
</clipPath>
</defs>
</svg>
