<svg width="24" height="24" viewBox="0 0 24 24" fill="none" xmlns="http://www.w3.org/2000/svg">
<g id="logos:whatsapp-icon" clip-path="url(#clip0_747_3425)">
<path id="Vector" d="M0.60265 11.8563C0.602092 13.8728 1.12898 15.8417 2.13084 17.5771L0.506836 23.5066L6.57493 21.9156C8.25328 22.8292 10.1338 23.308 12.0447 23.3081H12.0497C18.3581 23.3081 23.4933 18.1748 23.496 11.8653C23.4972 8.80792 22.3076 5.93295 20.1463 3.76997C17.9853 1.60718 15.1114 0.415458 12.0493 0.414062C5.74014 0.414062 0.605348 5.54709 0.602743 11.8563" fill="url(#paint0_linear_747_3425)"/>
<path id="Vector_2" d="M0.192308 11.8527C0.191657 13.9417 0.737425 15.981 1.77501 17.7786L0.0927734 23.9207L6.37845 22.2726C8.11035 23.2168 10.0603 23.7147 12.0445 23.7154H12.0496C18.5843 23.7154 23.9039 18.3975 23.9067 11.8621C23.9078 8.69488 22.6755 5.71656 20.437 3.47609C18.1982 1.23591 15.2214 0.00130233 12.0496 0C5.5138 0 0.194913 5.31721 0.192308 11.8527ZM3.93566 17.469L3.70096 17.0965C2.71435 15.5277 2.19361 13.7149 2.19435 11.8534C2.1964 6.4213 6.61724 2.00186 12.0533 2.00186C14.6859 2.00298 17.1599 3.02921 19.0208 4.89116C20.8815 6.7533 21.9054 9.22865 21.9048 11.8614C21.9024 17.2935 17.4814 21.7135 12.0496 21.7135H12.0457C10.2771 21.7126 8.54245 21.2376 7.0297 20.34L6.6697 20.1265L2.93966 21.1045L3.93566 17.469Z" fill="url(#paint1_linear_747_3425)"/>
<path id="Vector_3" d="M9.08386 6.89771C8.8619 6.4044 8.62832 6.39445 8.41725 6.3858C8.24441 6.37836 8.04683 6.37892 7.84944 6.37892C7.65186 6.37892 7.33083 6.45324 7.05948 6.74952C6.78786 7.04608 6.02246 7.76273 6.02246 9.22031C6.02246 10.678 7.08414 12.0866 7.23214 12.2845C7.38032 12.482 9.28172 15.5689 12.2931 16.7564C14.7958 17.7433 15.3051 17.547 15.8482 17.4975C16.3915 17.4482 17.6012 16.7811 17.8479 16.0892C18.0949 15.3975 18.0949 14.8046 18.0209 14.6807C17.9468 14.5572 17.7493 14.4831 17.453 14.335C17.1566 14.1868 15.7 13.4701 15.4285 13.3712C15.1569 13.2724 14.9594 13.2231 14.7618 13.5198C14.5642 13.8159 13.9969 14.4831 13.8239 14.6807C13.6512 14.8787 13.4783 14.9034 13.1821 14.7552C12.8856 14.6065 11.9315 14.2941 10.7995 13.2849C9.91874 12.4996 9.32414 11.5298 9.1513 11.2331C8.97846 10.937 9.13279 10.7764 9.28134 10.6288C9.41446 10.496 9.57772 10.2828 9.726 10.1099C9.87372 9.93687 9.92302 9.81343 10.0218 9.61585C10.1207 9.41808 10.0712 9.24506 9.99725 9.09687C9.92302 8.94868 9.3473 7.48347 9.08386 6.89771Z" fill="white"/>
</g>
<defs>
<linearGradient id="paint0_linear_747_3425" x1="1149.96" y1="2309.67" x2="1149.96" y2="0.414062" gradientUnits="userSpaceOnUse">
<stop stop-color="#1FAF38"/>
<stop offset="1" stop-color="#60D669"/>
</linearGradient>
<linearGradient id="paint1_linear_747_3425" x1="1190.79" y1="2392.07" x2="1190.79" y2="0" gradientUnits="userSpaceOnUse">
<stop stop-color="#F9F9F9"/>
<stop offset="1" stop-color="white"/>
</linearGradient>
<clipPath id="clip0_747_3425">
<rect width="23.814" height="24" fill="white" transform="translate(0.0927734)"/>
</clipPath>
</defs>
</svg>
