<svg width="49" height="60" viewBox="0 0 49 60" fill="none" xmlns="http://www.w3.org/2000/svg">
<g id="wappGPTlogo" filter="url(#filter0_d_747_2312)">
<path id="Vector" d="M14.7906 28.1928C14.1288 27.9311 13.4796 27.6451 12.8444 27.3359C10.7798 28.7562 9.03444 30.525 7.72021 32.5431C9.95405 35.9734 13.4334 38.6835 17.609 40.1856C19.5987 40.9014 21.7465 41.3429 23.993 41.4572H26.3339C28.5799 41.3429 32.5273 43.5157 26.7952 48.9988C30.9714 47.4968 40.3726 35.9738 42.6067 32.5431C41.2962 30.5308 39.557 28.7663 37.5002 27.3481C36.8722 27.6528 36.2308 27.935 35.5769 28.1936C32.8399 29.2758 29.8854 29.9432 26.7952 30.1162C26.2623 30.146 25.7253 30.1611 25.1848 30.1611C24.6442 30.1611 24.1072 30.146 23.5743 30.1162C20.4834 29.9432 17.5283 29.2754 14.7906 28.1928Z" fill="url(#paint0_linear_747_2312)" stroke="#B6ED3E" stroke-width="0.872727"/>
<ellipse id="Ellipse 19" cx="25.1677" cy="35.0222" rx="1.5188" ry="1.48315" fill="#1A1A1A"/>
<g id="Group 33852">
<path id="Vector_2" d="M20.3042 27.8203H31.4094C32.1342 27.8203 32.7217 27.2328 32.7217 26.508V26.317C32.7217 25.5923 32.1342 25.0047 31.4094 25.0047H20.3042C19.5795 25.0047 18.9919 25.5923 18.9919 26.317V26.508C18.9919 27.2328 19.5795 27.8203 20.3042 27.8203Z" fill="#032F35"/>
<path id="Vector_3" d="M25.3816 7H26.3403V2.15263H25.3816V7Z" fill="#032F35"/>
<path id="Vector_4" d="M40.52 21.4321C42.0339 21.0723 42.9694 19.5534 42.6096 18.0396C42.2498 16.5258 40.7309 15.5903 39.2171 15.9501C37.7033 16.3099 36.7678 17.8288 37.1276 19.3426C37.4874 20.8564 39.0062 21.7919 40.52 21.4321Z" fill="#B6ED3E"/>
<path id="Vector_5" d="M12.056 21.2469C13.5735 20.9027 14.5246 19.3936 14.1804 17.8761C13.8362 16.3587 12.327 15.4076 10.8096 15.7518C9.29214 16.096 8.34104 17.6051 8.68524 19.1226C9.02943 20.64 10.5386 21.5911 12.056 21.2469Z" fill="#B6ED3E"/>
<path id="Vector_6" d="M25.2999 5.94842C25.2999 5.94842 13.8448 5.81094 12.0344 15.7396C10.224 25.6682 19.908 25.8467 22.695 26.0342C23.9573 26.1199 26.6604 26.1288 29.0457 26.086C34.3269 25.9949 38.0584 24.9737 39.3278 20.0745C39.479 19.5001 39.5741 18.9123 39.6117 18.3195C39.9456 12.9418 36.3158 5.68418 25.2999 5.94842Z" fill="#B6ED3E"/>
<path id="Vector_7" d="M33.6135 21.0609L16.9718 21.3198C16.5565 21.3271 16.1439 21.2525 15.7576 21.1002C15.3712 20.9479 15.0187 20.7208 14.7202 20.4321C14.4217 20.1434 14.1831 19.7986 14.018 19.4176C13.8529 19.0365 13.7645 18.6267 13.758 18.2114C13.7509 17.7961 13.8258 17.3835 13.9783 16.9971C14.1308 16.6108 14.358 16.2583 14.6469 15.9598C14.9357 15.6613 15.2806 15.4227 15.6618 15.2576C16.0429 15.0925 16.4529 15.0042 16.8682 14.9977L33.5099 14.7388C33.9252 14.7312 34.3379 14.8057 34.7244 14.9579C35.1108 15.1102 35.4634 15.3372 35.762 15.626C36.0605 15.9147 36.2992 16.2596 36.4642 16.6407C36.6292 17.0219 36.7174 17.4319 36.7237 17.8472C36.731 18.2626 36.6563 18.6753 36.5039 19.0618C36.3514 19.4482 36.1243 19.8008 35.8354 20.0993C35.5465 20.3979 35.2015 20.6365 34.8202 20.8015C34.439 20.9665 34.0289 21.0546 33.6135 21.0609Z" fill="#032F35"/>
<path id="Vector_8" d="M20.4279 17.8661C20.3892 18.0629 20.293 18.2437 20.1515 18.3859C20.01 18.528 19.8295 18.625 19.6329 18.6645C19.4363 18.7041 19.2324 18.6845 19.0469 18.6082C18.8615 18.5319 18.7028 18.4023 18.591 18.2358C18.4791 18.0693 18.4192 17.8734 18.4187 17.6729C18.4182 17.4723 18.4772 17.2761 18.5882 17.1091C18.6992 16.9421 18.8572 16.8117 19.0423 16.7345C19.2274 16.6572 19.4312 16.6366 19.628 16.6752C19.7587 16.7009 19.8831 16.752 19.9941 16.8257C20.105 16.8995 20.2004 16.9943 20.2747 17.1049C20.3489 17.2155 20.4007 17.3397 20.427 17.4703C20.4533 17.6009 20.4536 17.7354 20.4279 17.8661Z" fill="white"/>
<path id="Vector_9" d="M32.052 17.6808C32.0136 17.8777 31.9177 18.0588 31.7763 18.2012C31.635 18.3436 31.4545 18.4409 31.2579 18.4807C31.0613 18.5205 30.8572 18.5011 30.6716 18.425C30.486 18.3488 30.3271 18.2193 30.2151 18.0528C30.1032 17.8863 30.0431 17.6904 30.0425 17.4897C30.0419 17.2891 30.1008 17.0928 30.2119 16.9256C30.3229 16.7585 30.481 16.6281 30.6661 16.5508C30.8513 16.4736 31.0552 16.453 31.2521 16.4917C31.5158 16.5435 31.7481 16.6978 31.898 16.9207C32.048 17.1437 32.1034 17.417 32.052 17.6808Z" fill="white"/>
<path id="Vector_10" d="M26.9781 3.17197C27.5951 2.55491 27.5951 1.55446 26.9781 0.937401C26.361 0.320341 25.3606 0.320342 24.7435 0.937402C24.1264 1.55446 24.1264 2.55491 24.7435 3.17197C25.3606 3.78903 26.361 3.78904 26.9781 3.17197Z" fill="#B6ED3E"/>
<path id="Vector_11" d="M23.3371 17.3987C23.4121 17.4076 23.3746 17.7558 23.596 18.2325C23.7214 18.5061 23.904 18.7496 24.1316 18.9466C24.3983 19.1813 24.7303 19.3289 25.0832 19.3698C25.438 19.3927 25.7914 19.308 26.0973 19.127C26.3562 18.9764 26.5802 18.7725 26.7543 18.5288C27.0579 18.1057 27.0846 17.7504 27.1596 17.7558C27.19 17.7558 27.2203 17.845 27.2203 18.0129C27.2135 18.252 27.1525 18.4864 27.0418 18.6985C26.8755 19.0189 26.6295 19.2913 26.3276 19.4894C25.9544 19.7524 25.4998 19.874 25.0451 19.8325C24.5904 19.7909 24.1653 19.5889 23.8459 19.2626C23.5852 19.0133 23.3933 18.7009 23.2889 18.3557C23.2144 18.1253 23.1949 17.8808 23.2317 17.6415C23.2621 17.4755 23.3085 17.3933 23.3371 17.3987Z" fill="white"/>
<path id="Vector_12" d="M38.5929 22.0245C38.575 22.0245 38.7804 21.7032 38.9785 21.1408C39.225 20.4042 39.3809 19.6404 39.4427 18.8662C39.5142 18.0947 39.5321 17.3191 39.4963 16.5451C39.4838 16.247 39.4695 16.0095 39.4552 15.831C39.4432 15.7446 39.4402 15.6573 39.4463 15.5703C39.4692 15.6544 39.4841 15.7405 39.4909 15.8274C39.5159 15.9935 39.5409 16.2345 39.5624 16.5416C39.6184 17.3218 39.6094 18.1053 39.5356 18.884C39.4728 19.6655 39.3064 20.4352 39.041 21.1729C38.957 21.3954 38.8555 21.6109 38.7375 21.8174C38.6953 21.8905 38.6469 21.9598 38.5929 22.0245Z" fill="#032F35"/>
<path id="Vector_13" d="M12.0562 15.4062C12.0461 15.493 12.0276 15.5785 12.0009 15.6616C11.9777 15.7419 11.9527 15.8401 11.9295 15.9579C11.9063 16.0758 11.8705 16.2043 11.8491 16.3525C11.7865 16.6966 11.7448 17.0442 11.7241 17.3934C11.7001 17.8206 11.7061 18.249 11.742 18.6753C11.7819 19.1009 11.8511 19.5233 11.9491 19.9394C12.0311 20.2798 12.1336 20.6148 12.2562 20.9428C12.3044 21.0838 12.3597 21.207 12.4044 21.3177C12.449 21.4284 12.4919 21.5213 12.5276 21.5962C12.5683 21.6733 12.6018 21.754 12.6276 21.8373C12.5767 21.7665 12.5325 21.6912 12.4954 21.6123C12.445 21.5231 12.3991 21.4313 12.358 21.3374C12.308 21.2302 12.2473 21.107 12.1955 20.966C12.0629 20.6389 11.9532 20.3031 11.867 19.9608C11.7625 19.5407 11.6897 19.1134 11.6492 18.6825C11.6128 18.2519 11.6092 17.8192 11.6384 17.388C11.6633 17.0358 11.7123 16.6856 11.7848 16.34C11.8116 16.1918 11.8491 16.0615 11.8795 15.9454C11.9098 15.8294 11.9384 15.7312 11.9652 15.6508C11.9888 15.567 12.0193 15.4852 12.0562 15.4062Z" fill="#032F35"/>
</g>
<ellipse id="Ellipse 21" cx="19.0955" cy="35.0222" rx="1.5188" ry="1.48315" fill="#1A1A1A"/>
<ellipse id="Ellipse 22" cx="31.2478" cy="35.0222" rx="1.51881" ry="1.48315" fill="#1A1A1A"/>
</g>
<defs>
<filter id="filter0_d_747_2312" x="-4.73636" y="0.472656" width="58.4727" height="59.4102" filterUnits="userSpaceOnUse" color-interpolation-filters="sRGB">
<feFlood flood-opacity="0" result="BackgroundImageFix"/>
<feColorMatrix in="SourceAlpha" type="matrix" values="0 0 0 0 0 0 0 0 0 0 0 0 0 0 0 0 0 0 127 0" result="hardAlpha"/>
<feOffset dy="5.23636"/>
<feGaussianBlur stdDeviation="2.61818"/>
<feComposite in2="hardAlpha" operator="out"/>
<feColorMatrix type="matrix" values="0 0 0 0 0.129412 0 0 0 0 0.0980392 0 0 0 0 0.0823529 0 0 0 0.24 0"/>
<feBlend mode="normal" in2="BackgroundImageFix" result="effect1_dropShadow_747_2312"/>
<feBlend mode="normal" in="SourceGraphic" in2="effect1_dropShadow_747_2312" result="shape"/>
</filter>
<linearGradient id="paint0_linear_747_2312" x1="25.1634" y1="27.3359" x2="25.1634" y2="48.9988" gradientUnits="userSpaceOnUse">
<stop stop-color="#B6ED3E"/>
<stop offset="1" stop-color="#B6ED3E" stop-opacity="0"/>
</linearGradient>
</defs>
</svg>
