<svg width="21" height="20" viewBox="0 0 21 20" fill="none" xmlns="http://www.w3.org/2000/svg">
<path d="M10.4285 6.875C9.8104 6.875 9.20621 7.05828 8.69231 7.40166C8.17841 7.74504 7.77787 8.2331 7.54134 8.80411C7.30482 9.37513 7.24293 10.0035 7.36351 10.6097C7.48409 11.2158 7.78172 11.7727 8.21876 12.2097C8.6558 12.6467 9.21262 12.9444 9.81881 13.065C10.425 13.1855 11.0533 13.1236 11.6244 12.8871C12.1954 12.6506 12.6834 12.2501 13.0268 11.7362C13.3702 11.2223 13.5535 10.6181 13.5535 10C13.5535 9.1712 13.2242 8.37634 12.6382 7.79029C12.0521 7.20424 11.2573 6.875 10.4285 6.875ZM10.4285 11.875C10.0576 11.875 9.69512 11.765 9.38677 11.559C9.07843 11.353 8.83811 11.0601 8.69619 10.7175C8.55428 10.3749 8.51715 9.99792 8.58949 9.63421C8.66184 9.27049 8.84042 8.9364 9.10264 8.67417C9.36486 8.41195 9.69896 8.23337 10.0627 8.16103C10.4264 8.08868 10.8034 8.12581 11.146 8.26773C11.4886 8.40964 11.7814 8.64996 11.9875 8.95831C12.1935 9.26665 12.3035 9.62916 12.3035 10C12.3035 10.4973 12.1059 10.9742 11.7543 11.3258C11.4027 11.6775 10.9257 11.875 10.4285 11.875ZM19.1785 4.375H1.67847C1.51271 4.375 1.35374 4.44085 1.23653 4.55806C1.11931 4.67527 1.05347 4.83424 1.05347 5V15C1.05347 15.1658 1.11931 15.3247 1.23653 15.4419C1.35374 15.5592 1.51271 15.625 1.67847 15.625H19.1785C19.3442 15.625 19.5032 15.5592 19.6204 15.4419C19.7376 15.3247 19.8035 15.1658 19.8035 15V5C19.8035 4.83424 19.7376 4.67527 19.6204 4.55806C19.5032 4.44085 19.3442 4.375 19.1785 4.375ZM15.5574 14.375H5.29956C5.08972 13.6653 4.70566 13.0194 4.18236 12.4961C3.65906 11.9728 3.01315 11.5887 2.30347 11.3789V8.62109C3.01315 8.41125 3.65906 8.02719 4.18236 7.50389C4.70566 6.98059 5.08972 6.33468 5.29956 5.625H15.5574C15.7672 6.33468 16.1513 6.98059 16.6746 7.50389C17.1979 8.02719 17.8438 8.41125 18.5535 8.62109V11.3789C17.8438 11.5887 17.1979 11.9728 16.6746 12.4961C16.1513 13.0194 15.7672 13.6653 15.5574 14.375ZM18.5535 7.29453C17.8038 6.97218 17.2063 6.37466 16.8839 5.625H18.5535V7.29453ZM3.973 5.625C3.65065 6.37466 3.05313 6.97218 2.30347 7.29453V5.625H3.973ZM2.30347 12.7055C3.05313 13.0278 3.65065 13.6253 3.973 14.375H2.30347V12.7055ZM16.8839 14.375C17.2063 13.6253 17.8038 13.0278 18.5535 12.7055V14.375H16.8839Z" fill="#10664F"/>
</svg>
