<svg width="24" height="24" viewBox="0 0 24 24" fill="none" xmlns="http://www.w3.org/2000/svg">
<g id="ph:navigation-arrow">
<g id="Vector">
<path fill-rule="evenodd" clip-rule="evenodd" d="M21.1361 13.1963L5.1513 20.5354L5.15196 20.5321C4.94954 20.6289 4.72907 20.6785 4.50695 20.6788C4.4167 20.679 4.32618 20.6709 4.23648 20.6546C3.92602 20.5982 3.64128 20.4453 3.42275 20.2176C3.20422 19.99 3.06305 19.6992 3.01931 19.3867C2.97557 19.0742 3.0315 18.7559 3.17913 18.477L3.18841 18.4598L6.91133 11.8413L3.18842 5.22275L3.17913 5.20551C3.02794 4.92702 2.97023 4.60731 3.01451 4.29353C3.05879 3.97975 3.20272 3.6885 3.42507 3.46272L3.44496 3.44283C3.66264 3.22105 3.94466 3.0735 4.25098 3.02114C4.55729 2.96878 4.87231 3.01427 5.1513 3.15115L21.1394 10.4869C21.1443 10.489 21.1489 10.4914 21.1533 10.4942C21.4054 10.6179 21.6177 10.8099 21.766 11.0483C21.9143 11.2866 21.9928 11.5619 21.9925 11.8426C21.9921 12.1234 21.913 12.3984 21.764 12.6364C21.6151 12.8745 21.4024 13.0659 21.15 13.189L21.1361 13.1963ZM8.20691 12.6004H18.8503L4.52153 19.1751L4.50695 19.1817L8.20691 12.6004ZM18.8803 11.1001H8.21459L4.5043 4.50482L4.51954 4.51211L18.8803 11.1001Z" fill="#707D7D"/>
</g>
</g>
</svg>
