<svg width="33" height="32" viewBox="0 0 33 32" fill="none" xmlns="http://www.w3.org/2000/svg">
<path d="M29.6665 14H17.6665V11H18.6665C19.1969 11 19.7056 10.7893 20.0807 10.4142C20.4558 10.0391 20.6665 9.53043 20.6665 9V5C20.6665 4.46957 20.4558 3.96086 20.0807 3.58579C19.7056 3.21071 19.1969 3 18.6665 3H14.6665C14.1361 3 13.6274 3.21071 13.2523 3.58579C12.8772 3.96086 12.6665 4.46957 12.6665 5V9C12.6665 9.53043 12.8772 10.0391 13.2523 10.4142C13.6274 10.7893 14.1361 11 14.6665 11H15.6665V14H3.6665C3.40129 14 3.14693 14.1054 2.9594 14.2929C2.77186 14.4804 2.6665 14.7348 2.6665 15C2.6665 15.2652 2.77186 15.5196 2.9594 15.7071C3.14693 15.8946 3.40129 16 3.6665 16H7.6665V20H6.6665C6.13607 20 5.62736 20.2107 5.25229 20.5858C4.87722 20.9609 4.6665 21.4696 4.6665 22V26C4.6665 26.5304 4.87722 27.0391 5.25229 27.4142C5.62736 27.7893 6.13607 28 6.6665 28H10.6665C11.1969 28 11.7056 27.7893 12.0807 27.4142C12.4558 27.0391 12.6665 26.5304 12.6665 26V22C12.6665 21.4696 12.4558 20.9609 12.0807 20.5858C11.7056 20.2107 11.1969 20 10.6665 20H9.6665V16H23.6665V20H22.6665C22.1361 20 21.6274 20.2107 21.2523 20.5858C20.8772 20.9609 20.6665 21.4696 20.6665 22V26C20.6665 26.5304 20.8772 27.0391 21.2523 27.4142C21.6274 27.7893 22.1361 28 22.6665 28H26.6665C27.1969 28 27.7056 27.7893 28.0807 27.4142C28.4558 27.0391 28.6665 26.5304 28.6665 26V22C28.6665 21.4696 28.4558 20.9609 28.0807 20.5858C27.7056 20.2107 27.1969 20 26.6665 20H25.6665V16H29.6665C29.9317 16 30.1861 15.8946 30.3736 15.7071C30.5611 15.5196 30.6665 15.2652 30.6665 15C30.6665 14.7348 30.5611 14.4804 30.3736 14.2929C30.1861 14.1054 29.9317 14 29.6665 14ZM14.6665 5H18.6665V9H14.6665V5ZM10.6665 26H6.6665V22H10.6665V26ZM26.6665 26H22.6665V22H26.6665V26Z" fill="#10664F"/>
</svg>
