<svg width="20" height="20" viewBox="0 0 20 20" fill="none" xmlns="http://www.w3.org/2000/svg">
<g id="ph:arrows-clockwise">
<path id="Vector" d="M17.5 3.74804V7.49804C17.5 7.6638 17.4342 7.82277 17.3169 7.93998C17.1997 8.05719 17.0408 8.12304 16.875 8.12304H13.125C12.9592 8.12304 12.8003 8.05719 12.6831 7.93998C12.5658 7.82277 12.5 7.6638 12.5 7.49804C12.5 7.33228 12.5658 7.17331 12.6831 7.0561C12.8003 6.93889 12.9592 6.87304 13.125 6.87304H15.3664L14.2234 5.73007C13.0619 4.5632 11.4847 3.90488 9.83828 3.89961H9.80313C8.17045 3.89578 6.60189 4.53482 5.43672 5.67851C5.31736 5.78993 5.15914 5.85022 4.99589 5.84648C4.83265 5.84273 4.67736 5.77525 4.56323 5.65848C4.44911 5.5417 4.38522 5.38489 4.38523 5.22161C4.38524 5.05833 4.44914 4.90153 4.56328 4.78476C5.97541 3.4046 7.87486 2.63701 9.8494 2.64857C11.8239 2.66012 13.7143 3.44989 15.1102 4.84648L16.25 5.98945V3.74804C16.25 3.58228 16.3158 3.42331 16.4331 3.3061C16.5503 3.18889 16.7092 3.12304 16.875 3.12304C17.0408 3.12304 17.1997 3.18889 17.3169 3.3061C17.4342 3.42331 17.5 3.58228 17.5 3.74804ZM14.5633 14.3176C13.3866 15.467 11.8042 16.1062 10.1593 16.0965C8.51445 16.0869 6.93968 15.4291 5.77656 14.266L4.63359 13.123H6.875C7.04076 13.123 7.19973 13.0572 7.31694 12.94C7.43415 12.8228 7.5 12.6638 7.5 12.498C7.5 12.3323 7.43415 12.1733 7.31694 12.0561C7.19973 11.9389 7.04076 11.873 6.875 11.873H3.125C2.95924 11.873 2.80027 11.9389 2.68306 12.0561C2.56585 12.1733 2.5 12.3323 2.5 12.498V16.248C2.5 16.4138 2.56585 16.5728 2.68306 16.69C2.80027 16.8072 2.95924 16.873 3.125 16.873C3.29076 16.873 3.44973 16.8072 3.56694 16.69C3.68415 16.5728 3.75 16.4138 3.75 16.248V14.0066L4.89297 15.1496C6.28688 16.5505 8.18 17.3407 10.1562 17.3465H10.1977C12.1571 17.3515 14.0396 16.5844 15.4375 15.2113C15.5516 15.0946 15.6155 14.9378 15.6156 14.7745C15.6156 14.6112 15.5517 14.4544 15.4375 14.3376C15.3234 14.2208 15.1681 14.1534 15.0049 14.1496C14.8416 14.1459 14.6834 14.2062 14.5641 14.3176H14.5633Z" fill="#4A5151"/>
</g>
</svg>
