<svg width="20" height="20" viewBox="0 0 20 20" fill="none" xmlns="http://www.w3.org/2000/svg">
<g id="ph:share-fat">
<path id="Vector" d="M18.5671 8.3083L12.3171 2.0583C12.2298 1.97084 12.1184 1.91126 11.9972 1.88707C11.876 1.86289 11.7503 1.87521 11.6361 1.92245C11.5218 1.9697 11.4242 2.04976 11.3555 2.15252C11.2867 2.25527 11.25 2.37609 11.25 2.49971V5.65205C9.22339 5.82549 6.98511 6.81768 5.1437 8.3794C2.92651 10.2606 1.54605 12.6849 1.2562 15.2052C1.23355 15.4011 1.27328 15.5992 1.36974 15.7713C1.46619 15.9433 1.61446 16.0806 1.79343 16.1635C1.97241 16.2464 2.17298 16.2707 2.36659 16.2331C2.56021 16.1954 2.73701 16.0976 2.87183 15.9536C3.7312 15.0388 6.78901 12.1458 11.25 11.8911V14.9997C11.25 15.1233 11.2867 15.2442 11.3555 15.3469C11.4242 15.4497 11.5218 15.5297 11.6361 15.577C11.7503 15.6242 11.876 15.6365 11.9972 15.6123C12.1184 15.5882 12.2298 15.5286 12.3171 15.4411L18.5671 9.19112C18.684 9.07395 18.7497 8.91521 18.7497 8.74971C18.7497 8.58421 18.684 8.42547 18.5671 8.3083ZM12.5 13.4911V11.2497C12.5 11.084 12.4341 10.925 12.3169 10.8078C12.1997 10.6906 12.0407 10.6247 11.875 10.6247C9.6812 10.6247 7.54448 11.1974 5.52417 12.3278C4.49522 12.9061 3.53652 13.6014 2.66714 14.3997C3.12026 12.5372 4.26245 10.7661 5.9523 9.33252C7.76636 7.79424 9.98042 6.87471 11.875 6.87471C12.0407 6.87471 12.1997 6.80886 12.3169 6.69165C12.4341 6.57444 12.5 6.41547 12.5 6.24971V4.00909L17.2414 8.74971L12.5 13.4911Z" fill="#9BA3A3"/>
</g>
</svg>
