<svg width="32" height="32" viewBox="0 0 32 32" fill="none" xmlns="http://www.w3.org/2000/svg">
<path d="M17.3846 22C17.3846 22.2738 17.3034 22.5415 17.1513 22.7692C16.9991 22.9969 16.7829 23.1744 16.5299 23.2792C16.2769 23.384 15.9985 23.4114 15.7299 23.358C15.4613 23.3046 15.2146 23.1727 15.0209 22.9791C14.8273 22.7854 14.6954 22.5387 14.642 22.2701C14.5886 22.0015 14.616 21.7231 14.7208 21.4701C14.8256 21.2171 15.0031 21.0009 15.2308 20.8487C15.4585 20.6966 15.7262 20.6154 16 20.6154C16.3672 20.6154 16.7194 20.7613 16.9791 21.0209C17.2387 21.2806 17.3846 21.6328 17.3846 22ZM16 9.53846C13.4546 9.53846 11.3846 11.4019 11.3846 13.6923V14.1538C11.3846 14.3987 11.4819 14.6334 11.655 14.8066C11.8281 14.9797 12.0629 15.0769 12.3077 15.0769C12.5525 15.0769 12.7873 14.9797 12.9604 14.8066C13.1335 14.6334 13.2308 14.3987 13.2308 14.1538V13.6923C13.2308 12.4231 14.4735 11.3846 16 11.3846C17.5265 11.3846 18.7692 12.4231 18.7692 13.6923C18.7692 14.9615 17.5265 16 16 16C15.7552 16 15.5204 16.0972 15.3473 16.2704C15.1742 16.4435 15.0769 16.6783 15.0769 16.9231V17.8462C15.0769 18.091 15.1742 18.3258 15.3473 18.4989C15.5204 18.672 15.7552 18.7692 16 18.7692C16.2448 18.7692 16.4796 18.672 16.6527 18.4989C16.8258 18.3258 16.9231 18.091 16.9231 17.8462V17.7631C19.0277 17.3765 20.6154 15.6977 20.6154 13.6923C20.6154 11.4019 18.5454 9.53846 16 9.53846ZM28 16C28 18.3734 27.2962 20.6934 25.9776 22.6668C24.6591 24.6402 22.7849 26.1783 20.5922 27.0865C18.3995 27.9948 15.9867 28.2324 13.6589 27.7694C11.3311 27.3064 9.19295 26.1635 7.51472 24.4853C5.83649 22.807 4.6936 20.6689 4.23058 18.3411C3.76756 16.0133 4.0052 13.6005 4.91345 11.4078C5.8217 9.21508 7.35977 7.34094 9.33316 6.02236C11.3066 4.70379 13.6266 4 16 4C19.1816 4.00336 22.2319 5.26872 24.4816 7.51843C26.7313 9.76814 27.9966 12.8184 28 16ZM26.1538 16C26.1538 13.9918 25.5583 12.0286 24.4426 10.3588C23.3269 8.68903 21.7411 7.38759 19.8857 6.61907C18.0303 5.85055 15.9887 5.64947 14.0191 6.04126C12.0494 6.43305 10.2402 7.40011 8.82015 8.82015C7.40011 10.2402 6.43305 12.0494 6.04126 14.0191C5.64947 15.9887 5.85055 18.0303 6.61907 19.8857C7.38759 21.7411 8.68904 23.3269 10.3588 24.4426C12.0286 25.5583 13.9918 26.1538 16 26.1538C18.692 26.1508 21.2729 25.08 23.1765 23.1765C25.08 21.2729 26.1508 18.692 26.1538 16Z" fill="#9BA3A3"/>
</svg>
