<svg width="804" height="699" viewBox="0 0 804 699" fill="none" xmlns="http://www.w3.org/2000/svg">
<g opacity="0.3">
<path d="M317.911 651.396C307.032 654.311 296.467 656.874 286.269 659.066C230.282 671.11 187.174 671.859 158.141 661.29C128.438 650.481 114.316 627.93 116.161 594.26C121.768 492.045 136.371 425.711 146.033 381.82C150.382 362.065 153.818 346.459 154.797 334.655C156.423 315.011 177.688 283.813 210.288 253.231C245.372 220.323 285.673 195.289 320.864 184.55C369.396 169.738 418.84 141.385 451.77 120.207C490.131 95.5366 528.786 65.8795 555.172 40.8722C572.204 24.728 592.514 18.8926 613.897 23.9953C650.923 32.8331 686.383 73.2513 706.438 129.473C715.941 156.12 725.77 183.678 733.566 210.722C742.188 240.624 747.314 266.666 749.242 290.335C751.539 318.598 749.462 344.313 742.892 368.944C735.555 396.445 722.821 422.007 703.96 447.09C671.749 489.931 568.374 554.408 452.575 603.888C405.202 624.128 359.286 640.305 317.909 651.392L317.911 651.396ZM584.249 25.4056C574.19 28.1008 564.685 33.5882 556.036 41.7867C529.595 66.8476 490.871 96.5575 452.452 121.265C419.455 142.483 369.902 170.9 321.229 185.753C286.22 196.44 246.093 221.367 211.145 254.152C178.762 284.528 157.648 315.418 156.047 334.766C155.061 346.658 151.617 362.296 147.259 382.097C137.604 425.951 123.018 492.22 117.414 594.335C115.602 627.387 129.448 649.519 158.572 660.119C187.378 670.602 230.253 669.838 286.007 657.847C334.903 647.332 392.331 628.277 452.082 602.745C567.703 553.343 670.867 489.03 702.96 446.347C721.721 421.393 734.386 395.976 741.682 368.629C748.216 344.136 750.283 318.562 747.994 290.445C743.705 237.692 724.158 182.895 705.258 129.901C685.348 74.0734 650.23 33.9615 613.608 25.2232C603.495 22.8084 593.63 22.8962 584.25 25.4096L584.249 25.4056Z" fill="white"/>
<path d="M319.184 629.216C310.579 631.522 302.198 633.581 294.069 635.384C242.799 646.747 203.333 647.718 176.76 638.267C149.899 628.712 137.004 608.596 138.433 578.475C142.079 487.466 154.454 424.401 162.641 382.675C166.485 363.085 169.519 347.613 170.445 335.676C171.948 316.38 191.433 286.602 221.298 257.955C253.276 227.281 290.681 203.65 323.923 193.117C368.632 179.234 414.249 153.411 444.641 134.198C480.347 111.623 515.152 85.5704 540.132 62.7129C555.898 48.2914 574.619 43.245 594.275 48.1187C628.394 56.5763 661.003 93.7673 679.372 145.186C696.75 193.68 714.723 243.826 718.678 293.248C720.762 319.28 718.84 342.986 712.8 365.72C706.066 391.079 694.398 414.659 677.143 437.808C647.647 477.646 552.787 537.693 446.467 583.833C401.606 603.3 358.135 618.783 319.181 629.221L319.184 629.216ZM566.132 49.3028C557.172 51.7037 548.689 56.4847 540.931 63.5798C515.902 86.4807 481.037 112.584 445.275 135.191C414.819 154.443 369.108 180.317 324.28 194.24C291.206 204.72 253.968 228.25 222.118 258.804C192.453 287.258 173.107 316.749 171.624 335.766C170.696 347.773 167.652 363.274 163.805 382.899C155.622 424.594 143.261 487.599 139.619 578.525C138.218 608.072 150.848 627.797 177.163 637.156C203.522 646.53 242.771 645.544 293.82 634.231C338.681 624.29 391.306 606.484 446.007 582.745C552.157 536.681 646.816 476.792 676.205 437.099C693.375 414.073 704.974 390.623 711.67 365.413C717.676 342.809 719.586 319.236 717.511 293.336C713.567 244.067 695.623 193.995 678.269 145.573C660.028 94.5215 627.738 57.617 593.995 49.2533C584.403 46.8762 575.031 46.9141 566.131 49.2988L566.132 49.3028Z" fill="white"/>
<path d="M320.543 607.057C314.171 608.765 307.944 610.317 301.865 611.712C255.313 622.4 219.485 623.589 195.379 615.255C171.36 606.953 159.696 589.266 160.714 562.684C162.427 482.295 172.251 424.744 179.425 382.727C182.681 363.658 185.249 348.595 186.105 336.686C187.507 317.448 204.783 289.779 232.32 262.669C261.205 234.229 295.714 212 326.995 201.677C401.098 178.197 486.065 118.765 525.1 84.5479C539.602 71.8493 556.741 67.5897 574.674 72.2333C605.883 80.3119 635.633 114.282 652.318 160.885C667.413 202.764 684.517 250.233 688.125 296.15C689.994 319.952 688.229 341.649 682.724 362.484C676.589 385.701 665.995 407.299 650.339 428.514C636.898 446.996 609.161 469.965 570.131 494.931C532.642 518.913 486.553 543.362 440.366 563.777C398.044 582.481 357.034 597.28 320.547 607.056L320.543 607.057ZM547.988 73.1869C540.134 75.2914 532.679 79.3689 525.823 85.3746C486.722 119.653 401.59 179.194 327.332 202.724C296.21 212.996 261.857 235.131 233.088 263.453C205.74 290.379 188.584 317.786 187.199 336.765C186.341 348.727 183.765 363.812 180.505 382.913C173.339 424.898 163.525 482.403 161.809 562.719C160.813 588.768 172.227 606.09 195.737 614.216C219.647 622.482 255.268 621.279 301.616 610.637C342.439 601.264 390.267 584.712 439.914 562.769C486.055 542.376 532.087 517.955 569.531 494.002C608.443 469.111 636.077 446.243 649.442 427.864C665.02 406.76 675.555 385.282 681.649 362.205C687.122 341.491 688.88 319.913 687.02 296.239C683.425 250.47 666.345 203.072 651.272 161.261C634.708 114.997 605.249 81.2903 574.388 73.3001C565.296 70.9449 556.411 70.9299 547.984 73.188L547.988 73.1869Z" fill="white"/>
<path d="M322.007 584.928C317.812 586.052 313.695 587.099 309.644 588.067C267.809 598.075 235.626 599.49 213.983 592.273C192.81 585.211 182.384 569.946 182.991 546.904C182.764 476.392 190.632 421.523 196.378 381.463C198.854 364.198 200.992 349.29 201.761 337.703C203.041 318.804 218.585 292.516 243.333 267.39C269.143 241.188 300.755 220.354 330.062 210.24C359.375 200.729 394.067 184.108 430.399 162.17C459.559 144.562 488.595 124.228 510.067 106.384C523.301 95.4003 538.869 91.9295 555.085 96.354C583.375 104.069 610.262 134.815 625.257 176.595C641.155 220.404 654.558 259.861 657.566 299.064C659.221 320.635 657.608 340.328 652.637 359.264C647.104 380.336 637.582 399.955 623.524 419.237C611.361 436.321 586.324 457.495 551.119 480.467C517.437 502.444 475.931 524.921 434.242 543.758C394.491 561.718 355.978 575.838 322.003 584.942L322.007 584.928ZM529.811 97.0506C523.072 98.8564 516.66 102.239 510.719 107.17C489.212 125.045 460.129 145.412 430.927 163.044C394.529 185.022 359.764 201.68 330.386 211.208C301.234 221.272 269.766 242.011 244.066 268.106C219.484 293.062 204.049 319.109 202.787 337.77C202.016 349.397 199.874 364.323 197.394 381.606C191.653 421.635 183.79 476.459 184.02 546.914C183.424 569.469 193.614 584.399 214.31 591.299C235.773 598.456 267.768 597.031 309.412 587.07C346.206 578.262 389.228 562.963 433.828 542.81C475.471 523.993 516.929 501.546 550.565 479.595C585.664 456.694 610.604 435.612 622.698 418.624C636.683 399.444 646.15 379.938 651.651 358.992C656.592 340.168 658.196 320.586 656.55 299.133C653.551 260.062 640.172 220.676 624.3 176.934C609.414 135.461 582.792 104.96 554.82 97.3333C546.214 94.9861 537.789 94.9086 529.818 97.0444L529.811 97.0506Z" fill="white"/>
<path d="M323.604 562.848C321.516 563.407 319.452 563.943 317.405 564.457C280.288 573.789 251.743 575.426 232.562 569.323C214.238 563.491 205.051 550.64 205.265 531.119C202.996 469.561 209.058 416.642 213.485 378.003C215.24 362.683 216.758 349.451 217.41 338.72C218.59 319.866 232.053 295.588 254.344 272.111C277.103 248.14 305.815 228.711 333.123 218.808C387.632 200.617 455.257 159.098 495.027 128.222C507.008 118.94 521.009 116.261 535.515 120.473C560.872 127.837 584.89 155.355 598.195 192.296C611.853 229.622 624.331 266.097 627.004 301.964C628.446 321.301 626.988 338.989 622.551 356.026C617.622 374.955 609.168 392.589 596.714 409.941C585.83 425.627 563.487 445.015 532.106 465.998C502.234 485.972 465.303 506.48 428.117 523.743C390.976 540.981 355.003 554.435 323.605 562.852L323.604 562.848ZM511.581 120.889C505.976 122.39 500.614 125.09 495.611 128.964C455.78 159.888 388.039 201.477 333.439 219.696C306.277 229.547 277.698 248.889 255.037 272.76C232.895 296.081 219.529 320.142 218.364 338.776C217.709 349.529 216.19 362.775 214.434 378.108C210.008 416.716 203.953 469.594 206.218 531.106C206.011 550.184 214.972 562.728 232.856 568.418C251.867 574.468 280.237 572.825 317.179 563.536C349.939 555.29 388.168 541.241 427.72 522.877C464.86 505.634 501.747 485.156 531.582 465.205C562.868 444.286 585.122 424.987 595.944 409.391C608.336 392.133 616.739 374.6 621.639 355.786C626.051 338.851 627.498 321.265 626.067 302.034C623.404 266.285 610.944 229.879 597.312 192.619C584.108 155.958 560.336 128.664 535.262 121.384C527.114 119.018 519.13 118.874 511.587 120.896L511.581 120.889Z" fill="white"/>
<path d="M325.382 540.827L325.152 540.888C292.754 549.548 267.848 551.408 251.131 546.422C235.652 541.808 227.716 531.347 227.545 515.332C222.953 461.674 227.415 409.249 230.675 370.97C231.695 358.982 232.579 348.631 233.071 339.729C234.132 321.188 245.905 298.258 265.363 276.824C285.102 255.081 310.92 237.05 336.196 227.362C359.683 219.253 386.579 206.727 416.154 190.137C438.401 177.655 461.669 163.044 479.999 150.046C490.733 142.46 503.177 140.575 515.996 144.595C538.41 151.623 559.539 175.916 571.138 207.994C582.668 239.171 594.116 272.332 596.45 304.866C597.675 321.973 596.374 337.647 592.47 352.794C588.142 369.578 580.76 385.233 569.903 400.648C550.861 428.981 491.409 470.424 421.974 503.767C387.51 520.318 354.116 533.127 325.382 540.827ZM493.265 144.688C488.811 145.881 484.529 147.911 480.497 150.76C462.146 163.772 438.844 178.405 416.575 190.897C386.958 207.512 360.011 220.056 336.489 228.179C311.351 237.816 285.656 255.759 266.005 277.409C246.677 298.7 234.99 321.434 233.937 339.778C233.442 348.689 232.561 359.048 231.538 371.042C228.279 409.29 223.822 461.671 228.411 515.286C228.581 530.907 236.307 541.088 251.378 545.582C267.939 550.519 292.685 548.658 324.925 540.041L325.155 539.979C353.837 532.294 387.175 519.504 421.593 502.974C490.901 469.691 550.208 428.369 569.18 400.146C579.981 384.811 587.319 369.249 591.621 352.568C595.5 337.518 596.794 321.932 595.578 304.922C593.253 272.503 581.824 239.41 570.317 208.288C558.806 176.458 537.891 152.367 515.733 145.422C508.007 142.999 500.415 142.768 493.272 144.682L493.265 144.688Z" fill="white"/>
<path d="M327.298 518.949C302.327 525.639 282.961 527.209 269.68 523.611C257.051 520.189 250.372 512.106 249.824 499.578C242.222 452.811 245.416 398.152 247.747 358.237C248.111 351.973 248.457 346.06 248.726 340.747C249.687 322.223 259.509 301.2 276.379 281.545C293.393 261.73 315.724 245.528 339.262 235.926C355.723 229.993 400.895 211.892 464.968 171.882C474.471 165.981 485.383 164.89 496.529 168.74C515.968 175.454 534.188 196.513 544.077 223.697C553.59 249.074 563.906 278.591 565.891 307.771C567.991 338.611 560.533 365.95 543.092 391.359C534.755 404.273 517.794 420.104 494.058 437.137C471.451 453.357 444.397 469.509 415.823 483.847C386.314 498.651 357.635 510.253 332.884 517.395C330.992 517.941 329.127 518.458 327.294 518.95L327.298 518.949ZM474.845 168.427C471.574 169.304 468.408 170.684 465.391 172.556C455.14 178.957 434.235 191.663 409.405 204.824C383.337 218.646 359.838 229.358 339.551 236.666C316.143 246.216 293.919 262.337 276.989 282.061C260.234 301.581 250.48 322.435 249.527 340.783C249.259 346.096 248.914 352.013 248.551 358.281C246.22 398.166 243.029 452.785 250.622 499.472L250.626 499.519C251.147 511.673 257.629 519.519 269.893 522.841C283.809 526.61 305.518 524.465 332.67 516.627C357.376 509.497 386.005 497.917 415.472 483.132C444.008 468.814 471.028 452.683 493.603 436.489C517.26 419.517 534.145 403.758 542.438 390.92C559.78 365.659 567.19 338.48 565.106 307.83C563.128 278.756 552.834 249.303 543.34 223.981C533.529 197.01 515.498 176.137 496.278 169.499C488.914 166.954 481.651 166.612 474.855 168.433L474.845 168.427Z" fill="white"/>
<path d="M330.032 497.118C312.301 501.869 297.976 503.195 288.21 500.943C278.403 498.68 272.986 492.918 272.104 483.814C259.844 443.277 263.025 372.142 264.379 341.759C266.14 303.8 298.194 263.8 342.327 244.489C377.9 230.962 418.478 209.979 442.723 197.446C445.296 196.116 447.714 194.867 449.946 193.715C458.24 189.474 467.658 189.203 477.169 192.925C493.593 199.352 508.859 217.16 517.017 239.402C525.616 261.915 533.784 286.13 535.333 310.679C536.985 336.874 530.756 360.225 516.282 382.071C502.383 404.758 460.537 436.917 409.674 463.994C385.217 477.012 361.338 487.389 340.618 494.005C336.97 495.168 333.437 496.21 330.029 497.123L330.032 497.118ZM456.225 192.063C454.185 192.61 452.201 193.375 450.274 194.358C448.041 195.506 445.627 196.754 443.055 198.087C418.799 210.628 378.199 231.625 342.602 245.159C298.725 264.358 266.852 304.098 265.103 341.795C263.745 372.148 260.568 443.23 272.807 483.643L272.826 483.712C273.66 492.495 278.889 498.056 288.373 500.242C299.892 502.898 317.885 500.502 340.404 493.318C361.084 486.718 384.925 476.36 409.34 463.362C460.093 436.34 501.832 404.283 515.677 381.688C547.819 333.18 533.631 284.93 516.347 239.663C508.255 217.603 493.144 199.957 476.909 193.604C469.807 190.824 462.768 190.319 456.231 192.07L456.225 192.063Z" fill="white"/>
<path d="M333.209 475.666C322.371 478.57 313.335 479.608 306.783 478.544C299.728 477.394 295.56 473.871 294.396 468.073C287.925 457.88 283.491 438.731 281.209 411.157C279.548 391.066 279.119 366.143 280.038 342.775C281.567 305.276 306 271.737 345.398 253.055C359.427 247.328 373.949 241.071 387.995 235.02C406.161 227.195 423.32 219.808 434.928 215.547C444.711 212.001 455.9 214.399 466.434 222.297C476.421 229.783 484.991 241.739 489.961 255.102C501.893 285.534 504.146 302.34 504.778 313.583C505.988 335.122 500.98 354.488 489.475 372.779C478.082 392.753 445.179 420.138 403.605 444.233C377.049 459.625 352.325 470.548 333.21 475.67L333.209 475.666ZM437.274 215.485C436.56 215.677 435.853 215.9 435.151 216.154C423.558 220.406 406.411 227.789 388.253 235.613C374.204 241.665 359.676 247.919 345.659 253.642C306.5 272.212 282.201 305.543 280.684 342.796C279.768 366.142 280.193 391.036 281.852 411.101C284.127 438.617 288.545 457.688 294.974 467.775L295.005 467.827L295.02 467.884C296.107 473.426 300.096 476.798 306.885 477.907C324.852 480.837 361.789 467.718 403.277 443.672C444.758 419.632 477.573 392.34 488.919 372.448C500.358 354.265 505.33 335.026 504.131 313.622C502.935 292.313 495.607 271.279 489.353 255.338C484.429 242.08 475.934 230.229 466.045 222.816C456.449 215.623 446.32 213.066 437.275 215.489L437.274 215.485Z" fill="white"/>
<path d="M337.297 454.937C332.815 456.138 328.922 456.744 325.762 456.696C321.141 456.619 318.1 455.168 316.724 452.376C306.933 448.301 301.782 426.944 299.182 409.717C296.252 390.286 294.946 365.641 295.685 343.783C296.345 324.973 300.835 309.249 309.415 295.706C318.178 281.877 330.948 270.728 348.457 261.613C375.416 249.468 403.462 239.96 419.919 237.384C427.94 236.164 436.875 239.175 445.075 245.856C452.744 252.108 459.24 261.2 462.89 270.803C473.175 295.991 482.442 329.283 462.657 363.483C453.848 380.615 429.676 403.399 398.003 424.409C374.857 439.766 352.637 450.827 337.293 454.938L337.297 454.937ZM405.971 241.039C389.884 245.349 368.989 252.989 348.711 262.124C331.308 271.181 318.611 282.267 309.903 296.008C301.377 309.462 296.913 325.093 296.26 343.797C294.872 384.649 300.404 445.19 317.042 451.884L317.144 451.926L317.193 452.026C318.442 454.67 321.33 456.046 325.772 456.118C339.647 456.344 367.876 443.708 397.692 423.926C429.287 402.967 453.391 380.267 462.162 363.201C481.828 329.205 472.6 296.072 462.364 271.005L462.362 270.996C458.744 261.484 452.31 252.475 444.714 246.286C436.64 239.705 427.866 236.742 420.006 237.935C415.965 238.568 411.222 239.623 405.969 241.031L405.971 241.039Z" fill="white"/>
<path d="M343.853 436.183C341.919 436.701 340.347 436.858 339.204 436.615C336.103 437.948 333.135 437.675 330.382 435.818C322.326 430.383 317.702 412.69 315.239 398.799C312.309 382.274 310.859 362.083 311.353 344.788C311.923 325.223 314.727 311.542 320.447 300.423C326.545 288.566 336.428 278.952 351.542 270.167C369.046 261.049 390.006 256.755 404.946 259.226C418.353 261.501 431.185 274.876 435.843 286.493C446.273 310.284 446.278 333.059 435.862 354.176C432.164 362.665 425.437 372.286 415.881 382.764C407.604 391.836 397.414 401.278 386.401 410.066C369.163 423.827 352.726 433.796 343.855 436.173L343.853 436.183ZM339.153 436.102L339.231 436.119C340.33 436.374 341.856 436.225 343.742 435.719C363.269 430.487 421.085 386.844 435.407 353.978C445.76 332.985 445.751 310.354 435.379 286.699L435.377 286.691C430.77 275.199 418.093 261.969 404.854 259.722C390.014 257.268 369.173 261.542 351.768 270.608C336.748 279.337 326.928 288.883 320.873 300.655C315.19 311.704 312.403 325.32 311.834 344.806C311.34 362.071 312.793 382.222 315.716 398.719C318.162 412.515 322.738 430.078 330.646 435.414C333.272 437.184 336.107 437.428 339.07 436.132L339.144 436.1L339.153 436.102Z" fill="white"/>
<path d="M353.59 426.126C351.655 426.644 349.77 426.536 347.942 425.789C343.361 423.924 336.846 417.034 331.803 394.823C328.423 379.931 326.626 361.611 326.993 345.811C327.425 327.14 327.943 315.083 331.449 305.167C335.074 294.907 341.778 287.251 354.596 278.748C361.658 274.062 369.187 272.715 376.966 274.743C393.789 279.135 406.514 297.814 408.763 302.201C412.964 310.399 414.118 320.455 412.19 332.094C410.529 342.113 406.596 353.325 400.495 365.428C389.469 387.302 373.153 408.331 361.562 420.716C358.833 423.631 356.167 425.44 353.591 426.13L353.59 426.126ZM363.47 275.108C360.523 275.897 357.641 277.223 354.826 279.093C342.094 287.542 335.434 295.134 331.84 305.304C328.359 315.166 327.841 327.188 327.411 345.82C326.742 374.626 333.723 419.545 348.099 425.405C352.181 427.07 356.605 425.396 361.252 420.432C372.823 408.069 389.11 387.078 400.116 365.24C406.197 353.176 410.119 342.002 411.769 332.025C413.682 320.477 412.543 310.508 408.386 302.393C406.155 298.04 393.527 279.499 376.855 275.149C372.29 273.96 367.812 273.949 363.463 275.114L363.47 275.108Z" fill="white"/>
</g>
<g filter="url(#filter0_ddddii_1_218)">
<path d="M407.535 554.353C341.674 554.353 312.075 425.903 300.574 353.016C296.506 327.214 317.59 304.017 345.155 304.017H469.915C497.48 304.017 518.565 327.214 514.497 353.016C503.009 425.89 473.41 554.353 407.535 554.353Z" fill="#B6ED3E"/>
<path d="M407.535 553.353C391.432 553.353 377.481 545.511 365.388 532.464C353.286 519.406 343.107 501.193 334.593 480.635C317.569 439.522 307.309 389.281 301.562 352.861C297.599 327.727 318.141 305.017 345.155 305.017H469.915C496.93 305.017 517.472 327.727 513.509 352.861L514.497 353.016L513.509 352.861C507.769 389.274 497.511 439.515 480.487 480.63C471.974 501.189 461.794 519.403 449.69 532.462C437.596 545.51 423.642 553.353 407.535 553.353Z" stroke="#B6ED3E" stroke-width="2"/>
</g>
<path d="M461.188 436.331H353.855C338.734 436.331 326.464 424.074 326.464 408.971C325.472 387.119 324.729 359.511 353.855 358.397H461.188C476.308 358.397 488.578 370.654 488.578 385.758C489.57 407.609 490.314 435.217 461.188 436.331Z" fill="url(#paint0_linear_1_218)"/>
<path d="M460.929 358.095H353.732C331.596 358.095 323.921 378.959 326.376 397.651C326.376 382.795 338.631 370.739 353.732 370.739H460.929C476.03 370.739 488.285 382.795 488.285 397.651C490.74 378.959 483.065 358.095 460.929 358.095Z" fill="#B6ED3E"/>
<path style="mix-blend-mode:multiply" d="M498.028 320.742C500.075 356.404 311.709 356.404 313.783 320.742C311.735 285.081 500.101 285.094 498.028 320.742Z" fill="url(#paint1_radial_1_218)"/>
<path d="M501.973 218.269C501.918 242.798 490.17 261.179 472.515 273.465C454.83 285.771 431.21 291.956 407.535 291.955C383.861 291.954 360.243 285.768 342.561 273.461C324.909 261.175 313.166 242.795 313.117 218.27C313.172 193.741 324.921 175.36 342.576 163.074C360.261 150.768 383.881 144.583 407.555 144.584C431.229 144.585 454.848 150.771 472.529 163.078C490.181 175.364 501.924 193.744 501.973 218.269Z" fill="url(#paint2_linear_1_218)" stroke="#B6ED3E" stroke-width="2"/>
<path d="M360.206 175.457C342.955 175.457 328.977 189.42 328.977 206.651C335.327 298.385 479.802 298.28 486.1 206.651C486.1 189.42 472.122 175.457 454.871 175.457H360.206Z" fill="#032F35"/>
<path d="M451.126 231.321H363.959C351.572 231.321 341.531 221.292 341.531 208.918C341.531 196.545 351.572 186.516 363.959 186.516H451.126C463.514 186.516 473.554 196.545 473.554 208.918C473.554 221.292 463.514 231.321 451.126 231.321Z" fill="#B6ED3E"/>
<path d="M414.772 252.472C407.991 251.938 391.94 255.52 392.174 244.345C392.174 242.743 393.465 241.453 395.069 241.453H420.013C421.617 241.453 422.908 242.743 422.908 244.345C422.908 248.838 419.27 252.472 414.772 252.472Z" fill="#B6ED3E"/>
<path d="M383.407 216.954H367.212C362.179 217.045 363.326 210.416 363.248 207.211C363.248 205.023 365.021 203.252 367.212 203.252H383.407C388.44 203.161 387.293 209.79 387.371 212.994C387.371 215.183 385.597 216.954 383.407 216.954Z" fill="#032F35"/>
<path d="M447.878 216.954H431.696C426.663 217.045 427.811 210.416 427.732 207.211C427.732 205.023 429.506 203.252 431.696 203.252H447.878C452.911 203.161 451.764 209.79 451.842 212.994C451.842 215.183 450.069 216.954 447.878 216.954Z" fill="#032F35"/>
<defs>
<filter id="filter0_ddddii_1_218" x="17.0965" y="21.0436" width="828.04" height="863.446" filterUnits="userSpaceOnUse" color-interpolation-filters="sRGB">
<feFlood flood-opacity="0" result="BackgroundImageFix"/>
<feColorMatrix in="SourceAlpha" type="matrix" values="0 0 0 0 0 0 0 0 0 0 0 0 0 0 0 0 0 0 127 0" result="hardAlpha"/>
<feOffset dx="94.3246" dy="94.3246"/>
<feGaussianBlur stdDeviation="117.906"/>
<feColorMatrix type="matrix" values="0 0 0 0 0.576471 0 0 0 0 0.709804 0 0 0 0 0.145098 0 0 0 0.9 0"/>
<feBlend mode="normal" in2="BackgroundImageFix" result="effect1_dropShadow_1_218"/>
<feColorMatrix in="SourceAlpha" type="matrix" values="0 0 0 0 0 0 0 0 0 0 0 0 0 0 0 0 0 0 127 0" result="hardAlpha"/>
<feOffset dx="-94.3246" dy="-94.3246"/>
<feGaussianBlur stdDeviation="94.3246"/>
<feColorMatrix type="matrix" values="0 0 0 0 0.976471 0 0 0 0 1 0 0 0 0 0.247059 0 0 0 0.9 0"/>
<feBlend mode="normal" in2="effect1_dropShadow_1_218" result="effect2_dropShadow_1_218"/>
<feColorMatrix in="SourceAlpha" type="matrix" values="0 0 0 0 0 0 0 0 0 0 0 0 0 0 0 0 0 0 127 0" result="hardAlpha"/>
<feOffset dx="94.3246" dy="-94.3246"/>
<feGaussianBlur stdDeviation="94.3246"/>
<feColorMatrix type="matrix" values="0 0 0 0 0.576471 0 0 0 0 0.709804 0 0 0 0 0.145098 0 0 0 0.2 0"/>
<feBlend mode="normal" in2="effect2_dropShadow_1_218" result="effect3_dropShadow_1_218"/>
<feColorMatrix in="SourceAlpha" type="matrix" values="0 0 0 0 0 0 0 0 0 0 0 0 0 0 0 0 0 0 127 0" result="hardAlpha"/>
<feOffset dx="-94.3246" dy="94.3246"/>
<feGaussianBlur stdDeviation="94.3246"/>
<feColorMatrix type="matrix" values="0 0 0 0 0.576471 0 0 0 0 0.709804 0 0 0 0 0.145098 0 0 0 0.2 0"/>
<feBlend mode="normal" in2="effect3_dropShadow_1_218" result="effect4_dropShadow_1_218"/>
<feBlend mode="normal" in="SourceGraphic" in2="effect4_dropShadow_1_218" result="shape"/>
<feColorMatrix in="SourceAlpha" type="matrix" values="0 0 0 0 0 0 0 0 0 0 0 0 0 0 0 0 0 0 127 0" result="hardAlpha"/>
<feOffset dx="-3.04273" dy="-3.04273"/>
<feGaussianBlur stdDeviation="2.28205"/>
<feComposite in2="hardAlpha" operator="arithmetic" k2="-1" k3="1"/>
<feColorMatrix type="matrix" values="0 0 0 0 0.576471 0 0 0 0 0.709804 0 0 0 0 0.145098 0 0 0 0.5 0"/>
<feBlend mode="normal" in2="shape" result="effect5_innerShadow_1_218"/>
<feColorMatrix in="SourceAlpha" type="matrix" values="0 0 0 0 0 0 0 0 0 0 0 0 0 0 0 0 0 0 127 0" result="hardAlpha"/>
<feOffset dx="3.04273" dy="3.04273"/>
<feGaussianBlur stdDeviation="2.28205"/>
<feComposite in2="hardAlpha" operator="arithmetic" k2="-1" k3="1"/>
<feColorMatrix type="matrix" values="0 0 0 0 0.976471 0 0 0 0 1 0 0 0 0 0.247059 0 0 0 0.3 0"/>
<feBlend mode="normal" in2="effect5_innerShadow_1_218" result="effect6_innerShadow_1_218"/>
</filter>
<linearGradient id="paint0_linear_1_218" x1="407.521" y1="358.397" x2="407.521" y2="436.331" gradientUnits="userSpaceOnUse">
<stop stop-color="#032F35"/>
<stop offset="1" stop-color="#032F35" stop-opacity="0"/>
</linearGradient>
<radialGradient id="paint1_radial_1_218" cx="0" cy="0" r="1" gradientUnits="userSpaceOnUse" gradientTransform="translate(405.146 319.934) scale(85.8864 26.2782)">
<stop stop-color="#10664F"/>
<stop offset="0.36" stop-color="#10664F"/>
<stop offset="1" stop-color="#F1F2EE"/>
</radialGradient>
<linearGradient id="paint2_linear_1_218" x1="407.545" y1="143.584" x2="407.545" y2="292.955" gradientUnits="userSpaceOnUse">
<stop stop-color="#B6ED3E"/>
<stop offset="1" stop-color="#B6ED3E" stop-opacity="0"/>
</linearGradient>
</defs>
</svg>
