<svg width="390" height="712" viewBox="0 0 390 712" fill="none" xmlns="http://www.w3.org/2000/svg">
<path d="M35.1669 292.46C91.8382 129.976 170.806 117.191 266.193 159.077C336.243 189.838 372.532 252.692 364.146 328.737C352.728 432.288 203.24 462.12 133.12 462.12C63.0002 462.12 -21.5045 454.945 35.1669 292.46Z" fill="#10664F"/>
<g opacity="0.3">
<path d="M144.89 419.327C140.622 420.47 136.477 421.476 132.476 422.336C110.511 427.061 93.5978 427.355 82.2074 423.208C70.554 418.968 65.0133 410.12 65.7372 396.91C67.9371 356.808 73.6661 330.783 77.457 313.564C79.1633 305.813 80.5111 299.69 80.8952 295.059C81.5332 287.352 89.876 275.112 102.666 263.114C116.431 250.203 132.242 240.382 146.048 236.168C165.089 230.357 184.488 219.233 197.407 210.925C212.457 201.246 227.623 189.61 237.975 179.799C244.657 173.465 252.625 171.176 261.014 173.178C275.541 176.645 289.453 192.503 297.321 214.56C301.049 225.015 304.906 235.827 307.964 246.437C311.347 258.168 313.358 268.385 314.114 277.671C315.016 288.759 314.201 298.848 311.623 308.512C308.745 319.302 303.748 329.33 296.349 339.171C283.712 355.979 243.154 381.275 197.723 400.688C179.137 408.628 161.123 414.975 144.889 419.325L144.89 419.327ZM249.382 173.731C245.436 174.789 241.707 176.942 238.314 180.158C227.94 189.99 212.748 201.646 197.674 211.34C184.729 219.664 165.288 230.813 146.192 236.641C132.457 240.833 116.714 250.613 103.002 263.475C90.2976 275.393 82.0141 287.512 81.3856 295.103C80.999 299.768 79.6478 305.904 77.9378 313.672C74.1499 330.878 68.4275 356.877 66.229 396.94C65.5181 409.907 70.9503 418.59 82.3764 422.749C93.6779 426.861 110.499 426.562 132.373 421.858C151.557 417.732 174.087 410.256 197.529 400.239C242.891 380.857 283.365 355.625 295.956 338.879C303.317 329.089 308.286 319.117 311.148 308.388C313.712 298.779 314.523 288.746 313.625 277.714C311.942 257.018 304.273 235.519 296.858 214.728C289.047 192.825 275.269 177.088 260.901 173.66C256.934 172.712 253.063 172.747 249.383 173.733L249.382 173.731Z" fill="white"/>
<path d="M145.389 410.625C142.013 411.53 138.725 412.338 135.536 413.045C115.421 417.503 99.9375 417.884 89.5119 414.176C78.9735 410.427 73.9145 402.535 74.475 390.718C75.9054 355.012 80.7607 330.27 83.9726 313.899C85.4806 306.214 86.671 300.143 87.0343 295.46C87.6241 287.89 95.2688 276.207 106.985 264.968C119.531 252.934 134.207 243.662 147.248 239.53C164.789 234.083 182.686 223.952 194.61 216.414C208.618 207.557 222.273 197.336 232.074 188.368C238.26 182.71 245.604 180.731 253.316 182.643C266.702 185.961 279.495 200.552 286.702 220.725C293.52 239.751 300.571 259.425 302.123 278.814C302.941 289.027 302.186 298.328 299.817 307.247C297.175 317.196 292.597 326.448 285.828 335.53C274.255 351.159 237.039 374.718 195.326 392.82C177.726 400.457 160.671 406.532 145.388 410.627L145.389 410.625ZM242.275 183.107C238.759 184.049 235.431 185.925 232.387 188.709C222.568 197.693 208.889 207.934 194.858 216.804C182.91 224.357 164.976 234.508 147.389 239.971C134.413 244.082 119.803 253.314 107.307 265.301C95.6689 276.464 88.0788 288.034 87.4971 295.496C87.1327 300.206 85.9385 306.288 84.4291 313.987C81.219 330.346 76.3693 355.064 74.9404 390.737C74.3908 402.329 79.3458 410.068 89.6702 413.74C100.011 417.418 115.41 417.031 135.438 412.592C153.039 408.692 173.685 401.706 195.146 392.393C236.792 374.321 273.929 350.824 285.459 335.252C292.196 326.218 296.747 317.018 299.374 307.127C301.73 298.259 302.479 289.01 301.665 278.849C300.118 259.519 293.078 239.874 286.269 220.877C279.113 200.848 266.445 186.369 253.206 183.088C249.443 182.155 245.766 182.17 242.274 183.106L242.275 183.107Z" fill="white"/>
<path d="M145.922 401.932C143.422 402.601 140.979 403.21 138.594 403.758C120.331 407.951 106.274 408.417 96.8167 405.148C87.3932 401.891 82.817 394.951 83.2165 384.523C83.8887 352.983 87.7428 330.404 90.5574 313.92C91.8349 306.438 92.8426 300.529 93.1782 295.857C93.7282 288.309 100.506 277.454 111.31 266.817C122.642 255.66 136.181 246.939 148.454 242.888C177.527 233.677 210.862 210.36 226.176 196.935C231.866 191.953 238.59 190.282 245.626 192.104C257.87 195.273 269.542 208.601 276.088 226.885C282.01 243.315 288.72 261.939 290.136 279.953C290.869 289.291 290.177 297.804 288.017 305.978C285.61 315.087 281.454 323.56 275.311 331.884C270.038 339.135 259.156 348.146 243.843 357.941C229.135 367.35 211.053 376.942 192.933 384.951C176.328 392.29 160.239 398.096 145.924 401.931L145.922 401.932ZM235.156 192.478C232.075 193.304 229.15 194.903 226.46 197.259C211.12 210.708 177.72 234.068 148.586 243.299C136.376 247.329 122.898 256.013 111.611 267.125C100.882 277.689 94.1509 288.442 93.6076 295.888C93.2707 300.581 92.2604 306.499 90.9811 313.993C88.1699 330.465 84.3194 353.026 83.6464 384.536C83.2554 394.756 87.7336 401.552 96.9571 404.74C106.338 407.983 120.313 407.511 138.497 403.336C154.513 399.659 173.277 393.165 192.755 384.556C210.858 376.555 228.917 366.974 243.608 357.577C258.874 347.811 269.716 338.839 274.959 331.628C281.071 323.349 285.204 314.922 287.595 305.869C289.743 297.742 290.432 289.276 289.702 279.988C288.292 262.031 281.591 243.436 275.678 227.032C269.179 208.881 257.621 195.657 245.514 192.522C241.947 191.598 238.461 191.592 235.154 192.478L235.156 192.478Z" fill="white"/>
<path d="M146.497 393.249C144.851 393.69 143.236 394.101 141.647 394.481C125.234 398.407 112.607 398.962 104.116 396.131C95.8092 393.36 91.7187 387.371 91.9571 378.331C91.8679 350.667 94.9546 329.14 97.2091 313.423C98.1805 306.65 99.0193 300.801 99.3208 296.255C99.8233 288.841 105.921 278.527 115.631 268.669C125.757 258.389 138.159 250.216 149.657 246.247C161.158 242.516 174.769 235.995 189.023 227.388C200.463 220.48 211.855 212.502 220.279 205.502C225.471 201.192 231.579 199.831 237.941 201.567C249.04 204.593 259.588 216.656 265.471 233.048C271.709 250.235 276.967 265.715 278.147 281.096C278.797 289.559 278.164 297.285 276.213 304.714C274.043 312.981 270.307 320.679 264.792 328.244C260.02 334.946 250.197 343.253 236.385 352.266C223.17 360.888 206.886 369.706 190.53 377.097C174.935 384.143 159.825 389.683 146.495 393.254L146.497 393.249ZM228.025 201.84C225.381 202.548 222.865 203.875 220.535 205.81C212.097 212.823 200.687 220.814 189.23 227.731C174.95 236.354 161.311 242.889 149.785 246.627C138.347 250.576 126.002 258.712 115.918 268.95C106.274 278.741 100.219 288.96 99.7235 296.281C99.421 300.843 98.5807 306.699 97.6078 313.479C95.3551 329.184 92.2705 350.693 92.3605 378.335C92.127 387.184 96.1246 393.041 104.244 395.748C112.665 398.556 125.217 397.997 141.556 394.089C155.991 390.634 172.87 384.632 190.368 376.725C206.706 369.342 222.971 360.536 236.167 351.924C249.938 342.939 259.723 334.668 264.467 328.003C269.954 320.478 273.668 312.825 275.827 304.607C277.765 297.222 278.394 289.539 277.749 281.123C276.572 265.794 271.323 250.342 265.096 233.18C259.256 216.909 248.811 204.943 237.837 201.951C234.461 201.03 231.155 200.999 228.028 201.837L228.025 201.84Z" fill="white"/>
<path d="M147.123 384.586C146.304 384.806 145.494 385.016 144.691 385.218C130.129 388.879 118.93 389.521 111.405 387.126C104.216 384.839 100.611 379.797 100.695 372.138C99.8052 347.987 102.183 327.225 103.92 312.066C104.609 306.056 105.204 300.864 105.46 296.654C105.923 289.257 111.205 279.732 119.95 270.521C128.88 261.117 140.144 253.494 150.858 249.609C172.243 242.472 198.775 226.183 214.378 214.069C219.078 210.428 224.571 209.376 230.263 211.029C240.211 213.918 249.634 224.714 254.854 239.207C260.212 253.852 265.108 268.162 266.157 282.234C266.722 289.82 266.15 296.759 264.409 303.444C262.475 310.87 259.159 317.788 254.273 324.596C250.003 330.75 241.237 338.357 228.925 346.589C217.205 354.426 202.716 362.471 188.127 369.244C173.556 376.007 159.442 381.285 147.124 384.588L147.123 384.586ZM220.872 211.192C218.673 211.781 216.57 212.84 214.607 214.36C198.98 226.493 172.403 242.809 150.982 249.957C140.325 253.822 129.113 261.411 120.222 270.776C111.535 279.925 106.292 289.365 105.834 296.676C105.577 300.895 104.982 306.091 104.293 312.107C102.556 327.254 100.181 348 101.069 372.133C100.988 379.618 104.504 384.539 111.52 386.772C118.979 389.145 130.109 388.5 144.603 384.856C157.455 381.621 172.454 376.109 187.971 368.904C202.542 362.14 217.014 354.105 228.719 346.278C240.994 338.071 249.725 330.499 253.97 324.38C258.833 317.61 262.129 310.731 264.052 303.35C265.783 296.705 266.35 289.806 265.789 282.261C264.744 268.235 259.855 253.952 254.507 239.334C249.327 224.951 240 214.242 230.163 211.387C226.967 210.458 223.834 210.402 220.875 211.195L220.872 211.192Z" fill="white"/>
<path d="M147.821 375.947L147.731 375.971C135.02 379.369 125.249 380.099 118.69 378.142C112.617 376.332 109.504 372.228 109.437 365.945C107.635 344.893 109.386 324.325 110.665 309.307C111.065 304.604 111.411 300.543 111.605 297.05C112.021 289.776 116.64 280.78 124.274 272.371C132.018 263.84 142.147 256.766 152.064 252.966C161.278 249.784 171.83 244.87 183.434 238.361C192.162 233.464 201.291 227.731 208.482 222.632C212.693 219.656 217.576 218.916 222.605 220.493C231.399 223.251 239.688 232.781 244.239 245.367C248.762 257.598 253.254 270.609 254.169 283.372C254.65 290.084 254.14 296.233 252.608 302.176C250.91 308.761 248.014 314.903 243.754 320.951C236.284 332.067 212.959 348.326 185.717 361.407C172.196 367.901 159.095 372.926 147.821 375.947ZM213.687 220.53C211.939 220.998 210.259 221.794 208.678 222.912C201.478 228.017 192.336 233.758 183.599 238.659C171.979 245.178 161.407 250.099 152.179 253.286C142.316 257.067 132.235 264.106 124.526 272.6C116.943 280.953 112.357 289.873 111.944 297.07C111.75 300.566 111.405 304.63 111.003 309.335C109.725 324.341 107.976 344.892 109.776 365.927C109.843 372.056 112.874 376.05 118.787 377.813C125.284 379.75 134.993 379.02 147.642 375.639L147.732 375.615C158.985 372.6 172.064 367.582 185.567 361.096C212.759 348.039 236.027 331.826 243.471 320.754C247.708 314.737 250.587 308.632 252.275 302.087C253.797 296.183 254.304 290.068 253.827 283.395C252.915 270.676 248.431 257.692 243.916 245.482C239.4 232.994 231.195 223.543 222.501 220.818C219.471 219.867 216.492 219.777 213.689 220.527L213.687 220.53Z" fill="white"/>
<path d="M148.573 367.364C138.776 369.989 131.178 370.605 125.967 369.193C121.013 367.85 118.392 364.679 118.177 359.764C115.195 341.416 116.448 319.972 117.363 304.312C117.506 301.854 117.641 299.534 117.747 297.45C118.124 290.182 121.977 281.935 128.596 274.223C135.271 266.449 144.032 260.093 153.267 256.325C159.725 253.998 177.447 246.896 202.585 231.199C206.313 228.884 210.594 228.456 214.967 229.966C222.594 232.6 229.742 240.862 233.622 251.527C237.354 261.484 241.401 273.064 242.18 284.512C243.004 296.612 240.078 307.338 233.235 317.306C229.964 322.373 223.31 328.584 213.998 335.266C205.128 341.63 194.514 347.967 183.304 353.592C171.727 359.4 160.475 363.952 150.765 366.754C150.022 366.969 149.29 367.171 148.571 367.364L148.573 367.364ZM206.46 229.844C205.177 230.187 203.935 230.729 202.751 231.463C198.729 233.975 190.527 238.96 180.786 244.123C170.559 249.546 161.339 253.748 153.38 256.616C144.196 260.362 135.477 266.687 128.835 274.425C122.262 282.084 118.435 290.265 118.061 297.464C117.956 299.548 117.82 301.87 117.678 304.329C116.763 319.977 115.511 341.406 118.49 359.723L118.492 359.741C118.697 364.509 121.24 367.588 126.051 368.891C131.511 370.37 140.028 369.528 150.68 366.453C160.373 363.656 171.605 359.112 183.166 353.312C194.362 347.694 204.962 341.366 213.82 335.012C223.101 328.354 229.725 322.171 232.979 317.134C239.783 307.224 242.69 296.56 241.872 284.536C241.096 273.129 237.057 261.573 233.333 251.639C229.484 241.057 222.409 232.868 214.869 230.264C211.98 229.265 209.13 229.131 206.464 229.846L206.46 229.844Z" fill="white"/>
<path d="M149.645 358.799C142.689 360.663 137.069 361.183 133.237 360.299C129.39 359.411 127.264 357.151 126.918 353.579C122.109 337.675 123.356 309.767 123.888 297.847C124.578 282.954 137.154 267.261 154.469 259.685C168.425 254.377 184.345 246.145 193.857 241.228C194.867 240.706 195.816 240.216 196.691 239.765C199.945 238.1 203.64 237.994 207.371 239.455C213.815 241.976 219.805 248.963 223.005 257.689C226.379 266.521 229.583 276.022 230.191 285.653C230.839 295.93 228.395 305.092 222.717 313.662C217.264 322.563 200.846 335.18 180.891 345.803C171.296 350.911 161.927 354.982 153.799 357.577C152.367 358.034 150.981 358.443 149.644 358.801L149.645 358.799ZM199.154 239.116C198.354 239.331 197.576 239.631 196.82 240.017C195.944 240.467 194.997 240.957 193.987 241.48C184.471 246.4 168.543 254.638 154.577 259.948C137.362 267.48 124.858 283.071 124.172 297.861C123.639 309.769 122.392 337.657 127.194 353.512L127.201 353.539C127.529 356.985 129.58 359.167 133.301 360.024C137.82 361.066 144.88 360.127 153.715 357.308C161.828 354.718 171.182 350.655 180.76 345.555C200.672 334.954 217.048 322.377 222.479 313.512C235.09 294.481 229.523 275.551 222.742 257.791C219.568 249.136 213.639 242.213 207.27 239.721C204.483 238.63 201.722 238.432 199.157 239.119L199.154 239.116Z" fill="white"/>
<path d="M150.892 350.383C146.64 351.522 143.095 351.929 140.524 351.512C137.756 351.061 136.121 349.678 135.664 347.404C133.126 343.405 131.386 335.892 130.491 325.074C129.839 317.191 129.671 307.413 130.031 298.245C130.631 283.533 140.217 270.375 155.674 263.045C161.178 260.799 166.876 258.344 172.386 255.97C179.513 252.9 186.245 250.002 190.8 248.33C194.638 246.939 199.028 247.88 203.16 250.978C207.078 253.915 210.441 258.606 212.391 263.848C217.072 275.788 217.956 282.382 218.204 286.792C218.679 295.243 216.714 302.841 212.2 310.017C207.73 317.853 194.821 328.597 178.511 338.05C168.092 344.089 158.392 348.375 150.892 350.384L150.892 350.383ZM191.72 248.306C191.44 248.381 191.163 248.469 190.887 248.568C186.339 250.236 179.612 253.133 172.488 256.202C166.976 258.577 161.276 261.03 155.777 263.276C140.413 270.562 130.88 283.638 130.285 298.254C129.926 307.413 130.092 317.18 130.743 325.052C131.636 335.847 133.369 343.329 135.891 347.287L135.904 347.307L135.909 347.329C136.336 349.504 137.901 350.827 140.564 351.262C147.613 352.412 162.105 347.265 178.382 337.83C194.656 328.399 207.531 317.691 211.982 309.887C216.47 302.753 218.421 295.205 217.95 286.808C217.481 278.447 214.606 270.196 212.152 263.941C210.22 258.74 206.888 254.09 203.008 251.182C199.243 248.36 195.269 247.356 191.72 248.307L191.72 248.306Z" fill="white"/>
<path d="M152.496 342.25C150.737 342.721 149.21 342.959 147.97 342.94C146.157 342.91 144.964 342.34 144.424 341.245C140.583 339.646 138.562 331.267 137.542 324.508C136.393 316.885 135.88 307.216 136.17 298.64C136.429 291.261 138.19 285.092 141.557 279.778C144.995 274.353 150.005 269.979 156.874 266.402C167.451 261.638 178.454 257.907 184.911 256.897C188.058 256.418 191.563 257.6 194.78 260.221C197.789 262.674 200.338 266.241 201.77 270.008C205.805 279.89 209.441 292.952 201.678 306.37C198.223 313.091 188.739 322.03 176.313 330.273C167.232 336.297 158.514 340.637 152.494 342.25L152.496 342.25ZM179.439 258.331C173.127 260.022 164.93 263.019 156.974 266.603C150.146 270.156 145.165 274.506 141.748 279.897C138.403 285.175 136.652 291.308 136.396 298.646C135.851 314.673 138.022 338.426 144.549 341.052L144.589 341.068L144.608 341.107C145.098 342.145 146.231 342.685 147.974 342.713C153.418 342.802 164.493 337.844 176.191 330.083C188.586 321.86 198.043 312.954 201.484 306.259C209.2 292.921 205.579 279.922 201.564 270.087L201.563 270.084C200.143 266.352 197.619 262.818 194.639 260.389C191.471 257.808 188.029 256.645 184.945 257.113C183.359 257.362 181.499 257.775 179.438 258.328L179.439 258.331Z" fill="white"/>
<path d="M155.068 334.891C154.309 335.094 153.692 335.156 153.244 335.061C152.027 335.583 150.863 335.476 149.783 334.748C146.622 332.616 144.808 325.674 143.842 320.224C142.692 313.741 142.123 305.82 142.317 299.034C142.541 291.358 143.641 285.991 145.885 281.628C148.277 276.976 152.155 273.204 158.084 269.758C164.952 266.18 173.175 264.496 179.037 265.465C184.297 266.358 189.331 271.605 191.158 276.163C195.25 285.497 195.252 294.432 191.166 302.717C189.715 306.048 187.076 309.822 183.327 313.933C180.079 317.492 176.082 321.197 171.761 324.645C164.998 330.043 158.549 333.955 155.069 334.887L155.068 334.891ZM153.224 334.859L153.255 334.866C153.686 334.966 154.285 334.907 155.024 334.709C162.686 332.656 185.368 315.534 190.987 302.639C195.049 294.403 195.046 285.525 190.976 276.244L190.976 276.241C189.168 271.732 184.195 266.542 179 265.66C173.178 264.697 165.002 266.374 158.173 269.931C152.28 273.356 148.428 277.101 146.052 281.719C143.823 286.054 142.729 291.396 142.506 299.041C142.312 305.815 142.882 313.721 144.029 320.193C144.988 325.606 146.784 332.496 149.887 334.589C150.917 335.284 152.029 335.379 153.192 334.871L153.22 334.858L153.224 334.859Z" fill="white"/>
<path d="M158.888 330.945C158.129 331.149 157.389 331.106 156.672 330.813C154.875 330.081 152.319 327.378 150.34 318.664C149.014 312.822 148.309 305.634 148.453 299.435C148.623 292.11 148.826 287.38 150.201 283.489C151.624 279.464 154.254 276.46 159.283 273.124C162.054 271.286 165.007 270.757 168.059 271.553C174.659 273.276 179.652 280.604 180.534 282.326C182.182 285.542 182.635 289.487 181.879 294.053C181.227 297.984 179.684 302.383 177.29 307.132C172.965 315.713 166.563 323.964 162.016 328.823C160.945 329.966 159.899 330.676 158.888 330.947L158.888 330.945ZM162.765 271.696C161.608 272.006 160.477 272.526 159.373 273.26C154.378 276.575 151.765 279.553 150.355 283.543C148.989 287.412 148.786 292.129 148.617 299.439C148.355 310.74 151.094 328.363 156.734 330.662C158.335 331.316 160.071 330.659 161.894 328.711C166.434 323.861 172.824 315.625 177.142 307.058C179.527 302.325 181.066 297.941 181.714 294.026C182.464 289.496 182.017 285.585 180.386 282.401C179.511 280.693 174.557 273.419 168.016 271.712C166.225 271.246 164.468 271.241 162.762 271.698L162.765 271.696Z" fill="white"/>
</g>
<g filter="url(#filter0_ddddii_246_991)">
<path d="M180.052 381.253C154.213 381.253 142.6 330.858 138.088 302.263C136.492 292.14 144.764 283.039 155.579 283.039H204.526C215.341 283.039 223.613 292.14 222.017 302.263C217.51 330.853 205.897 381.253 180.052 381.253Z" fill="#B6ED3E"/>
<path d="M180.052 380.253C173.954 380.253 168.631 377.29 163.963 372.253C159.283 367.204 155.323 360.133 151.997 352.099C145.345 336.036 141.329 316.382 139.076 302.107C137.585 292.653 145.315 284.039 155.579 284.039H204.526C214.79 284.039 222.52 292.653 221.029 302.107C218.779 316.379 214.764 336.034 208.112 352.097C204.786 360.131 200.825 367.203 196.145 372.252C191.476 377.29 186.152 380.253 180.052 380.253Z" stroke="#B6ED3E" stroke-width="2"/>
</g>
<path d="M201.102 334.951H158.992C153.06 334.951 148.246 330.142 148.246 324.216C147.857 315.644 147.565 304.812 158.992 304.375H201.102C207.034 304.375 211.848 309.184 211.848 315.109C212.237 323.682 212.529 334.514 201.102 334.951Z" fill="url(#paint0_linear_246_991)"/>
<path d="M201 304.256H158.944C150.259 304.256 147.248 312.441 148.211 319.774C148.211 313.946 153.019 309.216 158.944 309.216H201C206.925 309.216 211.733 313.946 211.733 319.774C212.696 312.441 209.685 304.256 201 304.256Z" fill="#B6ED3E"/>
<path style="mix-blend-mode:multiply" d="M215.555 289.601C216.359 303.592 142.457 303.592 143.27 289.601C142.467 275.61 216.369 275.615 215.555 289.601Z" fill="url(#paint1_radial_246_991)"/>
<path d="M216.496 249.397C216.474 258.796 211.984 265.832 205.199 270.553C198.384 275.295 189.246 277.699 180.053 277.699C170.86 277.698 161.722 275.294 154.908 270.552C148.125 265.83 143.636 258.795 143.617 249.397C143.639 239.998 148.129 232.963 154.914 228.241C161.729 223.499 170.867 221.095 180.06 221.096C189.253 221.096 198.391 223.5 205.205 228.243C211.988 232.964 216.477 239.999 216.496 249.397Z" fill="url(#paint2_linear_246_991)" stroke="#B6ED3E" stroke-width="2"/>
<path d="M161.484 232.6C154.715 232.6 149.231 238.078 149.231 244.838C151.723 280.828 208.405 280.787 210.876 244.838C210.876 238.078 205.392 232.6 198.624 232.6H161.484Z" fill="#032F35"/>
<path d="M197.155 254.518H162.956C158.096 254.518 154.157 250.583 154.157 245.729C154.157 240.874 158.096 236.939 162.956 236.939H197.155C202.015 236.939 205.954 240.874 205.954 245.729C205.954 250.583 202.015 254.518 197.155 254.518Z" fill="#B6ED3E"/>
<path d="M182.891 262.815C180.231 262.606 173.934 264.011 174.026 259.627C174.026 258.998 174.532 258.492 175.162 258.492H184.948C185.577 258.492 186.084 258.998 186.084 259.627C186.084 261.39 184.656 262.815 182.891 262.815Z" fill="#B6ED3E"/>
<path d="M170.586 248.882H164.233C162.258 248.918 162.708 246.317 162.678 245.06C162.678 244.201 163.373 243.506 164.233 243.506H170.586C172.561 243.47 172.111 246.071 172.142 247.329C172.142 248.187 171.446 248.882 170.586 248.882Z" fill="#032F35"/>
<path d="M195.881 248.882H189.532C187.557 248.918 188.008 246.317 187.977 245.06C187.977 244.201 188.673 243.506 189.532 243.506H195.881C197.855 243.47 197.405 246.071 197.436 247.329C197.436 248.187 196.74 248.882 195.881 248.882Z" fill="#032F35"/>
<defs>
<filter id="filter0_ddddii_246_991" x="-145.083" y="0.0652847" width="697.434" height="711.324" filterUnits="userSpaceOnUse" color-interpolation-filters="sRGB">
<feFlood flood-opacity="0" result="BackgroundImageFix"/>
<feColorMatrix in="SourceAlpha" type="matrix" values="0 0 0 0 0 0 0 0 0 0 0 0 0 0 0 0 0 0 127 0" result="hardAlpha"/>
<feOffset dx="94.3246" dy="94.3246"/>
<feGaussianBlur stdDeviation="117.906"/>
<feColorMatrix type="matrix" values="0 0 0 0 0.576471 0 0 0 0 0.709804 0 0 0 0 0.145098 0 0 0 0.9 0"/>
<feBlend mode="normal" in2="BackgroundImageFix" result="effect1_dropShadow_246_991"/>
<feColorMatrix in="SourceAlpha" type="matrix" values="0 0 0 0 0 0 0 0 0 0 0 0 0 0 0 0 0 0 127 0" result="hardAlpha"/>
<feOffset dx="-94.3246" dy="-94.3246"/>
<feGaussianBlur stdDeviation="94.3246"/>
<feColorMatrix type="matrix" values="0 0 0 0 0.976471 0 0 0 0 1 0 0 0 0 0.247059 0 0 0 0.9 0"/>
<feBlend mode="normal" in2="effect1_dropShadow_246_991" result="effect2_dropShadow_246_991"/>
<feColorMatrix in="SourceAlpha" type="matrix" values="0 0 0 0 0 0 0 0 0 0 0 0 0 0 0 0 0 0 127 0" result="hardAlpha"/>
<feOffset dx="94.3246" dy="-94.3246"/>
<feGaussianBlur stdDeviation="94.3246"/>
<feColorMatrix type="matrix" values="0 0 0 0 0.576471 0 0 0 0 0.709804 0 0 0 0 0.145098 0 0 0 0.2 0"/>
<feBlend mode="normal" in2="effect2_dropShadow_246_991" result="effect3_dropShadow_246_991"/>
<feColorMatrix in="SourceAlpha" type="matrix" values="0 0 0 0 0 0 0 0 0 0 0 0 0 0 0 0 0 0 127 0" result="hardAlpha"/>
<feOffset dx="-94.3246" dy="94.3246"/>
<feGaussianBlur stdDeviation="94.3246"/>
<feColorMatrix type="matrix" values="0 0 0 0 0.576471 0 0 0 0 0.709804 0 0 0 0 0.145098 0 0 0 0.2 0"/>
<feBlend mode="normal" in2="effect3_dropShadow_246_991" result="effect4_dropShadow_246_991"/>
<feBlend mode="normal" in="SourceGraphic" in2="effect4_dropShadow_246_991" result="shape"/>
<feColorMatrix in="SourceAlpha" type="matrix" values="0 0 0 0 0 0 0 0 0 0 0 0 0 0 0 0 0 0 127 0" result="hardAlpha"/>
<feOffset dx="-3.04273" dy="-3.04273"/>
<feGaussianBlur stdDeviation="2.28205"/>
<feComposite in2="hardAlpha" operator="arithmetic" k2="-1" k3="1"/>
<feColorMatrix type="matrix" values="0 0 0 0 0.576471 0 0 0 0 0.709804 0 0 0 0 0.145098 0 0 0 0.5 0"/>
<feBlend mode="normal" in2="shape" result="effect5_innerShadow_246_991"/>
<feColorMatrix in="SourceAlpha" type="matrix" values="0 0 0 0 0 0 0 0 0 0 0 0 0 0 0 0 0 0 127 0" result="hardAlpha"/>
<feOffset dx="3.04273" dy="3.04273"/>
<feGaussianBlur stdDeviation="2.28205"/>
<feComposite in2="hardAlpha" operator="arithmetic" k2="-1" k3="1"/>
<feColorMatrix type="matrix" values="0 0 0 0 0.976471 0 0 0 0 1 0 0 0 0 0.247059 0 0 0 0.3 0"/>
<feBlend mode="normal" in2="effect5_innerShadow_246_991" result="effect6_innerShadow_246_991"/>
</filter>
<linearGradient id="paint0_linear_246_991" x1="180.047" y1="304.375" x2="180.047" y2="334.951" gradientUnits="userSpaceOnUse">
<stop stop-color="#032F35"/>
<stop offset="1" stop-color="#032F35" stop-opacity="0"/>
</linearGradient>
<radialGradient id="paint1_radial_246_991" cx="0" cy="0" r="1" gradientUnits="userSpaceOnUse" gradientTransform="translate(179.115 289.284) scale(33.6959 10.3097)">
<stop stop-color="#10664F"/>
<stop offset="0.36" stop-color="#10664F"/>
<stop offset="1" stop-color="#F1F2EE"/>
</radialGradient>
<linearGradient id="paint2_linear_246_991" x1="180.057" y1="220.096" x2="180.057" y2="278.699" gradientUnits="userSpaceOnUse">
<stop stop-color="#B6ED3E"/>
<stop offset="1" stop-color="#B6ED3E" stop-opacity="0"/>
</linearGradient>
</defs>
</svg>
