<svg width="549" height="325" viewBox="0 0 549 325" fill="none" xmlns="http://www.w3.org/2000/svg">
<path d="M397.703 293.961H150.326V155.062C150.326 150.169 154.3 146.147 159.244 146.147H388.785C393.728 146.147 397.703 150.169 397.703 155.062V293.961Z" fill="url(#paint0_linear_1_493)"/>
<g style="mix-blend-mode:multiply" opacity="0.5">
<path d="M397.703 293.961H150.326V288.729H397.703V293.961Z" fill="#032F35"/>
</g>
<path d="M394.893 311.402H153.139C146.063 311.402 140.295 305.637 140.295 298.563V293.961H407.737V298.563C407.737 305.637 401.969 311.402 394.893 311.402Z" fill="url(#paint1_linear_1_493)"/>
<path d="M291.463 300.259H256.567C253.562 300.259 251.139 297.788 251.139 294.785V293.961H296.892V294.785C296.892 297.788 294.468 300.259 291.463 300.259Z" fill="#10664F"/>
<path d="M389.223 282.044H158.811V157.872H389.223V282.044Z" fill="url(#paint2_linear_1_493)"/>
<path d="M367.993 169.21C381.71 127.448 350.4 115.045 350.4 115.045C358.252 82.6823 327.96 75.0276 327.96 75.0276C324.712 64.6598 313.759 55.0188 298.928 54.7281C282.303 54.3405 274.016 67.1791 274.016 67.1791C274.016 67.1791 265.728 54.3405 249.103 54.7281C234.272 55.0188 223.319 64.6598 220.072 75.0276C220.072 75.0276 189.78 82.6823 197.631 115.045C197.631 115.045 166.322 127.448 180.038 169.21C180.038 169.21 168.551 189.267 174.27 207.387C180.425 226.862 194.19 234.42 194.19 234.42C194.19 234.42 195.305 253.702 216.63 258.257C235.63 262.326 253.223 253.412 256.907 239.992C256.907 239.992 268.248 239.992 274.016 232.822C279.783 239.992 291.124 239.992 291.124 239.992C294.808 253.412 312.402 262.326 331.401 258.257C352.726 253.702 353.841 234.42 353.841 234.42C353.841 234.42 367.606 226.862 373.761 207.387C379.48 189.267 367.993 169.21 367.993 169.21Z" fill="url(#paint3_linear_1_493)"/>
<path d="M367.995 169.21C381.712 127.448 350.402 115.045 350.402 115.045C358.254 82.6821 327.962 75.0274 327.962 75.0274C324.714 64.6596 313.761 55.0185 298.93 54.7278C282.305 54.3403 274.018 67.1789 274.018 67.1789V232.821C279.785 239.992 291.126 239.992 291.126 239.992C294.81 253.411 312.404 262.326 331.403 258.256C352.728 253.702 353.843 234.42 353.843 234.42C353.843 234.42 367.608 226.862 373.763 207.386C379.482 189.267 367.995 169.21 367.995 169.21Z" fill="#10664F"/>
<path d="M249.103 54.7281C234.272 55.0188 223.319 64.6598 220.072 75.0276C220.072 75.0276 189.78 82.6823 197.631 115.045C197.631 115.045 166.322 127.448 180.038 169.21C180.038 169.21 168.551 189.267 174.27 207.387C180.425 226.862 194.19 234.42 194.19 234.42C194.19 234.42 195.305 253.702 216.63 258.257C235.63 262.326 253.223 253.412 256.907 239.992C256.907 239.992 268.248 239.992 274.016 232.822V67.1791C274.016 67.1791 265.728 54.3405 249.103 54.7281Z" fill="#10664F"/>
<path d="M482.134 288.73C482.134 301.569 471.714 311.985 458.87 311.985C446.026 311.985 435.605 301.569 435.605 288.73C435.605 275.892 446.026 265.476 458.87 265.476C471.714 265.476 482.134 275.892 482.134 288.73Z" fill="url(#paint4_linear_1_493)"/>
<path d="M112.427 288.73C112.427 301.569 102.006 311.985 89.1627 311.985C76.3189 311.985 65.8984 301.569 65.8984 288.73C65.8984 275.892 76.3189 265.476 89.1627 265.476C102.006 265.476 112.427 275.892 112.427 288.73Z" fill="url(#paint5_linear_1_493)"/>
<path d="M466.43 285.192C466.43 289.359 463.037 292.75 458.869 292.75C454.653 292.75 451.26 289.359 451.26 285.192C451.26 280.977 454.653 277.586 458.869 277.586C463.037 277.586 466.43 280.977 466.43 285.192Z" stroke="#4A5151" stroke-width="1.45401" stroke-linecap="round" stroke-linejoin="round"/>
<path d="M467.108 292.653C468.901 290.666 469.967 288.05 469.967 285.192C469.967 279.039 465.023 274.049 458.868 274.049C452.713 274.049 447.721 279.039 447.721 285.192C447.721 288.05 448.835 290.666 450.629 292.653L458.868 303.36L467.108 292.653Z" stroke="#4A5151" stroke-width="1.45401" stroke-linecap="round" stroke-linejoin="round"/>
<path d="M458.869 303.359V292.749" stroke="#4A5151" stroke-width="1.45401" stroke-linecap="round" stroke-linejoin="round"/>
<path d="M458.529 277.586V274.049" stroke="#4A5151" stroke-width="1.45401" stroke-linecap="round" stroke-linejoin="round"/>
<path d="M233.015 203.414H112.913C99.8268 203.414 89.1641 214.073 89.1641 227.153V253.46" stroke="#D5D8D8" stroke-width="1.93869" stroke-linejoin="round"/>
<path d="M315.02 203.414H435.121C448.207 203.414 458.87 214.073 458.87 227.153V253.46" stroke="#D5D8D8" stroke-width="1.93869" stroke-linejoin="round"/>
<path d="M423.586 288.731C423.586 269.255 439.386 253.461 458.87 253.461C478.354 253.461 494.154 269.255 494.154 288.731C494.154 308.207 478.354 324.001 458.87 324.001" stroke="#D5D8D8" stroke-width="1.93869" stroke-linecap="round" stroke-linejoin="round"/>
<path d="M89.163 324.001C69.6792 324.001 53.8789 308.207 53.8789 288.731C53.8789 269.255 69.6792 253.461 89.163 253.461C108.647 253.461 124.447 269.255 124.447 288.731" stroke="#D5D8D8" stroke-width="1.93869" stroke-linecap="round" stroke-linejoin="round"/>
<path fill-rule="evenodd" clip-rule="evenodd" d="M102.348 290.279C103.027 290.667 103.705 291.103 103.705 291.103C103.705 291.103 103.657 291.345 103.608 291.636C103.56 291.975 103.414 292.411 103.318 292.847C103.221 293.283 103.027 293.671 102.93 294.01C102.865 294.171 102.817 294.284 102.784 294.349C102.752 294.446 102.736 294.494 102.736 294.494C102.736 294.494 101.912 294.543 101.088 294.446C100.749 294.446 100.41 294.397 100.167 294.397C100.167 294.397 100.151 294.397 100.119 294.397C100.022 294.688 99.8279 294.93 99.731 295.075C99.634 295.237 99.5856 295.334 99.5856 295.366C99.5856 295.366 99.5371 295.447 99.4402 295.608C99.3109 295.77 99.1494 295.98 98.9555 296.238C99.1009 296.48 99.2463 296.771 99.4402 297.11C99.7794 297.789 100.119 298.515 100.119 298.515C100.119 298.515 99.9733 298.709 99.731 298.951C99.5371 299.194 99.1979 299.484 98.8586 299.775C98.5193 300.066 98.18 300.308 97.8892 300.55C97.6469 300.744 97.453 300.841 97.453 300.841C97.453 300.841 96.7745 300.405 96.1444 299.969C95.8536 299.726 95.5628 299.533 95.3689 299.339C95.3689 299.339 95.3528 299.355 95.3205 299.387C95.0781 299.533 94.7873 299.63 94.6419 299.726C94.4481 299.823 94.3511 299.872 94.3511 299.872C94.3511 299.872 94.2703 299.92 94.1088 300.017C93.9149 300.066 93.6726 300.162 93.3333 300.259C93.3333 300.55 93.2849 300.889 93.2849 301.277C93.2364 302.052 93.091 302.827 93.091 302.827C93.091 302.827 92.8971 302.876 92.5579 302.972C92.2186 303.069 91.7824 303.118 91.3462 303.215C91.12 303.247 90.91 303.263 90.7161 303.263C90.4899 303.295 90.296 303.312 90.1345 303.312C89.7952 303.312 89.6014 303.36 89.6014 303.36C89.6014 303.36 89.2621 302.633 88.9713 301.858C88.8259 301.519 88.7289 301.228 88.632 300.938C88.2927 300.938 88.0019 300.938 87.8081 300.889C87.6142 300.857 87.5173 300.841 87.5173 300.841C87.5173 300.841 87.4203 300.825 87.2265 300.792C87.0326 300.744 86.7903 300.744 86.451 300.647C86.2571 300.841 86.0632 301.131 85.8694 301.422C85.627 301.761 85.3847 302.052 85.1908 302.294C84.997 302.536 84.8516 302.682 84.8516 302.682C84.8516 302.682 84.6577 302.585 84.3184 302.488C84.0276 302.343 83.5914 302.246 83.2037 302.004C82.8159 301.81 82.3797 301.664 82.0889 301.471C81.7981 301.325 81.6527 301.18 81.6527 301.18C81.6527 301.18 81.7497 300.405 81.8951 299.63C81.9435 299.29 82.0405 298.951 82.1374 298.661C82.1374 298.661 82.1213 298.661 82.0889 298.661C81.8304 298.467 81.6204 298.305 81.4589 298.176C81.3296 298.047 81.265 297.982 81.265 297.982C81.265 297.982 81.1842 297.918 81.0227 297.789C80.8773 297.643 80.6834 297.498 80.4411 297.207C80.1987 297.304 79.8595 297.449 79.5202 297.546C78.7932 297.837 78.0177 298.079 78.0177 298.079C78.0177 298.079 77.9854 298.031 77.9208 297.934C77.8561 297.869 77.7754 297.772 77.6784 297.643C77.4846 297.353 77.1938 297.013 76.9514 296.626C76.7575 296.238 76.5152 295.899 76.3214 295.56C76.1759 295.269 76.079 295.075 76.079 295.075C76.079 295.075 76.6121 294.446 77.1453 293.913C77.4361 293.671 77.6784 293.428 77.8723 293.234C77.8723 293.234 77.8723 293.218 77.8723 293.186C77.743 292.895 77.6461 292.653 77.5815 292.459C77.5492 292.362 77.533 292.298 77.533 292.266C77.533 292.201 77.533 292.169 77.533 292.169C77.533 292.169 77.3876 291.733 77.2422 291.103C76.9514 291.054 76.6122 290.957 76.2729 290.909C75.5459 290.715 74.7219 290.473 74.7219 290.473C74.7219 290.473 74.6735 290.279 74.6735 289.94C74.6735 289.601 74.6735 289.165 74.625 288.729C74.6735 288.293 74.6735 287.857 74.6735 287.518C74.6735 287.179 74.7219 286.936 74.7219 286.936C74.7219 286.936 75.5459 286.694 76.2729 286.549C76.6122 286.452 76.9514 286.403 77.2422 286.355C77.2422 286.355 77.2422 286.339 77.2422 286.306C77.3876 285.677 77.533 285.241 77.533 285.241C77.533 285.241 77.533 285.224 77.533 285.192C77.533 285.128 77.5492 285.063 77.5815 284.998C77.6461 284.805 77.743 284.546 77.8723 284.223C77.6784 284.029 77.4361 283.787 77.1453 283.545C76.6121 282.964 76.079 282.334 76.079 282.334C76.079 282.334 76.1759 282.14 76.3214 281.849C76.5152 281.559 76.7575 281.171 76.9514 280.783C77.1938 280.396 77.4846 280.105 77.6784 279.814C77.7754 279.685 77.8561 279.572 77.9208 279.475C77.9854 279.411 78.0177 279.378 78.0177 279.378C78.0177 279.378 78.7932 279.572 79.5202 279.863C79.8595 280.008 80.1987 280.105 80.4411 280.251C80.4411 280.218 80.4411 280.202 80.4411 280.202C80.6834 279.96 80.8773 279.814 81.0227 279.669C81.1842 279.54 81.265 279.475 81.265 279.475C81.265 279.475 81.3296 279.395 81.4589 279.233C81.6204 279.136 81.8304 278.991 82.0889 278.797C82.1213 278.797 82.1374 278.781 82.1374 278.749C82.0405 278.506 81.9435 278.167 81.8951 277.828C81.7497 277.053 81.6527 276.229 81.6527 276.229C81.6527 276.229 81.7981 276.132 82.0889 275.939C82.3797 275.793 82.8159 275.6 83.2037 275.406C83.5914 275.212 84.0276 275.067 84.3184 274.97C84.6577 274.824 84.8516 274.776 84.8516 274.776C84.8516 274.776 84.997 274.921 85.1908 275.164C85.3847 275.357 85.627 275.696 85.8694 276.036C86.0632 276.278 86.2571 276.569 86.451 276.811C86.7903 276.714 87.0326 276.665 87.2265 276.617C87.4203 276.617 87.5173 276.617 87.5173 276.617C87.5173 276.617 87.6142 276.601 87.8081 276.569C88.0019 276.52 88.2927 276.52 88.632 276.472C88.7289 276.229 88.8259 275.89 88.9713 275.551C89.2621 274.824 89.6014 274.098 89.6014 274.098C89.6014 274.098 89.7952 274.098 90.1345 274.098C90.296 274.13 90.4899 274.146 90.7161 274.146C90.91 274.178 91.12 274.211 91.3462 274.243C91.7824 274.291 92.2186 274.34 92.5579 274.437C92.8971 274.534 93.091 274.582 93.091 274.582C93.091 274.582 93.2364 275.406 93.2849 276.181C93.2849 276.52 93.3333 276.859 93.3333 277.15C93.6726 277.295 93.9149 277.344 94.1088 277.441C94.2703 277.537 94.3511 277.586 94.3511 277.586C94.3511 277.586 94.4481 277.618 94.6419 277.683C94.7873 277.78 95.0781 277.877 95.3205 278.07C95.3528 278.07 95.3689 278.07 95.3689 278.07C95.5628 277.925 95.8536 277.683 96.1444 277.489C96.7745 277.005 97.453 276.569 97.453 276.569C97.453 276.569 97.6469 276.714 97.8892 276.908C98.18 277.101 98.5193 277.344 98.8586 277.683C99.1979 277.973 99.5371 278.264 99.731 278.506C99.9733 278.749 100.119 278.894 100.119 278.894C100.119 278.894 99.7794 279.621 99.4402 280.347C99.2463 280.638 99.1009 280.929 98.9555 281.171C98.9555 281.171 98.9555 281.187 98.9555 281.219C99.1494 281.478 99.3109 281.688 99.4402 281.849C99.5371 282.011 99.5856 282.092 99.5856 282.092C99.5856 282.092 99.634 282.172 99.731 282.334C99.8279 282.528 100.022 282.721 100.119 283.06C100.151 283.06 100.167 283.06 100.167 283.06C100.41 283.012 100.749 283.012 101.088 282.964C101.912 282.915 102.736 282.915 102.736 282.915C102.736 282.915 102.752 282.964 102.784 283.06C102.817 283.157 102.865 283.287 102.93 283.448C103.027 283.739 103.221 284.175 103.318 284.611C103.414 285.047 103.56 285.434 103.608 285.774C103.657 286.113 103.705 286.306 103.705 286.306C103.705 286.306 103.027 286.791 102.348 287.179C102.057 287.324 101.718 287.469 101.476 287.615C101.524 288.293 101.524 288.729 101.524 288.729C101.524 288.729 101.524 289.165 101.476 289.795C101.476 289.827 101.476 289.843 101.476 289.843C101.718 289.94 102.057 290.134 102.348 290.279ZM96.2898 288.729C96.2898 284.805 93.091 281.559 89.1651 281.559C85.2393 281.559 82.0405 284.805 82.0405 288.729C82.0405 292.653 85.2393 295.851 89.1651 295.851C93.091 295.851 96.2898 292.653 96.2898 288.729Z" stroke="#4A5151" stroke-width="1.45401" stroke-linecap="round" stroke-linejoin="round"/>
<path d="M65.1232 157.001C65.1232 172.892 52.2309 185.828 36.2852 185.828C20.3395 185.828 7.44727 172.892 7.44727 157.001C7.44727 141.062 20.3395 128.175 36.2852 128.175C52.2309 128.175 65.1232 141.062 65.1232 157.001Z" fill="url(#paint6_linear_1_493)"/>
<path d="M541.555 157.001C541.555 172.892 528.663 185.828 512.717 185.828C496.771 185.828 483.879 172.892 483.879 157.001C483.879 141.062 496.771 128.175 512.717 128.175C528.663 128.175 541.555 141.062 541.555 157.001Z" fill="url(#paint7_linear_1_493)"/>
<path d="M44.9609 163.299H50.3893C53.2973 163.299 55.6722 160.925 55.6722 158.018C55.6722 155.111 53.2973 152.786 50.3893 152.786C50.5508 152.269 50.6316 151.72 50.6316 151.138C50.6316 147.844 47.9659 145.179 44.6701 145.179C43.1192 145.179 41.7621 145.761 40.6958 146.681C39.7265 143.193 36.5276 140.625 32.6987 140.625C28.1428 140.625 24.4593 144.307 24.4593 148.861H24.12C20.1457 148.861 16.8984 152.107 16.8984 156.08C16.8984 160.053 20.1457 163.299 24.12 163.299H27.0281" stroke="#D5D8D8" stroke-width="1.45401" stroke-linecap="round" stroke-linejoin="round"/>
<path d="M31.7767 156.323V166.401H28.2871L36.2842 173.329L44.2813 166.401H40.5008V156.323" stroke="#D5D8D8" stroke-width="1.45401" stroke-linecap="round" stroke-linejoin="round"/>
<path d="M504.818 152.69C504.818 145.956 510.295 140.53 517.032 140.53C523.769 140.53 529.197 145.956 529.197 152.69C529.197 159.424 523.769 164.85 517.032 164.85C510.295 164.85 504.818 159.424 504.818 152.69Z" stroke="#D5D8D8" stroke-width="1.45401" stroke-linecap="round" stroke-linejoin="round"/>
<path d="M517.03 160.248C512.861 160.248 509.469 156.856 509.469 152.69C509.469 148.523 512.861 145.132 517.03 145.132C521.198 145.132 524.542 148.523 524.542 152.69" stroke="#D5D8D8" stroke-width="1.45401" stroke-linecap="round" stroke-linejoin="round"/>
<path d="M508.402 161.314L505.445 164.269" stroke="#D5D8D8" stroke-width="1.45401" stroke-linecap="round" stroke-linejoin="round"/>
<path d="M496.868 172.845C496.044 172.021 496.044 170.665 496.868 169.841L503.556 163.156L506.513 166.159L499.824 172.845C499 173.669 497.692 173.669 496.868 172.845Z" stroke="#D5D8D8" stroke-width="1.45401" stroke-linecap="round" stroke-linejoin="round"/>
<path d="M548 157.001C548 176.477 532.2 192.271 512.716 192.271C493.232 192.271 477.432 176.477 477.432 157.001C477.432 137.477 493.232 121.683 512.716 121.683" stroke="#D5D8D8" stroke-width="1.93869" stroke-linecap="round" stroke-linejoin="round"/>
<path d="M36.2841 121.683C55.7679 121.683 71.5682 137.477 71.5682 157.001C71.5682 176.477 55.7679 192.271 36.2841 192.271C16.8003 192.271 1 176.477 1 157.001" stroke="#D5D8D8" stroke-width="1.93869" stroke-linecap="round" stroke-linejoin="round"/>
<path d="M298.104 157.874H477.432" stroke="#D5D8D8" stroke-width="1.93869" stroke-linejoin="round"/>
<path d="M71.082 157.874H248.472" stroke="#D5D8D8" stroke-width="1.93869" stroke-linejoin="round"/>
<path d="M440.064 36.2695C440.064 49.1081 429.643 59.5244 416.799 59.5244C403.956 59.5244 393.535 49.1081 393.535 36.2695C393.535 23.4309 403.956 13.0146 416.799 13.0146C429.643 13.0146 440.064 23.4309 440.064 36.2695Z" fill="url(#paint8_linear_1_493)"/>
<path d="M427.946 24.1094H412.243C410.401 24.1094 408.947 25.6112 408.947 27.4523V34.8163C408.947 36.6573 410.401 38.1592 412.243 38.1592H425.717L431.291 43.7307V34.8163V33.3144V27.4523C431.291 25.6112 429.788 24.1094 427.946 24.1094Z" stroke="#4A5151" stroke-width="1.45401" stroke-linecap="round" stroke-linejoin="round"/>
<path d="M412.295 27.7432H427.95" stroke="#4A5151" stroke-width="1.45401" stroke-linecap="round" stroke-linejoin="round"/>
<path d="M420.969 30.6982H427.948" stroke="#4A5151" stroke-width="1.45401" stroke-linecap="round" stroke-linejoin="round"/>
<path d="M412.245 38.1599C410.403 38.1599 408.949 36.658 408.949 34.817V33.8965H405.072C403.569 33.8965 402.357 35.1077 402.357 36.658V41.1636V41.4543V48.4792L406.913 43.9251H417.867C419.369 43.9251 420.581 42.714 420.581 41.1636V38.1599H412.245Z" stroke="#4A5151" stroke-width="1.45401" stroke-linecap="round" stroke-linejoin="round"/>
<path d="M338.186 126.188H393.05C406.185 126.188 416.799 115.578 416.799 102.449V71.9268" stroke="#D5D8D8" stroke-width="1.93869" stroke-linejoin="round"/>
<path d="M416.8 1C436.284 1 452.084 16.7939 452.084 36.2699C452.084 55.7458 436.284 71.5397 416.8 71.5397C397.316 71.5397 381.516 55.7458 381.516 36.2699" stroke="#D5D8D8" stroke-width="1.93869" stroke-linecap="round" stroke-linejoin="round"/>
<path d="M154.495 36.2695C154.495 49.1081 144.075 59.5244 131.231 59.5244C118.387 59.5244 107.967 49.1081 107.967 36.2695C107.967 23.4309 118.387 13.0146 131.231 13.0146C144.075 13.0146 154.495 23.4309 154.495 36.2695Z" fill="url(#paint9_linear_1_493)"/>
<path d="M209.846 126.188H154.981C141.847 126.188 131.232 115.578 131.232 102.449V71.9268" stroke="#D5D8D8" stroke-width="1.93869" stroke-linejoin="round"/>
<path d="M128.664 38.3524L117.517 32.248C117.275 32.6356 117.178 33.0717 117.178 33.5561V44.0208C117.178 45.5227 118.389 46.7339 119.843 46.7339H142.575C144.077 46.7339 145.289 45.5227 145.289 44.0208V33.5561C145.289 33.0717 145.143 32.6356 144.949 32.248L133.754 38.3524" stroke="#D5D8D8" stroke-width="1.45401" stroke-linecap="round" stroke-linejoin="round"/>
<path d="M131.234 36.5127L118.1 46.0569C118.584 46.4929 119.166 46.7351 119.844 46.7351H142.576C143.254 46.7351 143.884 46.4929 144.369 46.0569L131.234 36.5127Z" stroke="#D5D8D8" stroke-width="1.45401" stroke-linecap="round" stroke-linejoin="round"/>
<path d="M131.233 36.5118L133.753 38.3528L141.12 34.3316V26.8223H121.346V34.3316L128.664 38.3528L131.233 36.5118Z" stroke="#D5D8D8" stroke-width="1.45401" stroke-linecap="round" stroke-linejoin="round"/>
<path d="M136.759 26.8223L132.639 24.303C131.767 23.7701 130.701 23.7701 129.828 24.303L125.66 26.8223H136.759Z" stroke="#D5D8D8" stroke-width="1.45401" stroke-linecap="round" stroke-linejoin="round"/>
<path d="M143.98 31.2799L141.121 29.4873V34.3321L133.754 38.3532L131.233 36.5122L128.664 38.3532L121.346 34.3321V29.4873L118.438 31.2799C117.662 31.7643 117.178 32.6364 117.178 33.5569V44.0216C117.178 45.5235 118.389 46.7347 119.843 46.7347H142.575C144.077 46.7347 145.289 45.5235 145.289 44.0216V33.5569C145.289 32.6364 144.804 31.7643 143.98 31.2799Z" stroke="#D5D8D8" stroke-width="1.45401" stroke-linecap="round" stroke-linejoin="round"/>
<path d="M166.515 36.2699C166.515 55.7458 150.715 71.5397 131.231 71.5397C111.748 71.5397 95.9473 55.7458 95.9473 36.2699C95.9473 16.7939 111.748 1 131.231 1" stroke="#D5D8D8" stroke-width="1.93869" stroke-linecap="round" stroke-linejoin="round"/>
<g style="mix-blend-mode:overlay" opacity="0.4">
<path d="M223.366 126.189C223.366 131.615 218.955 136.024 213.527 136.024C208.147 136.024 203.736 131.615 203.736 126.189C203.736 120.811 208.147 116.402 213.527 116.402C218.955 116.402 223.366 120.811 223.366 126.189Z" fill="#F1F2EE"/>
</g>
<g style="mix-blend-mode:overlay" opacity="0.4">
<path d="M344.291 126.189C344.291 131.615 339.881 136.024 334.501 136.024C329.073 136.024 324.662 131.615 324.662 126.189C324.662 120.811 329.073 116.402 334.501 116.402C339.881 116.402 344.291 120.811 344.291 126.189Z" fill="#F1F2EE"/>
</g>
<g style="mix-blend-mode:overlay" opacity="0.4">
<path d="M264.804 157.873C264.804 164.849 259.134 170.469 252.203 170.469C245.224 170.469 239.602 164.849 239.602 157.873C239.602 150.945 245.224 145.276 252.203 145.276C259.134 145.276 264.804 150.945 264.804 157.873Z" fill="#F1F2EE"/>
</g>
<g style="mix-blend-mode:overlay" opacity="0.4">
<path d="M306.826 157.873C306.826 164.849 301.204 170.469 294.225 170.469C287.294 170.469 281.623 164.849 281.623 157.873C281.623 150.945 287.294 145.276 294.225 145.276C301.204 145.276 306.826 150.945 306.826 157.873Z" fill="#F1F2EE"/>
</g>
<g style="mix-blend-mode:overlay" opacity="0.4">
<path d="M246.533 203.414C246.533 208.84 242.123 213.249 236.743 213.249C231.315 213.249 226.904 208.84 226.904 203.414C226.904 197.988 231.315 193.628 236.743 193.628C242.123 193.628 246.533 197.988 246.533 203.414Z" fill="#F1F2EE"/>
</g>
<g style="mix-blend-mode:overlay" opacity="0.4">
<path d="M321.123 203.414C321.123 208.84 316.713 213.249 311.285 213.249C305.905 213.249 301.494 208.84 301.494 203.414C301.494 197.988 305.905 193.628 311.285 193.628C316.713 193.628 321.123 197.988 321.123 203.414Z" fill="#F1F2EE"/>
</g>
<path d="M217.259 126.188C217.259 128.271 215.611 129.918 213.527 129.918C211.492 129.918 209.844 128.271 209.844 126.188C209.844 124.153 211.492 122.506 213.527 122.506C215.611 122.506 217.259 124.153 217.259 126.188Z" stroke="#D5D8D8" stroke-width="1.45401" stroke-linecap="round" stroke-linejoin="round"/>
<path d="M338.185 126.188C338.185 128.271 336.537 129.918 334.502 129.918C332.417 129.918 330.77 128.271 330.77 126.188C330.77 124.153 332.417 122.506 334.502 122.506C336.537 122.506 338.185 124.153 338.185 126.188Z" stroke="#D5D8D8" stroke-width="1.45401" stroke-linecap="round" stroke-linejoin="round"/>
<path d="M297.957 157.873C297.957 159.957 296.309 161.604 294.225 161.604C292.189 161.604 290.541 159.957 290.541 157.873C290.541 155.839 292.189 154.191 294.225 154.191C296.309 154.191 297.957 155.839 297.957 157.873Z" stroke="#D5D8D8" stroke-width="1.45401" stroke-linecap="round" stroke-linejoin="round"/>
<path d="M255.888 157.873C255.888 159.957 254.24 161.604 252.205 161.604C250.121 161.604 248.473 159.957 248.473 157.873C248.473 155.839 250.121 154.191 252.205 154.191C254.24 154.191 255.888 155.839 255.888 157.873Z" stroke="#D5D8D8" stroke-width="1.45401" stroke-linecap="round" stroke-linejoin="round"/>
<path d="M240.427 203.414C240.427 205.498 238.779 207.145 236.744 207.145C234.66 207.145 233.012 205.498 233.012 203.414C233.012 201.38 234.66 199.732 236.744 199.732C238.779 199.732 240.427 201.38 240.427 203.414Z" stroke="#D5D8D8" stroke-width="1.45401" stroke-linecap="round" stroke-linejoin="round"/>
<path d="M315.017 203.414C315.017 205.498 313.369 207.145 311.285 207.145C309.249 207.145 307.602 205.498 307.602 203.414C307.602 201.38 309.249 199.732 311.285 199.732C313.369 199.732 315.017 201.38 315.017 203.414Z" stroke="#D5D8D8" stroke-width="1.45401" stroke-linecap="round" stroke-linejoin="round"/>
<path d="M274.014 136.459C264.902 136.459 257.486 129.047 257.486 119.938V115.578H290.541V119.938C290.541 129.047 283.125 136.459 274.014 136.459Z" fill="url(#paint10_linear_1_493)"/>
<path d="M315.211 48.6243C315.211 25.5632 296.26 6.95935 273.093 7.44382C250.555 7.97675 232.816 26.0962 232.816 48.6243C232.816 60.6877 238.051 71.5885 246.339 79.0978C252.058 84.2333 255.354 91.5004 255.354 99.2036V110.056H292.673V99.2036C292.673 91.5004 295.969 84.2333 301.688 79.0978C309.976 71.5885 315.211 60.6877 315.211 48.6243Z" fill="url(#paint11_linear_1_493)"/>
<path d="M268.635 103.466L262.092 62.4792L263.594 64.0296C264.418 64.8532 265.727 64.8532 266.551 64.0296C267.375 63.206 268.732 63.206 269.556 64.0296C270.38 64.8532 271.688 64.8532 272.512 64.0296C273.336 63.206 274.693 63.206 275.517 64.0296C276.341 64.8532 277.65 64.8532 278.474 64.0296C279.298 63.206 280.655 63.206 281.479 64.0296C282.303 64.8532 283.611 64.8532 284.435 64.0296L285.938 62.4792L279.395 103.466" stroke="#D5D8D8" stroke-width="1.93869" stroke-linecap="round" stroke-linejoin="round"/>
<path d="M242.412 49.1087C242.412 31.6191 256.565 17.4724 274.013 17.4724" stroke="#D5D8D8" stroke-width="1.93869" stroke-linecap="round" stroke-linejoin="round"/>
<path d="M294.368 107.876H253.656C252.444 107.876 251.475 106.858 251.475 105.647C251.475 104.436 252.444 103.467 253.656 103.467H294.368C295.58 103.467 296.549 104.436 296.549 105.647C296.549 106.858 295.58 107.876 294.368 107.876Z" fill="url(#paint12_linear_1_493)"/>
<path d="M294.368 112.284H253.656C252.444 112.284 251.475 111.267 251.475 110.055C251.475 108.844 252.444 107.875 253.656 107.875H294.368C295.58 107.875 296.549 108.844 296.549 110.055C296.549 111.267 295.58 112.284 294.368 112.284Z" fill="url(#paint13_linear_1_493)"/>
<path d="M294.368 116.692H253.656C252.444 116.692 251.475 115.675 251.475 114.463C251.475 113.252 252.444 112.283 253.656 112.283H294.368C295.58 112.283 296.549 113.252 296.549 114.463C296.549 115.675 295.58 116.692 294.368 116.692Z" fill="url(#paint14_linear_1_493)"/>
<path d="M294.368 121.054H253.656C252.444 121.054 251.475 120.085 251.475 118.874C251.475 117.662 252.444 116.693 253.656 116.693H294.368C295.58 116.693 296.549 117.662 296.549 118.874C296.549 120.085 295.58 121.054 294.368 121.054Z" fill="url(#paint15_linear_1_493)"/>
<defs>
<linearGradient id="paint0_linear_1_493" x1="150.329" y1="146.168" x2="397.701" y2="146.168" gradientUnits="userSpaceOnUse">
<stop stop-color="#032F35"/>
<stop offset="1" stop-color="#1A1A1A"/>
</linearGradient>
<linearGradient id="paint1_linear_1_493" x1="140.302" y1="293.937" x2="407.729" y2="293.937" gradientUnits="userSpaceOnUse">
<stop stop-color="#032F35"/>
<stop offset="1" stop-color="#1A1A1A"/>
</linearGradient>
<linearGradient id="paint2_linear_1_493" x1="240.535" y1="282.057" x2="240.535" y2="157.883" gradientUnits="userSpaceOnUse">
<stop stop-color="#F4F5F5"/>
<stop offset="1" stop-color="#D5D8D8"/>
</linearGradient>
<linearGradient id="paint3_linear_1_493" x1="170.722" y1="254.425" x2="170.722" y2="55.4596" gradientUnits="userSpaceOnUse">
<stop stop-color="#1E88E5"/>
<stop offset="1" stop-color="#0D47A1"/>
</linearGradient>
<linearGradient id="paint4_linear_1_493" x1="458.866" y1="242.21" x2="505.376" y2="288.738" gradientUnits="userSpaceOnUse">
<stop stop-color="#B6ED3E"/>
<stop offset="1" stop-color="#8AC112"/>
</linearGradient>
<linearGradient id="paint5_linear_1_493" x1="89.1593" y1="242.21" x2="135.669" y2="288.738" gradientUnits="userSpaceOnUse">
<stop stop-color="#B6ED3E"/>
<stop offset="1" stop-color="#8AC112"/>
</linearGradient>
<linearGradient id="paint6_linear_1_493" x1="36.2901" y1="99.325" x2="93.9447" y2="157.003" gradientUnits="userSpaceOnUse">
<stop stop-color="#10664F"/>
<stop offset="1" stop-color="#032F35"/>
</linearGradient>
<linearGradient id="paint7_linear_1_493" x1="512.722" y1="99.325" x2="570.376" y2="157.003" gradientUnits="userSpaceOnUse">
<stop stop-color="#10664F"/>
<stop offset="1" stop-color="#032F35"/>
</linearGradient>
<linearGradient id="paint8_linear_1_493" x1="416.796" y1="-10.2514" x2="463.306" y2="36.2771" gradientUnits="userSpaceOnUse">
<stop stop-color="#B6ED3E"/>
<stop offset="1" stop-color="#8AC112"/>
</linearGradient>
<linearGradient id="paint9_linear_1_493" x1="131.235" y1="-10.2594" x2="177.746" y2="36.2707" gradientUnits="userSpaceOnUse">
<stop stop-color="#10664F"/>
<stop offset="1" stop-color="#032F35"/>
</linearGradient>
<linearGradient id="paint10_linear_1_493" x1="257.487" y1="115.549" x2="290.54" y2="115.549" gradientUnits="userSpaceOnUse">
<stop stop-color="#032F35"/>
<stop offset="1" stop-color="#1A1A1A"/>
</linearGradient>
<linearGradient id="paint11_linear_1_493" x1="210.038" y1="125.288" x2="210.038" y2="22.6738" gradientUnits="userSpaceOnUse">
<stop stop-color="#F1F2EE"/>
<stop offset="1" stop-color="#B6ED3E"/>
</linearGradient>
<linearGradient id="paint12_linear_1_493" x1="251.476" y1="103.461" x2="296.548" y2="103.461" gradientUnits="userSpaceOnUse">
<stop stop-color="#032F35"/>
<stop offset="1" stop-color="#1A1A1A"/>
</linearGradient>
<linearGradient id="paint13_linear_1_493" x1="267.462" y1="112.284" x2="267.462" y2="107.876" gradientUnits="userSpaceOnUse">
<stop stop-color="#032F35"/>
<stop offset="1" stop-color="#F1F2EE"/>
</linearGradient>
<linearGradient id="paint14_linear_1_493" x1="251.476" y1="112.277" x2="296.548" y2="112.277" gradientUnits="userSpaceOnUse">
<stop stop-color="#032F35"/>
<stop offset="1" stop-color="#1A1A1A"/>
</linearGradient>
<linearGradient id="paint15_linear_1_493" x1="267.462" y1="121.054" x2="267.462" y2="116.694" gradientUnits="userSpaceOnUse">
<stop stop-color="#032F35"/>
<stop offset="1" stop-color="#F1F2EE"/>
</linearGradient>
</defs>
</svg>
