<svg width="21" height="20" viewBox="0 0 21 20" fill="none" xmlns="http://www.w3.org/2000/svg">
<path d="M18.2678 7.5C18.2682 7.44189 18.2603 7.38403 18.2444 7.32812L17.1233 3.40625C17.0479 3.14603 16.8904 2.91716 16.6743 2.75382C16.4582 2.59049 16.195 2.50145 15.9241 2.5H4.36157C4.09066 2.50145 3.82749 2.59049 3.61135 2.75382C3.39521 2.91716 3.23771 3.14603 3.16235 3.40625L2.04204 7.32812C2.0259 7.38399 2.01775 7.44185 2.01782 7.5V8.75C2.01782 9.23514 2.13078 9.71362 2.34774 10.1475C2.5647 10.5815 2.87971 10.9589 3.26782 11.25V16.875C3.26782 17.0408 3.33367 17.1997 3.45088 17.3169C3.56809 17.4342 3.72706 17.5 3.89282 17.5H16.3928C16.5586 17.5 16.7176 17.4342 16.8348 17.3169C16.952 17.1997 17.0178 17.0408 17.0178 16.875V11.25C17.4059 10.9589 17.7209 10.5815 17.9379 10.1475C18.1549 9.71362 18.2678 9.23514 18.2678 8.75V7.5ZM4.36157 3.75H15.9241L16.8163 6.875H3.47173L4.36157 3.75ZM8.26782 8.125H12.0178V8.75C12.0178 9.24728 11.8203 9.72419 11.4686 10.0758C11.117 10.4275 10.6401 10.625 10.1428 10.625C9.64554 10.625 9.16863 10.4275 8.817 10.0758C8.46537 9.72419 8.26782 9.24728 8.26782 8.75V8.125ZM7.01782 8.125V8.75C7.01771 9.07243 6.93445 9.38938 6.7761 9.67023C6.61774 9.95109 6.38963 10.1864 6.11381 10.3533C5.83798 10.5203 5.52376 10.6133 5.20149 10.6234C4.87923 10.6335 4.5598 10.5603 4.27407 10.4109C4.2306 10.3771 4.18277 10.3492 4.13189 10.3281C3.8671 10.1586 3.64919 9.92524 3.4982 9.64947C3.34721 9.3737 3.26799 9.0644 3.26782 8.75V8.125H7.01782ZM15.7678 16.25H4.51782V11.8125C4.72357 11.854 4.93293 11.8749 5.14282 11.875C5.62796 11.875 6.10644 11.762 6.54037 11.5451C6.97429 11.3281 7.35174 11.0131 7.64282 10.625C7.93391 11.0131 8.31136 11.3281 8.74528 11.5451C9.1792 11.762 9.65768 11.875 10.1428 11.875C10.628 11.875 11.1064 11.762 11.5404 11.5451C11.9743 11.3281 12.3517 11.0131 12.6428 10.625C12.9339 11.0131 13.3114 11.3281 13.7453 11.5451C14.1792 11.762 14.6577 11.875 15.1428 11.875C15.3527 11.8749 15.5621 11.854 15.7678 11.8125V16.25ZM16.153 10.3281C16.1028 10.3493 16.0555 10.3769 16.0124 10.4102C15.7267 10.5597 15.4072 10.633 15.0849 10.6231C14.7626 10.6131 14.4483 10.5202 14.1724 10.3533C13.8965 10.1864 13.6682 9.95115 13.5098 9.6703C13.3513 9.38944 13.268 9.07247 13.2678 8.75V8.125H17.0178V8.75C17.0176 9.06447 16.9382 9.37382 16.7871 9.6496C16.636 9.92537 16.4179 10.1587 16.153 10.3281Z" fill="#10664F"/>
</svg>
