<svg width="124" height="44" viewBox="0 0 124 44" fill="none" xmlns="http://www.w3.org/2000/svg">
<g id="Talk">
<path d="M0.337891 9.44578V0H37.868V9.44578H24.8801V43.1807H13.3258V9.44578H0.337891Z" fill="white"/>
<path d="M47.0661 43.6867C44.9998 43.6867 43.1725 43.3494 41.5841 42.6747C40.0098 41.9859 38.7729 40.9458 37.8733 39.5542C36.9737 38.1627 36.5239 36.3916 36.5239 34.241C36.5239 32.4699 36.8261 30.9588 37.4305 29.7078C38.0349 28.4428 38.8783 27.4096 39.9606 26.6084C41.043 25.8072 42.301 25.1958 43.7347 24.7741C45.1825 24.3524 46.7428 24.0783 48.4155 23.9518C50.2287 23.8112 51.6835 23.6426 52.7799 23.4458C53.8904 23.2349 54.6916 22.9468 55.1835 22.5813C55.6755 22.2018 55.9215 21.7028 55.9215 21.0843V21C55.9215 20.1566 55.5982 19.51 54.9516 19.0602C54.305 18.6104 53.4757 18.3855 52.4636 18.3855C51.3532 18.3855 50.4466 18.6315 49.7438 19.1235C49.055 19.6014 48.6404 20.3394 48.4998 21.3373H37.7889C37.9295 19.3695 38.555 17.5562 39.6654 15.8976C40.7899 14.2249 42.4275 12.8896 44.5781 11.8916C46.7287 10.8795 49.4134 10.3735 52.6323 10.3735C54.9516 10.3735 57.0319 10.6476 58.8733 11.1958C60.7146 11.7299 62.2819 12.4819 63.5751 13.4518C64.8683 14.4076 65.8522 15.5321 66.5269 16.8253C67.2156 18.1044 67.56 19.496 67.56 21V43.1807H56.6805V38.6265H56.4275C55.7809 39.8353 54.9938 40.8122 54.0661 41.5572C53.1524 42.3022 52.1052 42.8434 50.9245 43.1807C49.7578 43.5181 48.4717 43.6867 47.0661 43.6867ZM50.8612 36.3494C51.7468 36.3494 52.5761 36.1667 53.3492 35.8012C54.1363 35.4357 54.7759 34.9086 55.2679 34.2199C55.7598 33.5311 56.0058 32.6948 56.0058 31.7108V29.012C55.6966 29.1386 55.3663 29.258 55.0148 29.3705C54.6775 29.4829 54.312 29.5884 53.9185 29.6867C53.5389 29.7851 53.1313 29.8765 52.6956 29.9608C52.2739 30.0452 51.8311 30.1225 51.3673 30.1928C50.4677 30.3333 49.7297 30.5653 49.1534 30.8886C48.5912 31.1978 48.1695 31.5843 47.8883 32.0482C47.6213 32.498 47.4877 33.004 47.4877 33.5663C47.4877 34.4659 47.804 35.1546 48.4365 35.6325C49.0691 36.1104 49.8773 36.3494 50.8612 36.3494Z" fill="white"/>
<path d="M84.7596 0V43.1807H73.121V0H84.7596Z" fill="white"/>
<path d="M101.147 35.506L101.232 21.6747H102.75L110.593 10.7952H123.665L110.509 27.747H107.22L101.147 35.506ZM90.6895 43.1807V0H102.328V43.1807H90.6895ZM110.677 43.1807L103.256 30.3614L110.846 22.0964L124.003 43.1807H110.677Z" fill="white"/>
</g>
</svg>
