<svg width="16" height="16" viewBox="0 0 16 16" fill="none" xmlns="http://www.w3.org/2000/svg">
<g id="ph:trash">
<path id="Vector" d="M13.4999 3.00024H10.9999V2.50024C10.9999 2.10242 10.8419 1.72089 10.5606 1.43958C10.2793 1.15828 9.89773 1.00024 9.4999 1.00024H6.4999C6.10208 1.00024 5.72055 1.15828 5.43924 1.43958C5.15794 1.72089 4.9999 2.10242 4.9999 2.50024V3.00024H2.4999C2.36729 3.00024 2.24012 3.05292 2.14635 3.14669C2.05258 3.24046 1.9999 3.36764 1.9999 3.50024C1.9999 3.63285 2.05258 3.76003 2.14635 3.8538C2.24012 3.94757 2.36729 4.00024 2.4999 4.00024H2.9999V13.0002C2.9999 13.2655 3.10526 13.5198 3.29279 13.7074C3.48033 13.8949 3.73468 14.0002 3.9999 14.0002H11.9999C12.2651 14.0002 12.5195 13.8949 12.707 13.7074C12.8945 13.5198 12.9999 13.2655 12.9999 13.0002V4.00024H13.4999C13.6325 4.00024 13.7597 3.94757 13.8535 3.8538C13.9472 3.76003 13.9999 3.63285 13.9999 3.50024C13.9999 3.36764 13.9472 3.24046 13.8535 3.14669C13.7597 3.05292 13.6325 3.00024 13.4999 3.00024ZM5.9999 2.50024C5.9999 2.36764 6.05258 2.24046 6.14635 2.14669C6.24012 2.05292 6.36729 2.00024 6.4999 2.00024H9.4999C9.63251 2.00024 9.75969 2.05292 9.85345 2.14669C9.94722 2.24046 9.9999 2.36764 9.9999 2.50024V3.00024H5.9999V2.50024ZM11.9999 13.0002H3.9999V4.00024H11.9999V13.0002ZM6.9999 6.50024V10.5002C6.9999 10.6329 6.94722 10.76 6.85345 10.8538C6.75969 10.9476 6.63251 11.0002 6.4999 11.0002C6.36729 11.0002 6.24012 10.9476 6.14635 10.8538C6.05258 10.76 5.9999 10.6329 5.9999 10.5002V6.50024C5.9999 6.36764 6.05258 6.24046 6.14635 6.14669C6.24012 6.05292 6.36729 6.00024 6.4999 6.00024C6.63251 6.00024 6.75969 6.05292 6.85345 6.14669C6.94722 6.24046 6.9999 6.36764 6.9999 6.50024ZM9.9999 6.50024V10.5002C9.9999 10.6329 9.94722 10.76 9.85345 10.8538C9.75969 10.9476 9.63251 11.0002 9.4999 11.0002C9.36729 11.0002 9.24012 10.9476 9.14635 10.8538C9.05258 10.76 8.9999 10.6329 8.9999 10.5002V6.50024C8.9999 6.36764 9.05258 6.24046 9.14635 6.14669C9.24012 6.05292 9.36729 6.00024 9.4999 6.00024C9.63251 6.00024 9.75969 6.05292 9.85345 6.14669C9.94722 6.24046 9.9999 6.36764 9.9999 6.50024Z" fill="#FF4F50"/>
</g>
</svg>
