<svg width="32" height="32" viewBox="0 0 32 32" fill="none" xmlns="http://www.w3.org/2000/svg">
<path d="M20.3454 12.9608L17.305 16L20.3454 19.0392C20.4312 19.125 20.4992 19.2268 20.5456 19.3389C20.592 19.4509 20.6159 19.571 20.6159 19.6923C20.6159 19.8136 20.592 19.9337 20.5456 20.0457C20.4992 20.1578 20.4312 20.2596 20.3454 20.3454C20.2596 20.4311 20.1578 20.4992 20.0458 20.5456C19.9337 20.592 19.8136 20.6159 19.6923 20.6159C19.571 20.6159 19.4509 20.592 19.3389 20.5456C19.2268 20.4992 19.125 20.4311 19.0392 20.3454L16 17.305L12.9608 20.3454C12.875 20.4311 12.7732 20.4992 12.6611 20.5456C12.5491 20.592 12.429 20.6159 12.3077 20.6159C12.1864 20.6159 12.0663 20.592 11.9543 20.5456C11.8422 20.4992 11.7404 20.4311 11.6546 20.3454C11.5689 20.2596 11.5008 20.1578 11.4544 20.0457C11.408 19.9337 11.3841 19.8136 11.3841 19.6923C11.3841 19.571 11.408 19.4509 11.4544 19.3389C11.5008 19.2268 11.5689 19.125 11.6546 19.0392L14.695 16L11.6546 12.9608C11.4814 12.7876 11.3841 12.5526 11.3841 12.3077C11.3841 12.0627 11.4814 11.8278 11.6546 11.6546C11.8278 11.4814 12.0627 11.3841 12.3077 11.3841C12.5526 11.3841 12.7876 11.4814 12.9608 11.6546L16 14.695L19.0392 11.6546C19.125 11.5689 19.2268 11.5008 19.3389 11.4544C19.4509 11.408 19.571 11.3841 19.6923 11.3841C19.8136 11.3841 19.9337 11.408 20.0458 11.4544C20.1578 11.5008 20.2596 11.5689 20.3454 11.6546C20.4312 11.7404 20.4992 11.8422 20.5456 11.9542C20.592 12.0663 20.6159 12.1864 20.6159 12.3077C20.6159 12.429 20.592 12.5491 20.5456 12.6611C20.4992 12.7732 20.4312 12.875 20.3454 12.9608ZM28 16C28 18.3734 27.2962 20.6934 25.9776 22.6668C24.6591 24.6402 22.7849 26.1783 20.5922 27.0865C18.3995 27.9948 15.9867 28.2324 13.6589 27.7694C11.3311 27.3064 9.19295 26.1635 7.51472 24.4853C5.83649 22.807 4.6936 20.6689 4.23058 18.3411C3.76756 16.0133 4.0052 13.6005 4.91345 11.4078C5.8217 9.21508 7.35977 7.34094 9.33316 6.02236C11.3066 4.70379 13.6266 4 16 4C19.1816 4.00336 22.2319 5.26872 24.4816 7.51843C26.7313 9.76814 27.9966 12.8184 28 16ZM26.1538 16C26.1538 13.9918 25.5583 12.0286 24.4426 10.3588C23.3269 8.68903 21.7411 7.38759 19.8857 6.61907C18.0303 5.85055 15.9887 5.64947 14.0191 6.04126C12.0494 6.43305 10.2402 7.40011 8.82015 8.82015C7.40011 10.2402 6.43305 12.0494 6.04126 14.0191C5.64947 15.9887 5.85055 18.0303 6.61907 19.8857C7.38759 21.7411 8.68904 23.3269 10.3588 24.4426C12.0286 25.5583 13.9918 26.1538 16 26.1538C18.692 26.1508 21.2729 25.08 23.1765 23.1765C25.08 21.2729 26.1508 18.692 26.1538 16Z" fill="#9BA3A3"/>
</svg>
